<svg width="310" height="314" viewBox="0 0 310 314" fill="none" xmlns="http://www.w3.org/2000/svg">
<path d="M307.898 302.756C308.068 302.516 307.738 302.756 307.488 302.786C307.008 302.846 306.528 302.936 306.038 302.976C304.698 303.096 303.348 303.146 302.008 303.186C298.247 303.296 294.488 303.286 290.738 303.266C282.058 303.226 273.367 303.376 264.688 303.326C261.438 303.306 258.218 303.046 254.978 302.866C253.398 302.776 251.827 302.666 250.247 302.586C249.127 302.536 248.317 302.506 248.247 301.286C248.207 300.656 248.057 300.056 247.937 299.436C247.897 299.246 247.718 299.066 247.538 298.996C247.528 298.926 247.508 298.866 247.468 298.796C245.798 295.686 243.427 292.386 242.627 288.886C242.037 286.306 241.758 283.626 241.268 281.026C240.607 277.556 239.237 274.396 238.447 270.956C237.917 268.656 237.057 266.446 236.627 264.126C236.207 261.856 236.278 259.526 236.088 257.236C235.698 252.696 235.107 248.176 234.367 243.676C233.637 239.296 232.887 234.756 231.247 230.616C229.057 225.066 226.108 219.826 223.718 214.356C221.048 208.256 219.418 202.146 218.428 195.566C216.568 183.176 216.027 170.286 211.057 158.606C209.857 155.776 208.507 153.216 206.507 150.886C205.527 149.746 204.507 148.646 203.447 147.576C203.527 147.296 203.448 146.946 203.168 146.786C202.588 146.436 202.028 146.066 201.468 145.676C201.048 145.286 200.627 144.896 200.187 144.526C195.897 140.796 191.077 137.656 185.827 135.466C180.188 133.116 174.117 132.536 168.307 130.766C162.077 128.866 156.087 126.306 149.947 124.166C143.707 121.986 137.318 120.676 130.838 119.416C127.428 118.756 124.008 118.066 120.678 117.076C118.158 116.326 115.358 115.386 113.098 114.006C110.168 112.206 110.607 109.146 110.497 106.106C110.467 105.396 110.448 104.686 110.418 103.986C110.418 103.826 110.428 103.666 110.428 103.506C110.428 103.156 110.408 102.776 110.348 102.406C110.248 100.306 110.128 98.2057 109.978 96.1058C109.518 89.6758 108.778 83.2658 107.658 76.9258C106.468 70.1958 104.448 63.6557 103.488 56.9057C102.808 52.1157 101.748 47.4357 100.238 42.8457C99.4575 40.4657 98.6175 38.1058 97.7975 35.7458C97.6775 34.0658 97.8775 32.5058 97.9975 30.8258C98.1675 28.3858 97.3875 25.9057 96.6975 23.5957C96.0675 21.4957 95.0275 19.3857 94.8275 17.1957C94.6575 15.3357 94.7375 13.4558 94.7575 11.5858C94.7675 10.5758 95.0975 4.69574 92.4175 6.31574C90.9675 7.19574 90.5175 9.72574 90.3075 11.2557C90.2875 11.4257 90.2575 11.5957 90.2275 11.7557C90.1575 9.68574 90.0175 7.61574 89.7275 5.53574C89.5775 4.48574 89.4275 2.89575 88.2675 2.44575C87.0775 1.97575 86.4375 3.11576 86.0475 4.05576C85.8875 4.43576 85.7675 4.81577 85.6575 5.21577C85.1975 2.98577 84.3175 -0.0642474 82.4075 0.0457526C81.3875 0.105753 81.1075 1.17574 80.9075 2.00574C80.6775 2.98574 80.5075 3.98575 80.3675 4.98575C79.6475 3.06575 78.3975 -0.154256 76.2875 0.00574408C72.9975 0.255744 75.5175 9.20576 75.8875 10.9258C76.3975 13.3258 76.7175 15.7257 77.0975 18.1357C76.8375 17.9958 76.5775 17.8457 76.3075 17.6957C74.8175 16.8457 73.2075 16.1858 71.4675 16.1158C67.1075 15.9358 69.9575 20.5257 71.8475 21.8857C73.9275 23.3757 75.9775 24.7257 77.8475 26.5057C79.5275 28.1057 80.9575 30.0957 82.4575 31.8857C83.0275 32.6958 83.5475 33.4058 83.9475 34.3558C84.3375 35.3058 84.6575 36.2458 84.9175 37.2358C85.4475 39.2458 85.8875 41.2758 86.2175 43.3258C86.9275 47.8358 87.6075 52.3558 88.3575 56.8658C89.0475 60.9858 89.7275 65.1058 90.3675 69.2358C90.8375 72.2858 90.9575 75.2257 91.0475 78.3157C91.1375 81.3657 91.3775 84.3057 91.6375 87.3457C92.0275 91.8757 91.7875 96.3957 91.3975 100.906C91.2175 102.996 91.0475 105.096 90.8675 107.186C90.4675 107.426 90.1375 107.756 89.9575 108.206C89.6075 109.076 90.0175 110.186 90.0675 111.086C90.1475 112.666 90.0375 114.246 89.8875 115.816C89.7675 117.026 89.6775 118.216 89.6275 119.396C89.4775 120.776 89.3375 122.156 89.1775 123.536C88.9375 125.596 89.2775 127.446 89.8775 129.436C90.5475 131.646 91.1075 133.756 91.4675 136.036C91.6375 137.086 91.8375 138.186 91.9475 139.286C91.7375 141.706 90.6975 144.026 90.2475 146.426C89.6175 145.726 89.6575 144.476 89.6575 143.556C89.6575 140.876 89.5675 137.286 86.5375 136.126C85.3075 135.656 83.6875 135.796 82.4075 135.866C81.9075 135.896 81.4075 135.976 80.9175 136.046C79.8475 136.196 78.8875 135.836 77.8375 135.946C76.1775 136.106 75.0775 137.096 73.4375 136.216C72.3075 135.616 71.0775 134.536 69.7575 134.396C68.4275 134.256 67.3775 135.316 66.6475 136.286C65.8375 137.356 65.2275 138.586 63.8175 138.976C63.0375 139.196 62.1575 139.196 61.3575 139.356C56.0975 140.456 51.8275 144.076 50.3475 149.306C48.9375 154.296 50.0775 159.876 52.9175 164.156C56.3775 169.376 62.1175 172.066 68.1975 172.866C75.2375 173.796 82.7775 171.906 87.3075 166.126C88.3875 164.746 89.4775 163.466 90.8075 162.316C91.0475 162.116 91.3675 161.906 91.6875 161.686C91.5875 162.586 91.4875 163.486 91.4175 164.386C91.2975 165.786 90.9375 167.026 90.6975 168.396C90.2675 170.806 90.3775 173.466 90.2475 175.906C90.1075 178.576 90.0275 181.246 90.1975 183.916C90.3475 186.306 90.7175 188.676 91.3675 190.986C92.0075 193.236 92.1375 195.506 92.0975 197.836C92.0475 200.146 91.8475 202.456 91.7875 204.766C91.7375 206.316 91.5675 208.186 92.2175 209.636C92.4875 210.246 92.9075 210.736 93.5175 211.026C94.6375 211.546 96.0275 211.146 96.2075 212.776C96.4875 215.386 96.2675 218.116 96.1275 220.726C95.8975 224.996 95.8575 229.286 95.5675 233.556C95.2375 238.356 94.6975 243.146 94.5575 247.956C94.4475 251.566 94.5375 255.166 94.1975 258.766C93.9875 260.996 93.5775 262.806 92.6075 264.806C92.3275 265.396 92.1275 265.896 91.7175 266.416C91.5175 266.666 91.3175 266.906 91.1475 267.166C91.1475 267.166 91.1275 267.176 91.1175 267.186C88.7675 269.456 87.7275 272.676 85.3475 274.896C84.0975 276.056 80.8175 278.266 82.2075 280.356C83.4575 282.246 85.7975 281.436 87.1875 280.286C88.0975 279.526 89.1075 278.166 90.3975 278.146C90.5375 278.146 90.6575 278.156 90.7575 278.196C90.3475 278.846 89.9375 279.496 89.5275 280.146C86.6475 284.786 83.1275 288.766 78.6575 291.946C76.3075 293.616 73.8475 294.886 70.9575 295.236C68.6775 295.516 66.4675 295.606 64.3275 296.506C64.3075 296.506 64.2875 296.526 64.2675 296.536C61.9075 297.236 59.4975 297.746 57.1275 298.376C55.3675 298.836 53.3175 298.916 51.8075 299.996C50.5175 300.916 50.2675 301.726 50.7175 303.206C50.8575 303.666 51.0775 304.076 51.0275 304.406C50.8375 304.486 50.7275 304.646 50.6775 304.826C50.6375 304.846 50.6075 304.866 50.5575 304.886C49.8875 305.166 48.8475 305.076 48.1275 305.126C44.6075 305.346 41.0775 305.296 37.5575 305.586C32.1375 306.016 26.7375 306.376 21.2975 306.386C14.4075 306.386 7.5275 306.476 0.6375 306.586C-0.2125 306.596 -0.2125 307.916 0.6375 307.906C12.4975 307.716 24.3875 307.986 36.2075 307.016C39.8675 306.716 43.5075 306.676 47.1775 306.506C48.5075 306.446 50.2075 306.536 51.4575 306.036C51.7375 305.926 51.9375 305.776 52.0775 305.616C52.2975 305.566 52.5175 305.496 52.7275 305.416C53.1075 305.666 53.5375 305.866 54.0775 305.986C55.4275 306.296 56.8275 306.626 58.2075 306.726C60.0875 306.856 62.0675 306.866 63.9475 306.766C64.7375 306.726 66.0375 306.726 66.4675 305.886C67.5575 303.796 62.4075 303.376 61.3675 303.296C59.5975 303.156 57.7475 303.146 55.9775 303.246C55.2075 303.286 54.4175 303.396 53.6775 303.626C53.4375 303.696 53.1975 303.796 52.9675 303.896C52.6875 303.666 52.4075 303.396 52.0975 303.076C52.0775 303.056 52.0575 303.036 52.0275 303.016C51.6975 301.886 51.8075 301.376 53.0975 300.716C53.9975 300.256 55.0975 300.236 56.0675 300.006C59.0275 299.326 62.0275 298.586 64.9275 297.706C65.0375 297.676 65.1275 297.616 65.1975 297.546C67.4175 296.686 69.8375 296.776 72.1675 296.376C74.4275 295.986 76.4675 294.946 78.3675 293.696C82.0875 291.256 85.5675 288.056 88.1875 284.466C89.3075 282.936 90.3375 281.336 91.3475 279.736C91.3475 279.826 91.3475 279.916 91.3475 279.996C91.3675 283.596 90.2075 287.386 89.0075 290.766C88.2375 292.946 85.9075 299.686 90.8175 298.246C91.6075 298.016 92.2175 297.476 92.6975 296.806C92.9175 297.546 93.3075 298.186 93.9475 298.616C94.1075 298.726 94.2775 298.806 94.4375 298.866C94.1875 299.166 93.9475 299.466 93.6975 299.776C92.8475 300.836 91.6475 301.966 91.6375 303.376C91.5975 303.436 91.5575 303.486 91.5175 303.546C89.5575 302.856 87.7275 302.276 85.6175 302.226C84.1075 302.186 80.2275 301.876 79.6175 303.876C78.7675 306.676 83.7975 307.006 85.3775 306.976C87.5075 306.936 90.2575 306.536 91.9375 305.066C92.0975 305.116 92.2575 305.166 92.4175 305.216C92.8175 305.496 93.3575 305.596 94.0375 305.696C94.8175 305.816 95.6175 305.836 96.4075 305.806C96.4875 305.806 96.5575 305.806 96.6375 305.806C96.7075 305.806 96.7775 305.796 96.8375 305.776C98.1775 305.696 99.5375 305.506 100.868 305.436C106.078 305.176 111.308 305.316 116.518 304.996C118.857 304.856 121.208 304.376 123.548 304.336C126.318 304.296 129.107 304.466 131.887 304.476C136.988 304.506 142.078 304.436 147.168 304.206C149.508 304.106 151.898 303.756 154.238 303.796C156.978 303.846 159.767 304.356 162.507 304.566C172.747 305.356 183.018 305.546 193.278 305.516C204.768 305.476 216.248 305.146 227.738 304.996C227.848 304.996 227.957 305.016 228.067 305.036C227.817 306.276 227.557 307.506 227.497 308.756C227.357 308.856 227.268 309.026 227.278 309.256C227.338 310.576 227.908 311.906 229.218 312.426C230.268 312.846 231.777 312.766 232.877 312.916C233.887 313.046 234.878 313.116 235.898 313.016C237.088 312.906 245.088 312.306 242.848 309.486C242.458 308.986 241.667 308.766 241.077 308.656C240.678 308.586 240.268 308.596 239.858 308.586C238.878 308.546 238.527 308.516 237.768 307.846C236.628 306.856 235.357 306.906 233.997 307.626C233.607 307.826 233.057 308.366 232.937 308.246C232.867 308.176 232.837 307.586 232.817 307.526C232.647 306.806 232.358 306.136 231.848 305.606C231.238 304.956 230.427 304.436 229.567 304.086C229.677 303.546 229.778 303.006 229.858 302.466C230.248 299.746 230.178 297.096 230.018 294.366C229.688 288.926 230.267 283.266 228.627 278.006C227.827 275.456 226.808 272.966 225.978 270.426C225.258 268.226 224.447 266.076 223.187 264.116C221.677 261.756 220.208 259.496 218.968 256.976C216.868 252.716 215.017 248.346 212.687 244.206C211.177 241.526 210.338 238.596 209.098 235.796C206.378 229.636 203.438 223.556 200.447 217.526C199.347 215.306 198.278 213.066 197.038 210.916C195.038 207.446 193.097 203.686 190.437 200.666C187.927 197.806 184.608 195.756 180.718 195.856C177.808 195.936 175.197 197.246 173.057 199.146C167.997 203.606 165.307 210.246 162.057 216.006C157.327 224.376 149.837 230.936 143.827 238.356C140.507 242.456 137.718 246.876 134.158 250.806C132.358 252.796 130.517 254.746 128.877 256.866C127.347 258.846 125.908 260.746 123.988 262.376C120.428 265.406 116.228 267.636 113.028 271.096C110.438 273.896 108.598 277.286 106.988 280.756C106.988 280.746 106.988 280.736 106.988 280.726C107.088 275.486 106.308 270.266 106.438 265.026C106.498 262.616 106.538 260.116 106.938 257.736C107.918 256.266 108.947 254.756 109.557 253.166C110.037 251.916 110.977 250.836 111.687 249.696C112.397 248.546 113.067 247.376 113.747 246.206C115.007 244.036 116.478 242.006 117.798 239.866C118.358 238.966 119.198 238.096 119.648 237.166C120.188 236.056 120.407 234.676 120.817 233.516C124.207 223.916 129.958 215.406 135.658 207.056C138.468 202.936 141.318 198.816 143.968 194.586C145.148 192.696 146.227 190.736 147.067 188.676C147.487 187.646 147.758 186.576 148.148 185.546C148.428 184.806 148.988 184.186 149.218 183.426C149.328 183.056 149.328 182.666 149.238 182.306C149.948 180.186 152.018 178.356 153.338 176.626C155.088 174.326 156.858 172.086 159.088 170.236C163.408 166.646 167.707 162.986 172.247 159.676C174.467 158.056 176.758 156.556 179.148 155.206C180.378 154.516 181.558 153.726 182.798 153.056C184.128 152.336 185.568 151.916 186.968 151.356C189.558 150.336 192.138 148.956 194.908 148.506C197.268 148.126 199.567 147.796 201.947 147.946C202.837 148.816 203.698 149.716 204.538 150.636C206.768 153.106 208.378 155.696 209.708 158.756C211.028 161.786 212.028 164.956 212.838 168.166C214.418 174.486 215.208 180.966 216.018 187.416C216.818 193.746 217.428 200.236 219.298 206.366C221.118 212.336 223.877 217.966 226.567 223.586C228.767 228.186 230.748 232.586 231.858 237.576C232.938 242.456 233.678 247.416 234.268 252.376C234.508 254.416 234.717 256.466 234.877 258.516C235.047 260.786 235.028 263.046 235.528 265.286C236.488 269.556 237.758 273.756 239.228 277.856C240.968 282.736 240.387 288.126 242.768 292.806C243.908 295.056 245.148 297.256 246.338 299.486C246.378 299.556 246.418 299.606 246.468 299.656C246.468 299.916 246.607 300.166 246.937 300.226C246.817 300.196 246.888 302.476 247.218 302.946C247.778 303.766 249.108 303.876 249.988 303.906C253.278 304.056 256.578 304.386 259.878 304.536C265.878 304.816 271.878 304.536 277.878 304.516C285.978 304.506 294.087 304.766 302.188 304.516C303.747 304.466 305.318 304.416 306.878 304.216C307.608 304.126 308.587 304.076 309.057 303.426C309.557 302.736 308.408 302.076 307.918 302.756H307.898ZM57.0975 304.556C58.3075 304.546 59.5275 304.516 60.7275 304.586C61.9575 304.656 63.9175 304.716 64.9975 305.266C65.5275 305.196 65.3675 305.246 64.5075 305.416C64.1975 305.436 63.8975 305.446 63.5875 305.456C62.9675 305.476 62.3575 305.466 61.7375 305.456C60.5475 305.436 59.3375 305.486 58.1475 305.396C56.9975 305.316 55.8875 305.006 54.7675 304.776C54.7275 304.776 54.6975 304.756 54.6575 304.746C55.4375 304.586 56.2275 304.546 57.0675 304.546L57.0975 304.556ZM154.947 127.426C156.557 128.036 158.158 128.646 159.768 129.246C158.217 129.036 156.678 128.826 155.148 128.436C151.858 127.596 148.567 126.216 145.367 125.066C142.537 124.046 139.758 122.916 136.898 121.986C143.088 123.296 149.018 125.196 154.947 127.426ZM79.7075 24.5858C79.3275 23.2858 79.0375 21.9657 78.7975 20.6357C79.6875 21.2757 80.4775 22.1058 80.8475 23.0558C81.0675 23.6258 81.2175 24.2757 81.2975 24.8757C81.3675 25.3957 81.6275 26.4257 80.3075 25.8757C79.9275 25.7157 79.7975 24.9158 79.6975 24.5858H79.7075ZM77.2775 24.3058C76.2475 23.3758 75.2275 22.4758 74.0475 21.7458C72.7575 20.9458 71.6275 20.2157 70.8175 18.8857C70.3275 18.0758 70.3675 17.5258 71.4275 17.4558C72.0075 17.4158 72.7775 17.6658 73.3375 17.8258C74.7575 18.2458 75.9875 19.1057 77.3075 19.7557C77.6075 21.6857 77.9075 23.8358 78.6375 25.6158C78.1975 25.1758 77.7475 24.7357 77.2775 24.3157V24.3058ZM92.6675 85.0458C92.3275 82.3358 92.3575 79.5858 92.2775 76.8558C92.1875 73.7558 91.8975 70.8457 91.4175 67.7557C90.0875 59.2057 88.7975 50.6158 87.2975 42.0858C86.9375 40.0358 86.4775 37.9857 85.8975 35.9757C85.6375 35.0657 85.2775 34.2257 84.9075 33.3457C84.5175 32.4157 84.0475 31.9257 83.4775 31.0957C83.4675 31.0757 83.4475 31.0658 83.4375 31.0458C82.4275 29.8558 81.4475 28.6558 80.4175 27.4958C80.6775 27.5858 80.9475 27.6158 81.2375 27.5758C84.2175 27.0958 82.1075 22.0258 80.8975 20.7758C80.1575 20.0058 79.3575 19.4558 78.5175 18.9558C78.0775 16.2458 77.7575 13.5257 77.1775 10.8457C76.7875 9.04574 76.4275 7.23574 76.1975 5.40574C76.1275 4.81574 75.5675 1.68574 76.3075 1.34574C77.5375 0.76574 79.4475 6.38576 79.7475 7.11576C79.8275 7.31576 79.9075 7.51577 79.9875 7.71577C79.5575 11.2758 80.0975 14.4757 81.8775 17.6257C82.0075 17.8557 82.2075 17.9557 82.4175 17.9457C82.7175 18.4457 83.6575 18.3358 83.6475 17.6158C83.5875 14.0058 82.5675 10.8158 81.3275 7.55576C81.4275 6.75576 81.5575 5.94576 81.6675 5.14576C81.7775 4.39576 81.8775 3.64574 82.0375 2.90574C82.1675 2.25574 82.0675 1.60576 82.7175 1.80576C83.6075 2.07576 83.8375 3.94575 84.0775 4.76575C84.4775 6.12575 84.7175 7.51575 85.0375 8.88575C85.0775 9.06575 85.1175 9.23575 85.1675 9.41575C85.1575 10.5257 85.1875 11.6257 85.1675 12.6857C85.1475 14.0557 84.8475 17.8357 86.7975 18.1957C87.1275 18.2557 87.5275 18.1058 87.6075 17.7358C88.1875 14.9558 87.2575 11.9257 86.4975 9.10575C86.5975 7.62575 86.7275 6.42575 86.7875 6.10575C86.8775 5.59575 87.0275 4.47574 87.4275 4.12574C88.0475 3.58574 88.1575 4.37574 88.2775 4.93574C88.4875 5.91574 88.5575 6.93576 88.6975 7.92576C89.1675 11.3058 88.9575 14.8157 88.9775 18.2257C88.9775 19.0757 90.2775 19.0757 90.2975 18.2257C90.3375 16.2557 91.1675 14.5058 91.4375 12.5758C91.6275 11.1658 91.6975 8.78574 92.8575 7.75574C93.1675 7.48574 93.0575 7.32575 93.3175 7.88575C93.3875 8.05575 93.3675 8.26574 93.3975 8.43574C93.4875 9.04574 93.4375 9.70575 93.4375 10.3258C93.4375 11.9758 93.3775 13.6158 93.4075 15.2658C93.4675 18.7758 94.8275 21.7958 95.7675 25.1458C96.2975 27.0258 96.8175 28.9858 96.6575 30.9558C96.5175 32.6458 96.3375 34.2157 96.4875 35.9157C96.4875 35.9257 96.4875 35.9458 96.4875 35.9558C96.4875 35.9958 96.4875 36.0358 96.4875 36.0758C96.4975 36.2258 96.5575 36.3457 96.6275 36.4357C98.1675 40.8757 99.7775 45.3058 100.848 49.8958C101.458 52.5058 101.897 55.1458 102.268 57.7958C102.488 59.3958 102.618 60.9658 103.048 62.5258C103.507 64.2058 103.948 65.8957 104.348 67.5957C106.938 78.3657 108.267 89.3457 108.887 100.386C108.757 100.346 108.618 100.316 108.458 100.296C106.508 100.116 104.568 101.976 102.998 102.816C100.448 104.186 97.3875 105.646 94.5475 106.236C93.9075 106.366 93.0375 106.446 92.2275 106.636C92.4375 104.096 92.6275 101.556 92.8375 99.0158C93.2075 94.3458 93.2575 89.6858 92.6775 85.0258L92.6675 85.0458ZM81.1475 10.9958C81.5675 12.3458 81.9075 13.7057 82.1075 15.1257C81.5675 13.7957 81.2475 12.4358 81.1475 10.9958ZM91.8375 159.726C91.6675 159.736 91.4975 159.766 91.3575 159.806C89.5175 160.366 87.7175 161.086 85.8875 161.696C84.1575 162.276 82.4175 162.826 80.6775 163.366C80.2375 163.506 79.7975 163.636 79.3575 163.776C80.3675 162.426 80.9275 160.746 80.6675 159.096C81.2975 159.006 81.9275 158.846 82.5475 158.596C85.5875 157.366 87.4975 154.596 88.9775 151.796C89.5475 150.726 90.0575 149.626 90.5875 148.536C90.8475 148.546 91.1275 148.426 91.2475 148.166C91.4975 148.216 91.7175 148.306 91.8775 148.486C92.2275 148.886 92.1475 150.226 92.1975 150.766C92.2575 151.476 92.2875 152.186 92.2975 152.886C92.3275 155.176 92.0875 157.446 91.8375 159.726ZM75.7575 159.356C75.8775 159.406 76.0175 159.406 76.1675 159.336C76.2375 159.336 76.3175 159.336 76.3875 159.336C76.5075 159.396 76.7075 159.476 76.9375 159.536C76.5275 160.066 76.1975 160.566 76.0275 160.806C75.5475 161.506 73.7475 163.886 73.8275 165.356C71.7075 165.406 68.9775 164.386 69.9375 161.866C70.7575 159.716 73.5875 159.466 75.7675 159.366L75.7575 159.356ZM75.3775 164.986C75.2875 165.016 75.2275 165.056 75.1875 165.086C75.2075 165.036 75.2375 164.976 75.2675 164.886C75.6475 163.556 76.5775 162.286 77.3575 161.166C77.7675 160.586 78.1875 160.006 78.6375 159.456C78.6875 159.396 78.7375 159.326 78.7875 159.256C78.9675 159.256 79.1475 159.246 79.3275 159.236C79.3775 159.606 79.2875 160.236 79.2675 160.416C79.0575 162.336 77.9475 163.866 76.3475 164.696C76.0275 164.786 75.6975 164.886 75.3775 164.996V164.986ZM61.8275 140.586C63.5875 140.236 65.2075 140.246 66.4275 138.726C67.5275 137.356 68.4575 135.066 70.4975 136.076C71.6775 136.666 72.7775 137.636 74.0875 137.916C74.6875 138.046 75.2975 137.986 75.8775 137.836C77.0975 137.526 77.8075 137.256 79.1075 137.436C80.5075 137.626 82.0675 137.166 83.5275 137.166C85.0075 137.166 86.0975 137.106 87.1175 138.266C88.6975 140.076 88.1775 142.266 88.2975 144.466C88.3675 145.606 88.5675 147.146 89.6175 147.806C88.6475 149.796 87.6275 151.776 86.4175 153.566C85.4075 155.056 84.1475 156.406 82.4975 157.196C81.7775 157.546 81.0275 157.736 80.2575 157.836C79.7875 157.116 79.0675 157.376 78.3475 157.976C77.7975 157.986 77.2475 157.996 76.6975 158.006C75.2775 157.466 73.9975 156.556 72.5375 156.096C70.7875 155.546 68.5775 155.816 66.7375 155.866C64.3575 155.936 58.7375 157.106 58.5275 153.586C58.4075 151.636 59.8375 143.836 57.3775 142.166C57.3775 142.166 57.3875 142.166 57.3975 142.156C58.7775 141.386 60.2875 140.876 61.8375 140.566L61.8275 140.586ZM82.2275 168.936C78.9475 171.016 75.0375 171.846 71.1875 171.786C64.6575 171.666 57.8475 169.196 54.0775 163.626C51.0575 159.166 49.9575 153.126 52.1075 148.066C52.9275 146.136 54.2275 144.476 55.8575 143.206C55.9275 143.216 56.0075 143.216 56.0975 143.206C57.9175 142.846 57.3675 148.416 57.3175 149.366C57.2375 151.196 56.5875 154.136 57.7875 155.736C59.5275 158.076 63.6975 157.326 66.1675 157.226C66.9075 157.196 67.6375 157.206 68.3775 157.226C69.7375 157.266 71.1175 156.996 72.4275 157.476C72.9975 157.686 73.5475 157.956 74.0875 158.236C71.3275 158.626 68.2475 159.676 68.4175 162.996C68.5975 166.546 73.0675 167.116 75.7575 166.356C75.9175 166.306 76.0775 166.256 76.2275 166.196C77.0575 165.966 77.8975 165.616 78.6675 165.376C80.7075 164.756 82.7475 164.116 84.7775 163.456C86.2475 162.976 87.7075 162.476 89.1675 161.966C88.8475 162.256 88.5375 162.546 88.2375 162.856C86.2175 164.956 84.7475 167.326 82.2175 168.926L82.2275 168.936ZM84.7775 305.666C83.8675 305.666 81.5375 305.716 81.0975 304.666C80.6775 303.676 82.6975 303.606 83.2575 303.556C85.7475 303.366 88.0075 303.736 90.3275 304.516C88.6875 305.446 86.2975 305.666 84.7775 305.656V305.666ZM231.418 307.506C231.578 307.996 231.488 308.716 231.848 309.116C232.268 309.576 233.138 309.506 233.648 309.326C234.318 309.096 234.868 308.526 235.598 308.466C236.638 308.386 236.778 309.016 237.478 309.486C238.608 310.246 240.158 309.446 241.238 310.086C241.718 310.376 241.867 310.446 241.197 310.796C240.987 310.906 240.688 310.896 240.458 310.936C239.747 311.056 239.027 311.186 238.317 311.326C236.567 311.676 234.897 311.886 233.117 311.666C231.617 311.476 229.538 311.586 228.827 310.256C228.667 308.636 228.958 307.026 229.278 305.426C230.238 305.856 231.088 306.586 231.398 307.506H231.418ZM109.377 278.896C110.687 276.396 112.168 273.926 114.108 271.876C115.708 270.176 117.568 268.756 119.468 267.396C123.168 264.746 126.558 262.186 129.278 258.496C132.368 254.316 136.267 250.816 139.367 246.656C140.957 244.526 142.368 242.286 144.028 240.196C145.628 238.176 147.318 236.216 149.018 234.276C152.458 230.356 156.028 226.546 159.278 222.466C163.398 217.296 165.828 211.116 169.418 205.606C172.888 200.286 178.958 194.516 185.678 198.446C189.768 200.836 191.968 205.066 194.298 209.006C195.558 211.146 196.788 213.266 197.908 215.486C200.888 221.366 203.737 227.326 206.497 233.316C207.447 235.376 208.488 237.446 209.178 239.606C210.558 243.926 213.167 247.826 215.077 251.916C216.568 255.106 217.998 258.366 219.788 261.416C220.378 262.426 221.058 263.376 221.718 264.346C223.118 266.406 223.997 268.686 224.768 271.046C226.408 276.096 228.498 280.686 228.398 286.106C228.278 291.976 229.368 297.796 228.348 303.636C228.348 303.686 228.327 303.736 228.317 303.786C228.197 303.766 228.088 303.756 227.968 303.746C227.908 303.726 227.848 303.716 227.778 303.726C227.758 303.726 227.738 303.726 227.718 303.726C227.698 303.726 227.678 303.726 227.658 303.726C227.608 303.726 227.557 303.726 227.507 303.726C208.188 303.986 188.838 304.756 169.528 303.746C164.628 303.486 159.757 302.896 154.867 302.596C152.537 302.456 150.137 302.796 147.807 302.906C145.467 303.016 143.138 303.096 140.798 303.146C135.908 303.246 131.017 303.226 126.127 303.126C121.217 303.026 116.338 303.806 111.408 303.916C108.858 303.966 106.298 303.976 103.748 304.046C102.258 304.086 100.768 304.146 99.2775 304.246C98.4475 304.296 97.5875 304.446 96.7375 304.536C96.7075 304.536 96.6775 304.536 96.6475 304.526C95.4275 304.506 94.3675 304.386 93.2775 304.116C93.1675 304.016 93.0875 303.906 93.0275 303.766C93.0275 303.746 93.0175 303.726 93.0075 303.706C93.1375 303.426 93.2475 303.126 93.3275 302.796C93.3575 302.646 93.3475 302.506 93.2975 302.396C93.7575 301.596 94.5775 300.796 94.9575 300.326C95.3575 299.826 95.7675 299.336 96.1775 298.846C97.3075 298.396 98.3275 297.266 98.9775 296.216C100.417 296.556 101.668 295.106 102.318 293.906C102.398 293.856 102.467 293.776 102.518 293.676C102.838 293.066 103.148 292.456 103.458 291.846C104.838 291.056 105.827 289.916 106.167 288.346C106.447 287.086 106.637 285.786 106.757 284.476C107.577 282.606 108.417 280.736 109.367 278.926L109.377 278.896ZM104.917 285.426C104.407 286.616 103.888 287.806 103.348 288.976C103.498 287.526 103.647 286.076 103.798 284.626C103.887 283.776 102.587 283.806 102.477 284.626C102.237 286.406 101.847 288.116 102.077 289.826C101.988 290.576 101.868 291.326 101.678 292.026C101.528 292.586 100.508 294.536 99.5875 294.906C100.628 292.106 100.258 288.956 100.098 286.046C100.058 285.306 99.0375 285.156 98.8075 285.866C98.0175 288.296 98.1475 290.896 97.5075 293.346C97.3275 294.026 97.2675 294.576 97.4775 295.046C96.8475 295.916 96.1775 296.746 95.4975 297.576C95.1075 297.666 94.7175 297.596 94.3975 297.226C93.9875 296.756 93.8575 295.986 93.7975 295.396C93.7775 295.176 93.7675 294.946 93.7675 294.726C93.9175 294.346 94.0475 293.976 94.1775 293.626C94.6975 292.156 95.0775 290.626 95.2875 289.076C95.3175 288.846 95.3375 288.606 95.3375 288.366C95.7075 286.986 95.8875 285.596 95.4975 284.166C95.3175 283.526 94.4075 283.546 94.2275 284.166C93.9075 285.216 94.1675 286.256 94.1375 287.336C94.1375 287.626 94.1075 287.916 94.0775 288.216C93.7075 289.666 93.1075 291.116 92.7675 292.436C92.5975 293.096 92.4675 293.916 92.4475 294.746C92.0975 295.526 91.6475 296.206 91.0775 296.656C90.7275 296.936 89.6375 297.406 89.2075 297.036C88.6775 296.576 89.0575 295.236 89.1775 294.686C89.5775 292.846 90.3275 291.126 90.8775 289.326C91.7875 286.296 92.7675 282.916 92.6575 279.716C92.6375 279.186 92.5775 278.586 92.3775 278.066C93.6075 276.086 94.8375 274.116 96.1875 272.216C97.8475 269.876 99.5475 267.566 101.327 265.306C102.647 263.616 104.048 262.016 105.268 260.266C105.088 262.476 105.078 264.756 105.118 266.936C105.218 272.376 105.958 277.806 105.538 283.256C105.518 283.546 105.497 283.846 105.477 284.156C105.297 284.576 105.118 284.996 104.938 285.416L104.917 285.426ZM146.947 184.966C146.067 187.136 145.447 189.316 144.317 191.396C142.087 195.496 139.307 199.356 136.687 203.216C131.257 211.206 125.597 219.146 121.627 227.996C120.747 229.966 119.947 231.966 119.257 234.006C118.907 235.046 118.678 236.126 118.098 237.066C117.398 238.206 116.597 239.306 115.887 240.456C114.667 242.436 113.318 244.296 112.158 246.316C111.578 247.316 110.997 248.326 110.377 249.306C109.727 250.336 108.868 251.306 108.408 252.436C108.188 252.976 107.938 253.506 107.658 254.036C107.978 252.516 108.318 250.996 108.668 249.486C109.778 244.676 111.307 239.726 111.687 234.796C112.087 229.706 111.207 224.876 110.757 219.836C110.537 217.346 110.598 214.836 110.408 212.346C110.258 210.406 109.857 208.076 111.557 206.636C112.937 205.466 114.948 206.436 116.288 205.286C117.598 204.156 117.567 201.786 117.317 200.256C116.977 198.126 116.118 196.116 116.218 193.926C116.318 191.726 117.218 189.596 118.708 187.986C119.378 187.266 120.147 186.646 121.007 186.166C121.927 185.646 122.918 185.506 123.858 185.106C124.588 184.796 125.147 184.346 125.947 184.096C127.177 183.726 128.468 183.506 129.738 183.306C134.598 182.526 139.537 182.506 144.447 182.346C145.048 182.326 147.148 181.936 147.788 182.566C147.758 182.796 147.828 182.986 147.968 183.126C147.868 183.676 147.127 184.516 146.947 184.976V184.966ZM186.588 150.106C185.268 150.626 183.908 151.016 182.637 151.656C181.197 152.376 179.857 153.306 178.458 154.096C175.898 155.546 173.448 157.166 171.088 158.916C166.368 162.406 161.638 166.136 157.278 170.066C155.268 171.886 153.647 174.076 152.007 176.216C150.817 177.776 149.187 179.276 148.307 181.086C148.167 181.006 148.027 180.936 147.867 180.896C146.947 180.636 145.418 180.986 144.468 181.016C143.228 181.056 141.997 181.086 140.757 181.126C135.957 181.276 131.098 181.486 126.408 182.606C124.638 183.036 123.027 183.786 121.367 184.506C119.717 185.226 118.268 186.356 117.168 187.776C114.758 190.886 114.577 194.546 115.518 198.226C115.827 199.446 116.208 200.716 116.148 201.996C116.108 202.846 115.828 203.986 115.038 204.466C114.648 204.706 113.787 204.586 113.327 204.626C111.658 204.786 110.317 205.596 109.557 207.126C108.807 208.636 108.908 210.296 109.048 211.926C109.268 214.556 109.228 217.196 109.458 219.826C109.928 225.026 110.908 230.106 110.338 235.356C109.748 240.796 108.048 246.206 106.868 251.536C106.438 253.486 105.938 255.466 105.607 257.446C105.127 258.176 104.637 258.886 104.167 259.576C102.537 261.986 100.517 264.166 98.7575 266.486C96.1675 269.896 93.7575 273.406 91.4475 276.996C89.9275 276.256 88.2875 277.476 87.2075 278.426C86.3675 279.166 83.8675 281.496 83.4875 279.276C83.2475 277.856 85.4575 276.546 86.3975 275.646C88.5675 273.596 89.5775 270.686 91.6075 268.496C91.8175 268.456 92.0075 268.316 92.0875 268.056C92.2675 267.486 92.8875 267.086 93.1875 266.576C93.4975 266.046 93.7075 265.436 93.9775 264.876C94.8775 263.076 95.1875 261.296 95.3875 259.306C95.7475 255.736 95.7075 252.176 95.7875 248.596C95.8975 243.726 96.4475 238.876 96.7875 234.016C97.0875 229.696 97.1275 225.356 97.3575 221.026C97.4975 218.476 97.6175 215.916 97.4875 213.366C97.3875 211.466 96.9875 210.396 95.0375 210.026C93.5475 209.736 93.1775 209.086 93.0575 207.606C92.9775 206.576 93.0075 205.536 93.0475 204.496C93.1275 202.176 93.3275 199.866 93.3575 197.546C93.4275 192.746 91.7075 188.356 91.4375 183.596C91.2875 180.926 91.3775 178.246 91.5175 175.586C91.6575 172.906 91.5275 169.986 92.2775 167.406C92.9475 165.116 92.8475 162.486 93.1075 160.106C93.3975 157.506 93.6775 154.896 93.5975 152.266C93.5575 150.936 93.7675 147.966 92.4275 147.156C92.1075 146.956 91.7575 146.946 91.4075 146.916C91.4075 146.886 91.4075 146.846 91.4175 146.816C92.2175 145.266 93.0275 143.866 93.2175 142.076C93.3475 140.896 93.3275 139.716 93.2175 138.526C93.2675 136.526 92.8275 134.386 92.5875 132.436C92.3375 130.436 91.5475 128.576 91.1475 126.606C90.7275 124.556 90.7975 122.436 90.7775 120.356C90.7775 120.176 90.7775 120.006 90.7775 119.826C90.9975 117.786 91.2675 115.746 91.4975 113.706C91.7075 111.826 91.8975 109.946 92.0575 108.056C92.5175 107.896 93.0775 107.826 93.5875 107.726C96.0875 107.266 98.3775 106.296 100.718 105.316C101.958 104.796 103.188 104.236 104.348 103.546C105.398 102.926 106.448 102.016 107.648 101.706C108.378 101.516 108.768 101.836 108.958 102.406C108.988 103.106 109.028 103.806 109.048 104.496C108.948 105.496 108.737 106.496 108.687 106.976C108.467 108.996 108.378 111.256 109.518 113.036C110.688 114.876 112.958 115.596 114.858 116.456C117.328 117.566 119.788 118.336 122.398 119.046C123.898 119.456 125.438 119.686 126.928 120.146C128.618 120.666 130.238 121.356 131.928 121.866C135.158 122.846 138.328 123.796 141.488 124.996C144.718 126.226 148.017 127.246 151.247 128.476C152.687 129.016 154.117 129.566 155.627 129.866C157.397 130.216 159.207 130.296 160.997 130.566C164.857 131.136 168.668 132.516 172.408 133.586C176.078 134.626 180.057 135.416 183.497 137.066C186.817 138.666 190.328 139.926 193.528 141.756C195.958 143.146 198.128 144.976 200.418 146.586C198.608 146.626 196.868 146.896 194.988 147.146C192.028 147.526 189.298 148.986 186.548 150.066L186.588 150.106Z" fill="#F0D1EA"/>
</svg>
