<svg width="309" height="183" viewBox="0 0 309 183" fill="none" xmlns="http://www.w3.org/2000/svg">
<path d="M330.392 174.461C325.183 174.182 320.002 175.028 314.794 174.884C309.54 174.74 304.305 174.326 299.043 174.281C293.672 174.236 288.293 174.344 282.931 174.182C277.705 174.02 272.487 173.506 267.261 173.416C261.269 173.317 255.276 173.659 249.293 173.515C248.671 171.471 249.356 169.822 250.383 168.183C250.455 168.102 250.528 168.012 250.609 167.931C250.69 167.85 250.735 167.76 250.762 167.679C250.78 167.679 250.798 167.679 250.816 167.688C252.708 167.985 254.519 167.192 256.033 166.093C257.538 165.003 258.259 163.436 257.457 161.644C257.421 161.563 257.385 161.491 257.34 161.419C257.448 161.211 257.412 160.941 257.277 160.743C258.385 158.635 259.412 156.374 260.043 154.105C260.719 151.673 261.079 149.16 261.701 146.71C262.413 143.908 263.287 141.143 264.134 138.369C266.36 131.046 268.486 123.669 269.676 116.103C270.829 108.717 271.235 100.854 268.901 93.6391C267.82 90.2885 266.108 87.1539 263.747 84.5238C260.674 81.1011 256.529 78.7412 252.528 76.5704C249.518 74.9311 246.355 73.481 243.012 72.6613C240.931 72.1569 238.786 71.9858 236.696 71.5084C235.551 71.2472 234.434 70.8779 233.353 70.3915C232.452 69.9861 231.514 69.5718 231.01 68.6711C230.469 67.7073 230.442 66.4823 230.163 65.4285C229.64 63.4829 228.316 62.2219 226.288 61.9337C225.856 61.8706 225.396 61.8616 224.927 61.8616C224.378 61.5914 223.783 61.5194 223.134 61.7626C222.999 61.8166 222.873 61.8796 222.738 61.9517C221.972 61.9697 221.233 61.9337 220.566 61.7445C219.926 60.7447 219.097 59.835 218.151 59.0424C217.583 56.8446 218.467 54.4036 219.476 52.4671C220.052 51.3592 220.656 50.3864 220.954 49.1614C221.359 47.4861 221.71 45.8107 222.143 44.1444C223.639 38.4248 225.747 32.7773 225.414 26.7785C224.846 16.7444 217.52 8.03442 208.329 4.44053C207.248 4.01719 205.905 3.86407 204.896 3.34165C204.635 3.20654 204.436 2.95434 204.184 2.81923C203.517 2.44994 202.607 2.29681 201.886 2.08965C199.003 1.25197 196.056 0.630474 193.074 0.270185C187.406 -0.423372 181.774 0.198129 176.475 2.36887C171.682 4.33245 167.338 7.3859 163.572 10.9167C160.679 13.6369 157.426 17.3839 159.273 21.5993C160.22 23.743 162.743 25.1392 162.743 27.6522C162.743 27.8503 162.824 28.0034 162.932 28.1025C162.932 29.2104 162.878 30.2913 162.806 31.3722C162.797 31.4442 162.779 31.5073 162.779 31.5793C162.779 31.6334 162.779 31.6874 162.779 31.7324C162.707 32.7322 162.617 33.7411 162.526 34.7589C162.373 36.5243 162.076 38.1636 162.31 39.947C162.58 42.0277 163.427 44.1174 164.41 45.9639C165.518 48.0445 166.248 50.4765 166.392 52.8364C166.446 53.6831 166.221 54.4937 166.275 55.3044C165.725 54.9531 165.076 54.7279 164.311 54.7099C162.716 54.6649 161.175 55.1783 159.751 55.8628C157.606 56.8986 155.408 57.7814 153.182 58.637C151.542 59.2675 149.893 59.8981 148.271 60.6006C146.388 61.4113 145.018 62.1138 143.585 63.564C141.161 66.014 139.035 68.7702 137.17 71.6705C133.448 77.4802 130.763 83.8933 128.321 90.3245C125.482 97.7915 122.617 105.258 119.95 112.789C117.372 120.057 114.146 128.182 114.885 136.036C115.129 138.648 115.768 141.188 117.571 143.008C116.273 142.864 114.984 142.738 113.723 142.593C109.884 142.161 106.028 141.99 102.18 142.467C100.486 142.683 99.6929 143.26 98.5935 144.575C97.2599 146.169 95.9173 147.746 94.6287 149.376C93.4393 150.889 92.2949 152.438 91.2766 154.069C90.5467 155.24 89.8529 156.293 89.6547 157.59C89.0599 156.212 88.4562 154.834 88.0147 153.384C86.9874 150.033 86.0593 146.701 84.9059 143.386C83.7164 139.981 82.545 136.568 81.3465 133.154C80.0219 129.371 78.6432 125.597 77.5439 121.751C76.4356 117.887 75.5164 113.977 74.1558 110.185C74.1197 110.086 74.0657 110.005 74.0026 109.942C73.5701 108.861 72.4978 108.447 71.2813 108.375C68.587 108.213 65.8477 108.321 63.1444 108.348C56.9628 108.402 50.7903 108.618 44.6088 108.879C32.3809 109.411 20.153 110.122 7.90712 110.167C5.79855 110.167 -0.626274 109.168 0.0495494 113.023C0.0675714 113.122 0.103602 113.212 0.148657 113.275C0.148657 113.338 0.166695 113.401 0.193728 113.464C3.20339 120.832 6.07788 128.254 8.99744 135.658C12.4757 144.485 15.3231 153.546 18.9275 162.337C20.9099 167.174 22.3337 172.389 25.4334 176.677C25.4425 176.695 25.4605 176.713 25.4785 176.722C25.4875 176.74 25.4965 176.749 25.5055 176.767C26.3976 177.812 27.5781 178.154 28.8937 178.343C30.9662 178.631 33.0748 178.775 35.1563 178.992C39.6618 179.442 44.1582 179.892 48.6637 180.316C57.3233 181.126 66.0008 181.847 74.6874 182.333C79.0127 182.577 83.347 182.757 87.6813 182.865C91.9164 182.973 96.1966 183.144 100.423 182.775C108.677 182.045 116.643 179.568 124.599 177.397C128.6 176.307 132.628 175.281 136.719 174.578C140.134 173.993 143.531 174.29 146.946 173.876C147.505 173.803 148.055 173.686 148.595 173.524C149.893 173.74 151.191 173.948 152.488 174.164C169.474 176.92 186.685 176.407 203.824 176.271C208.672 176.235 213.51 176.226 218.358 176.416C223.134 176.596 227.721 175.938 232.461 175.65C236.434 175.407 240.597 175.587 244.364 174.083C245.779 173.524 246.815 172.858 247.77 171.678C247.77 171.678 247.779 171.66 247.788 171.66C247.734 172.497 247.86 173.371 248.221 174.317C248.329 174.587 248.527 174.776 248.833 174.776C254.258 174.929 259.683 174.659 265.107 174.668C270.334 174.668 275.596 175.01 280.813 175.335C291.437 175.983 302.097 175.245 312.721 176.028C318.623 176.461 324.49 175.416 330.392 175.731C331.203 175.776 331.203 174.506 330.392 174.47V174.461ZM249.419 165.913C249.491 165.751 249.5 165.562 249.383 165.364C249.284 165.202 249.194 165.039 249.104 164.877C249.104 164.877 249.104 164.868 249.104 164.859C249.131 164.58 248.996 164.4 248.806 164.319C248.302 163.346 247.86 162.346 247.356 161.374C246.536 159.77 245.436 158.293 244.436 156.798C242.589 154.024 240.724 151.267 238.804 148.538C235.587 143.972 232.47 139.369 228.054 135.955C239.03 138.09 247.518 149.34 253.564 158.005C253.681 158.176 253.844 158.257 254.006 158.275C254.168 158.563 254.303 158.878 254.456 159.23C254.7 159.77 255.114 160.302 255.52 160.86C253.231 161.833 251.771 163.878 250.356 165.94C250.266 166.075 250.176 166.201 250.086 166.336C249.807 166.246 249.581 166.102 249.41 165.913H249.419ZM152.371 146.151C152.623 142.81 153.578 139.441 154.353 136.189C157.489 123.165 162.238 110.609 165.365 97.5933C164.968 100.602 164.446 103.592 163.95 106.583C163.364 110.059 162.707 113.572 162.445 117.085C162.166 120.778 161.86 124.399 161.13 128.047C160.445 131.469 159.553 134.847 158.48 138.171C157.471 141.296 156.444 145.251 153.615 147.286C153.209 147.583 152.768 147.8 152.326 147.935C152.308 147.304 152.335 146.692 152.38 146.151H152.371ZM147.947 100.404C148.758 97.0889 150.055 93.8373 151.506 90.7568C152.119 89.4598 152.768 88.1807 153.461 86.9197C154.29 85.3975 155.354 82.7044 156.867 81.7676C157.561 81.3353 158.453 81.2362 159.201 80.9029C159.895 80.5877 160.49 80.1013 161.139 79.705C162.373 78.9483 163.68 78.2998 164.851 77.4441C165.806 76.7506 166.753 75.8949 167.284 74.823C167.365 74.6519 167.446 74.4627 167.527 74.2916C167.825 73.7151 167.753 73.562 168.393 73.4179C168.996 73.2738 169.645 73.3458 170.258 73.1747C170.789 73.0216 171.24 72.7784 171.609 72.4631C173.727 75.0032 176.16 77.6783 179.016 79.4798C179.007 79.4978 178.989 79.5248 178.98 79.5428C178.935 79.5428 178.881 79.5428 178.836 79.5428C178.422 79.5608 178.223 79.8941 178.223 80.2094C177.998 80.3174 177.773 80.4165 177.548 80.5246C176.836 80.8579 176.124 81.1821 175.412 81.4974C173.997 82.1369 172.583 82.7674 171.177 83.4339C168.42 84.749 165.707 86.1902 163.256 88.0276C162.121 88.8833 161.022 89.8111 160.039 90.8379C159.715 91.1802 159.562 91.4053 159.328 91.8017C158.796 92.6844 158.219 93.3239 157.525 94.0895C155.498 96.3413 153.876 98.9084 152.371 101.529C150.362 105.033 148.415 108.51 146.721 112.122C146.676 108.177 147 104.241 147.947 100.386V100.404ZM171.781 69.86C171.727 70.0402 171.664 70.2113 171.591 70.3825C171.564 70.3014 171.546 70.2203 171.528 70.1483C171.276 69.1845 171.015 68.2207 170.753 67.266C170.213 65.2844 169.672 63.3118 169.131 61.3302C170.168 62.6092 171.132 63.9243 171.582 65.5546C171.97 66.9417 172.195 68.4549 171.781 69.86ZM151.227 149.358C151.614 151.574 152.704 153.366 155.092 153.87C155.705 153.997 156.327 154.051 156.958 154.078C155.966 154.258 154.975 154.438 153.975 154.591C152.092 154.879 150.308 155.059 148.442 154.555C146.694 154.078 145.09 153.186 143.63 152.123C142.369 151.213 141.342 149.898 140.071 149.043C139.828 148.88 139.539 148.799 139.242 148.754C139.566 148.691 139.882 148.61 140.188 148.502C141.576 148.007 142.774 147.124 143.982 146.295C144.892 145.665 145.288 144.98 146.271 146.043C146.856 146.683 147.28 147.421 147.938 148.016C148.929 148.926 150.073 149.358 151.236 149.367L151.227 149.358ZM157.57 152.799C156.084 152.745 154.444 152.79 153.389 151.547C152.858 150.916 152.569 150.087 152.434 149.205C153.182 149.016 153.903 148.655 154.588 148.124C157.066 146.178 158.174 143.026 159.156 140.152C160.589 135.928 161.751 131.614 162.571 127.227C163.364 122.967 163.473 118.679 164.022 114.392C164.617 109.744 165.518 105.141 166.221 100.512C166.554 98.3049 166.852 96.0891 167.059 93.8553C167.293 91.3693 167.555 88.9103 168.573 86.5955C168.654 86.4333 168.663 86.2802 168.636 86.1451C170.744 85.0102 172.925 84.0194 175.106 83.0286C176.529 82.3891 177.98 81.7856 179.368 81.065C179.539 80.975 179.728 80.8669 179.9 80.7318C180.404 80.6867 180.909 80.6597 181.404 80.7138C181.738 80.8489 182.08 80.975 182.432 81.0921C182.666 81.1641 182.9 81.2272 183.134 81.2812C183.333 81.3623 183.522 81.4343 183.702 81.4974C185.549 82.1279 187.28 83.8032 188.262 85.4786C189.019 86.7666 189.307 88.2798 189.568 89.748C188.676 91.8737 187.847 94.1345 187.505 96.3953C187.298 97.7915 186.748 99.0975 186.306 100.431C185.757 102.079 185.369 103.682 185.072 105.403C184.486 108.87 184.045 112.365 182.828 115.68C181.567 119.13 180.431 122.624 179.323 126.119C177.241 132.703 174.763 139.207 173.772 146.052C173.691 146.602 173.619 147.169 173.529 147.746C172.772 149.115 171.961 150.259 170.997 151.475C170.591 151.556 170.195 151.646 169.807 151.763C169.303 151.916 168.879 152.231 168.402 152.429C167.221 152.907 165.761 152.745 164.491 152.871C163.77 152.943 163.058 153.033 162.346 153.132C160.76 153.015 159.174 152.853 157.57 152.79V152.799ZM197.381 82.7854C197.381 82.8755 197.381 82.9566 197.417 83.0286C196.155 83.0286 194.921 83.3078 193.794 84.0374C192.326 84.9832 191.262 86.3523 190.442 87.8565C190.073 86.3163 189.541 84.9021 188.496 83.6411C187.82 82.8305 187.045 81.9838 186.162 81.3263C186.946 81.1911 187.73 80.948 188.541 80.6327C189.523 80.2454 189.965 80.2904 191.118 79.795C193.695 78.6961 196.101 77.219 198.21 75.3545C198.21 75.3545 198.228 75.3364 198.237 75.3274C197.795 77.7864 197.543 80.2814 197.399 82.7764L197.381 82.7854ZM189.974 97.4942C189.694 99.1786 189.091 100.791 188.523 102.394C187.811 104.394 187.171 106.42 186.441 108.42C186.054 109.474 185.667 110.519 185.288 111.564C185.351 111.293 185.414 111.014 185.468 110.735C186.153 107.105 186.613 103.574 187.766 100.052C188.613 97.4672 189.136 94.8551 189.992 92.279C190.217 94.0084 190.262 95.8009 189.983 97.4942H189.974ZM182.396 120.778C181.558 124.174 180.81 127.587 179.782 130.938C178.647 134.631 177.115 138.189 175.845 141.837C175.763 142.08 175.673 142.332 175.592 142.575C176.268 139.252 177.539 136.045 178.557 132.821C179.71 129.164 180.828 125.489 182.035 121.85C182.152 121.489 182.278 121.138 182.396 120.787V120.778ZM174.574 148.889C174.601 148.736 174.628 148.583 174.655 148.43C175.169 147.457 175.637 146.458 175.998 145.449C177.413 141.477 178.872 137.504 180.26 133.514C181.657 129.497 182.576 125.345 183.585 121.228C184.729 116.554 186.451 112.158 188.063 107.636C189.523 103.547 191.434 99.2957 191.407 94.8911C191.398 93.1978 191.172 91.5585 190.875 89.9101C191.776 87.7574 193.047 85.6677 195.218 84.686C198.66 83.1277 203.04 85.7128 205.401 88.0997C206.941 89.6669 209.158 92.6934 211.654 92.6303C214.231 92.5673 213.411 89.784 212.357 88.505C210.212 85.9019 207.383 83.9203 205.238 81.2992C204.905 80.8939 204.824 80.5426 204.878 80.2274C206.96 80.2094 209.086 80.3084 210.942 81.3623C212.096 82.0198 212.69 82.8034 213.096 84.0374C213.348 84.794 213.574 85.4786 214.006 86.1451C214.619 87.0909 215.205 87.9286 215.709 88.9374C215.898 89.3247 216.043 89.721 216.43 89.9552C217.241 90.4506 218.043 89.8921 218.629 89.2976C221.026 86.8477 222.603 83.4069 224.234 80.4435C225.297 78.507 226.486 76.6605 227.676 74.796C228.397 73.6521 229.379 72.7153 230.217 71.6705C231.217 73.7151 232.055 75.8318 232.758 78.0116C233.335 79.804 233.794 81.6415 233.956 83.515C234.137 85.6227 233.758 87.6043 233.407 89.6669C232.776 93.3599 232.199 97.0619 231.559 100.755C230.929 104.385 230.244 108.006 229.406 111.591C228.568 115.139 227.892 119.04 225.675 122.012C224.828 123.147 223.864 123.939 223.549 125.363C223.287 126.543 223.45 127.768 223.945 128.857C224.161 129.335 224.441 129.767 224.765 130.154C224.693 130.172 224.612 130.19 224.54 130.208C222.675 130.713 221.422 132.595 223.107 134.064C223.251 134.19 223.395 134.307 223.549 134.415C220.683 134.523 217.98 135.153 215.241 136.27C212.366 137.441 210.113 139.531 207.329 140.828C205.644 141.612 203.896 141.666 202.103 141.927C200.129 142.215 198.228 143.08 196.363 143.773C192.875 145.07 189.415 146.422 185.901 147.655C182.486 148.844 179.025 149.925 175.493 150.718C175.043 150.817 174.583 150.898 174.114 150.97C174.34 150.259 174.457 149.493 174.592 148.844L174.574 148.889ZM222.242 64.1405C222.467 63.9153 222.801 63.4649 223.062 63.3118C223.17 63.2487 223.269 63.2037 223.368 63.1587C223.756 63.1316 224.143 63.1046 224.531 63.0866C224.828 63.2487 225.045 63.546 225.324 63.8252C226.621 65.0682 227.622 67.0498 228.541 68.59C228.901 69.2025 229.244 69.815 229.577 70.4455C228.739 71.5804 227.658 72.5262 226.874 73.7151C225.765 75.3995 224.666 77.1019 223.675 78.8583C221.927 81.9748 220.341 85.2804 218.052 88.0547C217.493 88.7392 217.169 89.1085 216.736 88.1537C216.376 87.3521 215.907 86.6495 215.403 85.938C214.475 84.6229 214.358 82.9115 213.348 81.6865C211.555 79.5068 208.482 79.0384 205.77 78.9844C205.905 78.8583 206.04 78.7322 206.176 78.6061C206.779 78.0206 207.392 77.4441 208.005 76.8857C209.392 75.6247 210.825 74.4177 212.321 73.3008C215.141 71.2021 217.656 68.59 220.188 66.1491C220.881 65.4825 221.566 64.816 222.242 64.1314V64.1405ZM256.529 163.346C256.358 164.94 253.636 166.309 251.528 166.463C252.798 164.607 254.096 162.752 256.222 161.941C256.448 162.391 256.583 162.851 256.529 163.337V163.346ZM233.235 71.7245C237.362 73.4629 241.958 73.3909 246.166 74.9852C250.51 76.6335 254.637 79.0564 258.475 81.6415C261.566 83.7222 264.116 86.4874 265.882 89.766C269.424 96.3413 269.712 104.178 269 111.455C268.261 119.004 266.351 126.398 264.224 133.649C263.341 136.667 262.395 139.666 261.512 142.684C260.485 146.178 259.881 149.754 258.962 153.276C258.376 155.519 257.403 157.762 256.322 159.86C256.015 159.428 255.727 158.987 255.52 158.491C255.339 158.059 255.276 157.599 254.997 157.212C254.727 156.834 254.06 156.537 253.979 156.05C253.916 155.717 253.672 155.582 253.42 155.6C250.131 150.952 246.653 146.376 242.409 142.557C237.804 138.414 232.181 134.892 225.874 134.496C224.666 133.847 222.864 132.803 224.234 131.731C224.738 131.334 225.432 131.37 226.063 131.424C227.333 132.379 228.874 133.055 230.253 133.703C233.208 135.09 236.218 135.712 239.354 136.469C241.868 137.072 244.896 137.666 247.491 137.243C249.293 136.955 251.933 135.505 251.122 133.343C250.329 131.217 247.851 130.497 245.806 130.29C242.237 129.92 238.516 130.263 234.93 130.326C233.136 130.362 231.343 130.38 229.55 130.335C228.559 130.317 227.45 130.127 226.387 130.091C226.306 130.028 226.225 129.956 226.153 129.893C225.081 128.866 224.486 127.353 224.747 125.876C225.026 124.246 226.63 123.03 227.486 121.634C229.144 118.931 229.757 115.59 230.487 112.536C232.1 105.799 233.136 98.9444 234.272 92.1169C234.812 88.8473 235.533 85.7398 235.083 82.4161C234.668 79.3717 233.641 76.3903 232.461 73.571C232.037 72.5622 231.577 71.5714 231.082 70.5986C231.722 71.076 232.47 71.4093 233.244 71.7336L233.235 71.7245ZM228.721 131.569C228.991 131.569 229.262 131.587 229.532 131.596C233.118 131.677 236.705 131.524 240.3 131.479C242.922 131.442 247.031 130.83 249.194 132.74C250.744 134.109 249.464 135.397 247.896 135.856C246.572 136.243 245.112 136.081 243.769 135.892C240.778 135.469 237.759 135.009 234.848 134.136C233.317 133.676 231.83 133.073 230.388 132.379C229.856 132.127 229.289 131.857 228.712 131.569H228.721ZM229.271 67.3831C228.928 66.8246 228.577 66.2662 228.207 65.7167C227.775 65.0682 227.216 64.0954 226.531 63.2577C226.576 63.2668 226.612 63.2758 226.657 63.2848C228.694 63.8612 228.901 65.6537 229.28 67.3831H229.271ZM163.986 27.3099C163.851 25.4364 162.644 24.1484 161.481 22.7252C159.769 20.6175 159.571 18.2216 160.949 15.8797C162.157 13.8261 164.013 12.2228 165.752 10.6375C167.726 8.84507 170.06 7.17873 172.366 5.82765C177.358 2.9003 182.954 1.21594 188.757 1.23396C191.785 1.24297 194.84 1.71134 197.786 2.35986C199.246 2.68412 200.697 3.06243 202.13 3.49478C202.697 3.66591 203.292 3.80102 203.806 4.10727C204.085 4.2694 204.256 4.45855 204.563 4.58465C205.662 5.03501 206.887 5.24218 207.996 5.68353C209.248 6.17893 210.465 6.7644 211.627 7.44895C213.772 8.70095 215.718 10.2592 217.43 12.0606C221.323 16.177 223.9 21.3651 224.161 27.0667C224.441 33.0565 222.242 38.704 220.773 44.4236C220.422 45.7927 220.107 47.1798 219.8 48.5579C219.44 50.1612 218.503 51.3412 217.872 52.8184C217.178 54.4487 216.619 56.2321 216.718 58.0155C215.88 57.4571 215.015 56.9797 214.168 56.6014C213.141 56.142 211.087 55.7097 210.519 54.6198C210.212 54.0343 210.384 53.6921 210.906 53.3048C211.465 52.8904 211.645 53.0796 212.285 53.0436C212.97 53.0075 213.465 52.7373 213.889 52.1969C214.952 50.8548 215.25 48.8282 215.493 47.1889C215.844 44.892 216.16 42.5771 216.475 40.2803C216.899 37.2088 213.979 34.975 211.222 36.5693C209.753 37.416 208.771 38.7671 207.861 40.1452C206.311 42.4871 204.301 41.2801 202.634 39.7669C201.238 38.4969 199.94 37.0827 198.597 35.7587C196.642 33.8311 195.272 31.7234 194.84 28.9672C194.308 25.5175 191.515 24.0132 188.181 24.2564C184.306 24.5447 181.062 26.6253 177.872 28.634C175.682 30.0211 173.304 31.6604 170.528 31.0029C169.213 30.6876 169.528 29.7238 168.969 28.7691C168.627 28.1926 168.068 27.6882 167.555 27.2829C166.599 26.5353 165.32 26.0038 164.509 27.2018C164.401 27.3639 164.284 27.5441 164.175 27.7332C164.157 27.5531 164.085 27.418 163.977 27.3279L163.986 27.3099ZM164.329 42.6492C163.473 40.2893 163.373 38.1006 163.689 35.6416C163.878 34.1464 164.022 32.6782 164.103 31.201C164.347 30.1472 165.185 27.8413 165.915 27.7332C166.41 27.6612 167.356 28.688 167.636 29.0483C168.149 29.7238 168.095 30.4804 168.474 31.201C169.086 32.3449 170.528 32.2909 171.655 32.2819C173.601 32.2819 175.187 31.8225 176.845 30.7957C180.188 28.724 183.423 26.193 187.415 25.5715C189.073 25.3103 191.055 25.3643 192.389 26.5263C193.948 27.8864 193.695 30.5435 194.551 32.3629C195.398 34.1734 196.66 35.5965 198.084 36.9746C199.363 38.2176 200.553 39.5687 201.886 40.7487C203.689 42.352 206.356 43.8201 208.329 41.6404C209.519 40.3253 210.104 38.704 211.69 37.7223C212.808 37.0287 214.024 36.9746 214.844 38.1636C215.637 39.3165 215.096 40.7127 214.907 41.9737C214.619 43.9823 214.466 46.0089 214.078 47.9995C213.898 48.9002 213.709 49.9 213.267 50.7287C212.546 52.0888 211.952 51.4853 210.843 51.7555C209.708 52.0257 208.888 53.3318 209.104 54.4847C209.329 55.6827 210.591 56.3852 211.591 56.8536C213.384 57.6913 215.394 58.592 217.07 59.835C217.448 60.9609 218.115 61.9877 219.151 62.6002C219.359 62.7263 219.575 62.8254 219.8 62.9065C220.016 63.3208 220.188 63.7712 220.323 64.2395C220.251 64.3116 220.188 64.3837 220.115 64.4557C218.881 65.6627 217.628 66.8516 216.367 68.0226C213.844 70.3735 211.168 72.4721 208.554 74.7059C207.356 75.7328 206.203 76.8046 205.067 77.9035C204.337 78.6241 203.247 79.2996 203.373 80.4435C203.49 81.4614 204.382 82.29 205.031 83.0106C206.121 84.2176 207.311 85.3255 208.482 86.4514C209.014 86.9558 209.555 87.4692 210.068 87.9826C210.546 88.451 211.618 89.2977 211.807 89.9552C212.429 92.0809 210.582 91.0631 209.933 90.6487C209.149 90.1443 208.473 89.4958 207.816 88.8383C205.86 86.8477 204.121 85.0642 201.499 83.9473C200.553 83.542 199.534 83.2358 198.516 83.1007C198.579 83.0106 198.615 82.9025 198.624 82.7764C198.805 79.6689 199.156 76.5794 199.85 73.544C202.616 70.3284 207.239 64.1585 204.5 63.537C203.436 63.2938 202.076 64.4467 201.499 65.2393C200.445 66.6895 199.877 68.7882 199.354 70.4815C199.084 71.3552 198.85 72.247 198.642 73.1387C197.435 74.3817 196.11 75.4986 194.66 76.4533C193.047 77.5162 191.1 78.6421 189.298 79.0835C188.82 79.2005 188.397 79.3176 187.937 79.5068C186.505 80.0833 185.135 80.3535 183.657 80.0833C183.116 79.8581 182.567 79.6239 182.008 79.5068C181.873 79.4798 181.747 79.4617 181.612 79.4437C177.944 77.8855 174.934 74.5348 172.42 71.4904C173.186 70.2293 173.358 68.536 173.168 67.0588C172.997 65.7257 172.664 63.9333 171.925 62.7984C171.781 62.5822 171.555 62.4291 171.384 62.2399C170.916 61.7265 170.717 61.2041 170.339 60.6456C169.807 59.871 169.014 59.2585 168.438 58.4839C168.402 58.4299 168.356 58.3938 168.311 58.3488C168.131 57.6823 167.951 57.0157 167.771 56.3492C167.69 56.043 167.6 55.7367 167.527 55.4215C167.509 55.3584 167.5 55.2954 167.482 55.2413C167.482 55.2053 167.5 55.0702 167.546 54.827C167.888 52.8184 167.41 50.6927 166.87 48.7651C166.257 46.6124 165.076 44.7479 164.32 42.6492H164.329ZM200.697 70.7878C201.616 68.0316 203.13 64.1585 204.076 65.0142C204.256 65.1763 202.517 68.0316 202.328 68.3468C201.823 69.1845 201.283 70.0132 200.688 70.7968L200.697 70.7878ZM118.355 142.017C115.759 139.333 115.841 134.757 116.192 131.289C116.561 127.569 117.661 123.939 118.751 120.373C120.887 113.437 123.545 106.682 126.095 99.8992C128.447 93.6662 130.61 87.3521 133.403 81.2992C136.304 75.0122 139.954 68.3738 145.207 63.7261C146.937 62.1949 149.433 61.4383 151.56 60.6096C153.524 59.844 155.498 59.1054 157.435 58.2948C159.219 57.5382 160.967 56.4393 162.896 56.097C164.22 55.8538 165.518 55.9169 166.347 57.0878C166.987 57.9885 167.239 59.1054 167.284 60.1863C167.293 60.4655 167.455 60.6456 167.654 60.7357C168.095 62.366 168.546 63.9963 168.996 65.6357C169.339 66.8877 169.681 68.1307 170.015 69.3827C170.132 69.815 170.249 70.2564 170.357 70.6887C170.429 70.986 170.42 71.5354 170.519 71.067C170.474 71.2832 170.528 71.4633 170.636 71.5984C170.429 71.7516 170.186 71.8687 169.906 71.9407C169.131 72.1569 168.311 71.9857 167.555 72.1569C166.834 72.319 166.572 72.7784 166.347 73.4629C165.896 74.796 165.185 75.6427 164.022 76.4714C161.878 77.9936 159.454 79.3897 157.03 80.3174C154.606 81.2452 153.533 84.1275 152.353 86.2712C150.947 88.8293 149.704 91.4774 148.64 94.1976C146.253 100.313 145.261 106.619 145.451 113.185C145.469 113.716 145.487 114.257 145.514 114.788C144.847 116.355 144.234 117.95 143.693 119.589C142.612 122.832 141.747 126.128 141.315 129.524C140.918 132.586 140.531 136.153 141.206 139.198C141.558 140.81 142.747 143.863 144.793 143.945C146.649 144.017 148.244 141.657 148.758 140.179C149.497 138.099 149.451 135.73 149.154 133.568C148.64 129.83 147.974 126.11 147.496 122.363C147.181 119.913 146.928 117.436 146.802 114.959C148.695 110.546 151.037 106.375 153.452 102.178C155.191 99.1606 157.084 96.3233 159.526 93.8283C159.976 93.3599 160.093 93.0447 160.409 92.5042C160.868 91.7026 161.562 91.0901 162.238 90.4866C163.527 89.3337 164.932 88.3249 166.41 87.4151C166.581 87.3071 166.753 87.208 166.924 87.1089C166.491 88.0366 166.104 88.9554 165.851 89.9822C165.365 91.9188 164.941 93.8733 164.491 95.8189C163.653 99.4398 162.797 103.052 161.751 106.619C159.661 113.734 157.237 120.742 155.228 127.885C154.218 131.479 153.281 135.099 152.47 138.747C151.794 141.765 150.893 144.962 151.091 148.097C150.416 148.061 149.74 147.827 149.127 147.349C148.019 146.485 147.496 144.962 146.226 144.341C145.171 143.827 144.649 144.305 143.748 144.926C142.441 145.809 141.161 146.845 139.639 147.349C137.999 147.89 135.917 147.574 134.223 147.394C133.799 147.349 133.385 147.295 132.97 147.223C130.258 146.187 127.654 144.845 124.806 144.152C123.311 143.791 121.761 143.53 120.202 143.323C119.526 142.99 118.904 142.575 118.364 142.017H118.355ZM145.73 117.67C146.153 122.606 146.982 127.515 147.721 132.406C148.1 134.865 148.442 137.639 147.487 140.026C147.136 140.891 146.063 142.629 144.946 142.602C143.531 142.566 142.738 140.188 142.486 139.081C141.738 135.82 142.225 131.902 142.72 128.632C143.198 125.48 144.09 122.408 145.108 119.391C145.306 118.814 145.514 118.238 145.73 117.67ZM92.6643 154.231C94.5206 151.357 96.7282 148.736 98.9269 146.124C99.4766 145.476 100.071 144.494 100.837 144.071C101.594 143.647 102.621 143.665 103.459 143.584C105.361 143.404 107.28 143.395 109.19 143.476C112.849 143.647 116.471 144.197 120.094 144.692C121.148 145.142 122.283 145.449 123.347 145.782C125.248 146.376 127.113 147.043 129.006 147.646C130.222 148.034 131.502 148.286 132.781 148.475C133.367 148.709 133.962 148.926 134.583 149.106C135.421 149.358 136.277 149.556 137.133 149.727C137.899 149.88 138.846 149.853 139.521 150.259C140.576 150.889 141.477 152.06 142.468 152.817C143.612 153.69 144.829 154.465 146.144 155.05C151.191 157.302 156.804 155.393 162.103 154.474C162.896 154.519 163.698 154.555 164.5 154.555C165.969 154.555 167.446 154.447 168.897 154.222C167.392 156.266 165.996 158.374 164.599 160.518C163.626 162.013 162.698 163.481 161.409 164.733C159.805 166.291 158.174 167.453 156.12 168.282C153.57 169.309 151.245 171.354 148.613 172.218C144.946 171.615 141.279 171.074 137.593 170.534C135.53 170.228 133.313 170.083 131.285 169.615C128.888 169.066 127.888 167.048 126.528 165.238C124.716 162.833 122.626 160.824 119.562 160.311C116.967 159.878 114.056 160.527 112.66 162.959C112.083 163.959 111.704 165.066 110.65 165.715C110.299 165.931 109.974 166.039 109.677 166.057C109.425 166.003 109.172 165.94 108.92 165.886C108.434 165.598 108.145 164.967 108.19 164.193C108.298 162.409 109.118 160.5 110.146 159.059C111.164 157.626 112.615 156.465 114.363 156.095C115.039 155.951 116.012 156.005 116.093 155.086C116.183 154.024 114.768 153.393 113.975 153.132C112.515 152.664 110.839 152.7 109.47 153.42C106.884 154.789 105.64 157.942 105.289 160.68C105.108 162.103 105.099 163.535 105.108 164.958C104.505 164.805 103.901 164.643 103.297 164.472C101.828 164.058 100.378 163.607 98.8909 163.247C98.9269 162.319 99.0891 161.392 99.3865 160.509C99.9632 158.833 101.405 157.446 101.747 155.672C101.81 155.33 101.783 154.915 101.657 154.546C101.765 154.249 101.567 153.888 101.279 153.753C101.27 153.753 101.261 153.744 101.252 153.735C101.171 153.699 101.072 153.681 100.981 153.699C100.837 153.627 100.675 153.591 100.486 153.591C99.9902 153.591 99.6118 153.997 99.4766 154.474C99.3865 154.582 99.3144 154.708 99.2874 154.852C99.2784 154.915 99.2693 154.987 99.2693 155.05C98.7377 155.573 98.2331 156.131 97.7645 156.726C96.8815 157.852 96.0614 159.752 94.845 160.527C93.3581 161.464 91.2406 160.932 90.9252 159.113C90.6008 157.221 91.6911 155.717 92.6643 154.204V154.231ZM100.197 155.906C100.252 155.915 100.306 155.924 100.351 155.924C99.9993 157.059 98.8278 158.644 98.6025 159.122C98.0349 160.329 97.7104 161.653 97.6293 162.986C97.5753 162.977 97.5212 162.959 97.4672 162.95C97.314 162.923 95.0252 162.427 93.5384 162.229C93.7546 162.211 93.9709 162.184 94.2052 162.13C95.728 161.797 96.3858 160.851 97.2239 159.635C98.134 158.32 99.0531 157.005 100.197 155.906ZM105.117 166.535C105.117 168.12 105.613 172.155 103.243 172.02C101.216 171.903 100.035 168.48 99.4586 166.895C99.1883 166.156 99.017 165.373 98.936 164.589C100.098 164.886 101.252 165.22 102.405 165.544C103.306 165.805 104.216 166.039 105.117 166.264C105.117 166.354 105.117 166.436 105.117 166.526V166.535ZM93.8267 163.436C94.845 163.571 95.8542 163.923 96.8634 164.121C97.1248 164.175 97.3771 164.229 97.6384 164.292C97.8186 167.003 99.0351 170.165 100.828 172.137C102.342 173.803 105.487 173.722 106.064 171.29C106.424 169.777 106.46 168.192 106.433 166.607C106.983 166.742 107.523 166.868 108.073 166.994C108.524 167.3 109.046 167.399 109.596 167.336C111.29 167.715 112.975 168.084 114.669 168.48C116.615 168.94 118.508 169.597 120.454 170.029C121.355 170.228 122.274 170.336 123.175 170.57C123.851 170.75 124.536 171.083 125.23 171.191C126.176 171.335 127.293 171.561 128.159 172.119C121.788 174.056 115.183 175.046 108.614 176.046C106.974 176.298 105.343 176.542 103.712 176.812C102.135 177.073 100.495 177.505 98.8909 177.487C95.7821 177.451 95.3586 174.47 94.6107 172.056C93.7096 169.147 92.6193 166.291 91.7542 163.355C92.4481 163.481 93.1329 163.355 93.8357 163.445L93.8267 163.436ZM92.2498 162.148C92.2498 162.148 92.3129 162.166 92.3489 162.175C92.2949 162.193 92.2678 162.211 92.2769 162.247C92.2769 162.211 92.2588 162.184 92.2498 162.148ZM106.424 162.004C106.649 158.428 108.614 153.123 113.182 154.24C113.534 154.33 113.957 154.69 114.345 154.834C113.714 154.933 113.092 155.141 112.515 155.411C111.227 156.014 110.164 156.969 109.308 158.095C107.983 159.833 106.316 163.166 107.037 165.454C106.83 165.4 106.622 165.355 106.415 165.31C106.388 164.193 106.361 163.085 106.433 162.004H106.424ZM91.4569 161.851C91.4569 161.851 91.3757 161.887 91.3397 161.914C91.3217 161.86 91.3036 161.815 91.2946 161.761C91.3487 161.797 91.4028 161.824 91.4569 161.851ZM138.8 172.984C135.034 173.488 131.321 174.326 127.645 175.272C120.04 177.226 112.552 179.694 104.784 180.946C96.8634 182.234 88.6995 181.694 80.7248 181.361C71.6507 180.973 62.5857 180.298 53.5387 179.487C48.853 179.073 44.1673 178.613 39.4815 178.145C37.2108 177.92 34.949 177.695 32.6783 177.46C30.7499 177.262 27.8304 177.478 26.4337 175.902C23.6583 172.002 22.2976 167.372 20.5405 162.968C18.7023 158.365 16.9001 153.762 15.233 149.097C12.5298 141.522 9.62822 134.046 6.72668 126.543C4.98757 122.057 3.2304 117.58 1.41019 113.122C1.37414 113.032 1.3201 112.96 1.26604 112.897C1.27505 112.825 1.27505 112.752 1.26604 112.68C1.00472 111.212 3.54579 111.401 4.4559 111.41C6.74469 111.437 9.02448 111.419 11.3133 111.392C16.5036 111.329 21.6849 111.149 26.8662 110.942C37.1207 110.519 47.3662 109.924 57.6206 109.69C60.4861 109.627 63.3606 109.591 66.2261 109.591C67.7129 109.591 69.1997 109.591 70.6865 109.618C71.6417 109.636 72.723 109.645 72.9303 110.816C72.9573 110.996 73.0474 111.113 73.1556 111.185C74.291 114.491 75.129 117.878 76.0751 121.237C77.1294 124.993 78.436 128.668 79.7245 132.343C80.9861 135.946 82.2476 139.558 83.4912 143.17C84.0588 144.809 84.6535 146.44 85.2122 148.079C85.843 149.925 86.2215 151.844 86.7891 153.708C87.2757 155.303 87.8885 156.852 88.5373 158.383C88.8166 159.041 89.132 159.671 89.4564 160.302C89.9881 161.346 90.1773 162.481 90.5107 163.598C91.5469 167.03 92.7995 170.399 93.7637 173.84C94.2863 175.704 95.1603 177.821 97.1608 178.478C99.5487 179.262 102.522 178.244 104.892 177.866C113.164 176.542 121.535 175.56 129.546 172.984C130.06 172.822 130.087 172.227 129.817 171.921C129.79 171.867 129.762 171.822 129.717 171.777C128.771 170.705 127.014 170.156 125.69 169.939C124.428 169.723 123.175 169.228 121.896 168.985C119.85 168.606 117.886 167.931 115.859 167.444C114.444 167.111 113.029 166.796 111.605 166.481C112.038 166.165 112.425 165.796 112.732 165.391C113.876 163.887 114.155 162.328 116.192 161.689C117.877 161.157 119.959 161.428 121.526 162.22C122.914 162.923 124.013 164.085 124.978 165.274C126.122 166.688 126.978 168.543 128.447 169.633C129.528 170.435 130.736 170.84 132.06 170.984C134.502 171.254 136.935 171.696 139.368 172.047C140.972 172.281 142.576 172.524 144.18 172.786C142.387 172.813 140.576 172.732 138.8 172.966V172.984ZM247.5 169.948C246.256 171.642 245.13 172.542 243.075 173.2C239.327 174.416 235.29 174.137 231.415 174.452C226.928 174.821 222.576 175.317 218.052 175.128C213.7 174.947 209.347 174.956 204.995 174.983C186.955 175.101 168.825 175.749 150.974 172.615C150.938 172.615 150.902 172.606 150.866 172.597C152.425 171.84 153.912 170.894 155.363 170.092C157.03 169.174 158.544 168.696 160.075 167.507C161.463 166.427 162.779 165.274 163.842 163.869C164.941 162.427 165.933 160.86 166.852 159.302C167.942 157.446 169.375 155.96 170.6 154.213C170.681 154.096 170.771 153.979 170.862 153.852C171.736 153.636 172.583 153.294 173.204 152.645C173.258 152.591 173.295 152.528 173.34 152.474C173.412 152.465 173.484 152.456 173.547 152.438C176.917 151.808 180.233 150.88 183.495 149.817C186.667 148.781 189.794 147.61 192.911 146.44C196.074 145.251 199.426 143.53 202.805 143.134C204.382 142.954 205.851 142.819 207.338 142.215C208.572 141.711 209.681 140.99 210.771 140.243C213.537 138.333 216.457 136.91 219.746 136.135C221.674 135.676 223.549 135.523 225.351 135.613C225.648 135.784 225.937 135.964 226.216 136.153C227.613 137.108 228.937 138.162 230.145 139.342C232.794 141.936 234.903 145.215 237.047 148.232C239.084 151.096 241.057 154.015 243.012 156.933C244.022 158.446 245.148 159.941 246.013 161.536C246.662 162.725 247.185 163.968 247.815 165.166C247.851 166.21 248.545 166.895 249.437 167.291C249.419 167.318 249.41 167.336 249.392 167.363C248.689 168.165 248.113 169.084 247.491 169.939L247.5 169.948Z" fill="#CFCF96"/>
</svg>
