<svg width="265" height="239" viewBox="0 0 265 239" fill="none" xmlns="http://www.w3.org/2000/svg">
<path d="M263.987 212.619C234.097 213.599 204.177 213.499 174.267 213.339C170.237 213.319 166.076 212.989 162.066 213.349C160.307 213.509 158.717 214.009 157.057 214.599C155.837 215.029 154.567 215.339 153.597 216.199C153.347 216.139 153.066 216.199 152.876 216.469C148.456 222.689 141.647 226.599 134.647 229.299C127.227 232.159 119.367 234.039 111.537 235.329C102.517 236.819 93.3765 237.349 84.2466 237.069C75.1866 236.799 66.0765 235.989 57.2765 233.719C51.5465 232.239 46.0865 230.059 40.9765 227.069C36.0565 224.189 31.0865 220.529 28.1365 215.539C26.3965 212.589 25.7865 209.399 26.3065 206.399C27.6165 208.009 29.8365 208.609 31.9265 209.109C35.9165 210.069 39.9565 210.829 43.9865 211.629C51.9765 213.229 60.0065 214.789 68.1365 215.519C76.5265 216.269 84.9265 216.879 93.3565 217.039C101.757 217.199 110.067 216.439 118.427 215.929C126.627 215.439 134.657 213.569 142.547 211.339C146.017 210.359 149.947 209.669 153.126 207.939C155.276 206.769 157.217 204.739 157.037 202.119C157.007 201.679 156.907 201.269 156.777 200.889C156.777 200.849 156.777 200.809 156.777 200.769C155.657 191.299 151.177 182.729 149.857 173.329C149.117 168.059 149.637 163.069 151.577 158.109C153.497 153.239 156.217 148.729 158.527 144.049C159.477 142.129 160.837 139.829 161.147 137.689C161.187 137.409 161.197 137.129 161.197 136.829C161.797 139.319 162.647 141.769 163.487 144.139C167.047 154.199 171.977 164.569 179.417 172.339C184.777 177.939 191.267 183.069 198.137 186.659C200.977 188.139 204.327 189.659 207.617 189.399C210.417 189.179 212.106 187.419 213.066 184.899C214.606 180.879 215.587 176.569 216.397 172.349C216.737 170.579 216.967 168.859 216.967 167.059C216.967 163.849 216.157 160.979 215.077 157.979C214.567 156.549 214.376 155.019 213.816 153.619C213.167 152.009 212.447 150.319 211.607 148.789C210.927 147.569 210.117 146.479 209.537 145.189C208.917 143.799 208.357 142.389 207.827 140.969C205.737 135.419 204.017 129.739 202.107 124.119C200.107 118.229 197.947 112.329 195.537 106.599C193.317 101.319 190.697 95.899 185.816 92.629C181.507 89.749 176.447 88.229 171.707 86.239C169.337 85.249 166.857 84.159 164.957 82.389C163.207 80.749 162.066 78.629 161.257 76.399C160.396 74.009 159.847 71.509 159.347 69.019C159.457 68.879 159.507 68.6991 159.467 68.4791C159.307 67.7091 159.017 66.999 158.747 66.269C158.387 65.299 158.437 64.589 158.307 63.589C158.227 63.009 158.007 62.639 157.747 62.129C157.237 61.159 156.977 60.139 156.677 59.089C155.557 55.099 154.287 51.149 152.987 47.209C150.737 40.399 148.917 33.439 146.237 26.779C143.747 20.569 140.527 14.599 135.987 9.63903C133.757 7.20903 131.206 5.09906 128.186 3.72906C125.166 2.34906 121.897 1.85903 118.647 1.32903C114.897 0.719032 111.257 -0.200946 107.427 0.0390544C104.617 0.209054 101.877 0.919057 99.1965 1.72906C93.5565 3.43906 88.8765 7.24904 85.3165 11.899C83.1665 14.709 81.5465 17.849 79.8765 20.959C79.0265 22.539 77.8265 24.0991 77.1165 25.7291C76.4665 27.2291 76.2265 29.129 75.9765 30.749C75.6365 32.989 75.5366 35.279 76.0565 37.499C76.4865 39.309 77.3365 40.979 78.0465 42.689C79.2165 45.529 79.7665 48.549 80.6265 51.489C81.7065 55.189 82.5065 58.979 84.0165 62.529C84.7265 64.199 85.5165 65.969 85.6265 67.809C85.6765 68.589 85.6065 69.389 85.2265 70.089C84.5065 71.409 83.0565 71.6091 81.7265 71.8491C77.7965 72.5291 73.7865 72.659 69.8465 73.239C66.2465 73.779 62.7565 74.449 59.6565 76.449C56.9365 78.199 54.7066 80.5691 52.7466 83.1091C48.3465 88.7991 45.8865 95.5791 44.5865 102.599C43.2465 109.859 43.1665 117.289 41.8965 124.549C41.2165 128.469 40.4965 132.399 40.2065 136.379C40.0565 138.409 39.9865 140.439 39.8765 142.459C39.7665 144.619 39.4565 146.429 38.7565 148.469C38.1165 150.319 37.6365 152.119 36.8165 153.909C36.1265 155.409 35.3865 156.899 34.7765 158.429C34.2665 159.709 33.7865 161.039 33.6865 162.419C31.0465 160.499 27.3465 159.969 24.2765 159.109C20.3865 158.029 16.4565 157.019 12.4265 156.599C11.0365 156.449 9.27653 156.079 7.97653 156.669C6.68653 157.259 5.47652 158.199 4.46652 159.199C0.796521 162.839 -0.713503 168.349 0.316497 173.379C0.766497 175.569 1.80652 178.719 3.77652 179.999C4.87652 180.709 6.19651 180.769 7.01651 180.109C8.09651 181.199 9.73652 181.669 11.0265 180.929C11.6465 182.309 12.6565 183.749 14.0865 183.839C14.9465 183.889 15.5165 183.479 15.9765 182.899C17.0165 185.749 20.1265 187.689 22.5865 189.149C24.0665 190.029 25.6065 190.829 27.1265 191.639C28.9065 192.599 30.3765 193.729 32.0165 194.889C32.3965 195.159 32.7865 195.389 33.1965 195.609C32.3565 196.069 31.5465 196.589 30.7865 197.169C29.9065 197.269 29.0465 197.499 28.2565 197.979C26.1465 199.259 24.8165 201.949 25.3965 204.399C25.1665 205.089 24.9965 205.809 24.8965 206.549C24.2465 211.319 26.3065 215.779 29.3265 219.369C36.1365 227.469 46.9165 232.399 56.9765 234.989C64.9065 237.029 73.1065 237.909 81.2665 238.269C89.7965 238.649 98.3165 238.429 106.787 237.349C114.607 236.349 122.377 234.719 129.907 232.349C136.227 230.359 142.517 227.759 147.787 223.659C150.057 221.889 152.057 219.849 153.767 217.539C153.957 217.579 154.157 217.539 154.337 217.349C155.327 216.309 157.056 215.979 158.376 215.499C160.166 214.859 161.997 214.589 163.897 214.579C167.367 214.549 170.846 214.619 174.316 214.639C181.536 214.679 188.767 214.709 195.987 214.729C210.647 214.759 225.307 214.719 239.967 214.489C247.997 214.369 256.016 214.189 264.036 213.919C264.886 213.889 264.886 212.569 264.036 212.599L263.987 212.619ZM155.686 203.049C155.396 204.799 153.947 206.009 152.477 206.809C150.687 207.779 148.626 208.209 146.686 208.779C144.507 209.419 142.316 210.059 140.126 210.649C135.867 211.809 131.567 212.849 127.207 213.589C122.757 214.339 118.367 214.489 113.887 214.759C111.807 214.889 109.747 215.259 107.667 215.409C105.227 215.589 102.777 215.689 100.337 215.729C91.4065 215.889 82.4265 215.439 73.5265 214.669C64.6565 213.899 55.8165 212.769 47.1065 210.919C42.7865 209.999 38.4265 209.229 34.1165 208.259C32.1965 207.829 29.8465 207.579 28.2265 206.399C27.5365 205.899 27.0565 205.249 26.7965 204.529C27.5265 202.409 28.8665 200.439 30.7965 198.779C30.9365 198.659 31.0865 198.549 31.2265 198.429C31.3965 198.409 31.5666 198.399 31.7466 198.399C32.9666 198.379 34.2765 198.529 35.4265 198.039C35.9465 197.819 36.5765 197.349 36.9265 196.779C38.5665 197.009 40.2565 196.929 41.8665 196.629C43.5365 196.309 45.1965 195.989 46.7865 195.369C47.8665 194.949 49.3165 194.449 49.9165 193.379C52.0865 193.229 54.2565 193.129 56.4265 193.059C67.7665 192.689 79.1065 192.499 90.4565 192.539C92.4365 193.359 94.4965 194.099 96.5165 194.649C99.1565 195.369 101.687 195.199 103.737 193.279C103.927 193.099 104.117 192.909 104.297 192.709C107.157 192.769 110.016 192.839 112.876 192.939C122.246 193.249 131.617 193.809 140.917 194.929C145.077 195.429 149.167 195.989 152.747 198.329C154.337 199.369 156.036 200.939 155.686 203.049ZM28.6865 189.949C26.6565 188.989 24.6566 187.949 22.7466 186.769C20.9866 185.669 18.6565 184.449 18.1365 182.259C17.8065 180.879 18.5165 178.779 19.1265 177.449C19.4865 176.909 19.8665 176.379 20.2565 175.859C21.0965 175.129 22.1865 174.899 23.3065 175.819C23.7965 176.229 24.1465 176.799 24.5965 177.249C25.1965 177.849 25.9065 178.199 26.6465 178.619C30.4365 180.789 34.1265 183.139 37.6965 185.669C39.1765 186.719 40.5565 187.889 41.9065 189.099C40.0065 189.359 38.1165 190.009 36.6765 191.009C36.0165 191.469 35.2565 192.209 35.0465 193.049C34.7365 192.809 34.4365 192.619 34.1865 192.469C32.4865 191.449 30.4765 190.799 28.6865 189.949ZM37.1365 195.459C37.1365 195.459 37.1265 195.429 37.1165 195.409C37.2965 195.349 37.4765 195.299 37.6465 195.239C37.6565 195.239 37.6765 195.239 37.6865 195.239C38.7965 195.379 39.9265 195.469 41.0465 195.449C39.7465 195.629 38.4365 195.669 37.1265 195.449L37.1365 195.459ZM47.6065 193.559C47.7065 193.559 47.8065 193.539 47.9165 193.529C47.6065 193.729 47.2365 193.899 46.8465 194.039C47.1065 193.889 47.3565 193.729 47.6165 193.559H47.6065ZM48.6565 192.169C48.4065 192.189 48.1565 192.209 47.9065 192.229C47.7465 192.079 47.5865 191.919 47.4165 191.779C46.9265 191.339 46.4065 190.919 45.8965 190.509C45.9965 190.539 46.1065 190.559 46.2065 190.589C46.9265 190.809 48.3565 191.389 48.6565 192.169ZM45.1765 191.679C45.1765 191.679 45.2065 191.749 45.2265 191.789C45.3565 192.019 45.4965 192.229 45.6565 192.419C42.7765 192.699 39.8765 193.109 37.1465 193.929C37.0565 193.889 36.9665 193.859 36.9065 193.809C35.3565 192.709 38.7765 191.359 39.4265 191.129C40.6465 190.709 41.9865 190.369 43.3165 190.279C43.9265 190.759 44.5565 191.209 45.1765 191.669V191.679ZM155.867 110.559C155.687 110.459 155.497 110.359 155.297 110.279C154.277 109.869 153.237 109.909 152.237 110.339C151.037 110.869 150.437 110.769 149.307 110.119C148.797 109.829 148.277 109.599 147.677 109.589C146.717 109.559 146.157 110.029 145.497 110.649C144.547 111.559 143.667 112.189 142.457 111.199C142.297 111.069 142.157 110.929 142.017 110.799C142.547 110.599 143.117 110.469 143.677 110.339C144.897 110.049 146.107 109.679 147.337 109.489C150.077 109.059 153.177 109.409 155.847 110.189C155.847 110.309 155.847 110.439 155.857 110.559H155.867ZM139.637 111.849C139.867 112.049 140.207 112.089 140.477 111.799C140.517 111.759 140.557 111.719 140.597 111.679C140.807 111.709 141.027 111.759 141.277 111.869C142.247 112.299 142.757 113.279 144.007 113.169C145.217 113.069 145.707 112.079 146.577 111.439C148.197 110.249 148.947 111.969 150.447 112.249C152.036 112.539 153.047 110.839 154.727 111.459C155.317 111.679 155.827 112.009 156.277 112.439C156.927 114.819 158.007 117.239 159.247 119.319C159.397 119.559 159.537 119.779 159.667 119.989C159.687 120.069 159.707 120.139 159.737 120.219C160.257 121.949 159.947 123.639 160.147 125.409C160.237 126.199 160.297 126.969 160.347 127.739C160.347 127.779 160.337 127.829 160.327 127.869C160.167 128.729 160.197 129.619 160.027 130.469C159.747 131.819 158.697 133.299 157.327 132.049C156.527 131.319 156.177 129.959 155.847 128.969C155.277 127.309 155.007 125.759 154.887 124.149C154.857 123.039 154.827 121.939 154.827 120.839C154.827 119.989 153.527 119.989 153.507 120.839C153.477 122.119 153.477 123.459 153.577 124.799C153.647 127.099 153.707 129.399 153.487 131.699C153.377 132.819 153.287 134.549 152.457 135.449C151.117 136.899 149.547 135.189 148.867 133.999C147.497 131.599 146.967 128.749 146.247 126.119C145.927 124.969 145.007 120.919 143.167 121.269C141.537 121.579 142.547 124.539 142.557 125.529C142.577 127.809 142.507 129.339 143.607 131.369C144.347 132.729 144.857 134.319 145.357 135.789C145.997 137.699 147.007 142.699 143.126 140.359C141.507 139.379 140.127 137.479 138.857 136.079C137.497 134.579 136.747 132.649 136.197 130.729C135.967 129.909 135.757 129.059 135.617 128.209C135.797 126.559 136.097 124.909 136.517 123.309C136.867 121.999 137.237 120.889 136.977 119.529C136.897 119.119 136.346 118.919 136.007 119.139C134.786 119.909 134.627 121.489 134.417 122.799C134.117 124.649 134.067 126.389 134.307 128.199C134.217 128.969 134.147 129.739 134.107 130.519C133.907 134.079 134.107 138.089 132.227 141.269C130.647 143.939 128.527 141.019 128.527 139.099C128.527 137.419 129.157 135.789 129.177 134.089C129.217 130.509 130.106 127.049 130.186 123.449C130.226 121.649 130.546 119.959 131.126 118.259C131.666 116.659 132.296 114.109 134.436 114.309C135.356 114.399 136.107 114.809 137.017 114.379C137.517 114.139 137.857 113.689 138.197 113.279C138.657 112.719 139.087 112.139 139.637 111.849ZM130.097 143.609C132.577 144.479 133.807 141.429 134.397 139.539C135.117 137.239 135.237 134.839 135.337 132.439C135.707 133.499 136.167 134.519 136.727 135.469C137.667 137.039 139.117 138.519 140.497 139.819C135.837 144.079 130.447 147.629 125.517 151.569C124.767 152.169 123.937 152.739 123.277 153.449C122.477 154.309 122.096 155.459 121.316 156.359C120.396 157.429 119.507 158.479 118.747 159.679C115.697 164.489 114.837 170.129 112.527 175.249C110.057 180.739 107.706 186.659 103.757 191.309C99.3465 191.229 94.9365 191.189 90.5265 191.179C89.1765 190.639 87.8565 190.019 86.6465 189.249C84.0565 187.599 82.4865 184.479 83.5465 181.439C84.0665 179.929 85.1865 178.989 86.3165 177.939C87.5365 176.809 88.7365 175.649 89.9165 174.459C94.3665 169.959 98.2965 165.089 104.167 162.369C105.757 161.629 107.387 160.969 108.967 160.189C110.567 159.389 111.967 158.379 113.467 157.419C115.517 156.109 117.097 154.589 118.767 152.829C122.007 149.409 125.177 145.919 128.467 142.539C128.887 142.999 129.417 143.369 130.077 143.599L130.097 143.609ZM102.417 192.679C101.867 193.119 101.267 193.469 100.557 193.639C98.6665 194.099 96.6965 193.359 94.9365 192.749C94.7665 192.689 94.5865 192.629 94.4065 192.569C97.0765 192.589 99.7465 192.629 102.417 192.679ZM158.097 141.929C155.867 146.719 153.107 151.249 151.007 156.099C149.057 160.609 147.987 165.119 148.237 170.059C148.477 174.829 149.697 179.429 151.157 183.959C152.707 188.779 154.307 193.559 155.147 198.539C154.237 197.689 153.136 197.009 152.126 196.419C149.117 194.689 145.607 194.199 142.217 193.779C130.057 192.239 117.767 191.599 105.477 191.339C106.727 189.719 107.727 187.889 108.707 186.119C109.477 184.729 110.377 183.389 111.097 181.969C111.807 180.559 112.367 179.059 112.967 177.599C114.157 174.749 115.187 171.939 116.147 168.999C117.097 166.089 118.147 163.179 119.767 160.569C120.647 159.159 121.747 158.019 122.787 156.749C123.427 155.959 123.707 154.949 124.417 154.219C125.417 153.179 126.707 152.329 127.837 151.429C129.587 150.049 131.357 148.689 133.117 147.319C135.897 145.169 138.867 143.119 141.457 140.739C141.457 140.739 141.467 140.729 141.477 140.719C142.657 141.759 144.217 142.769 145.807 142.069C146.827 141.619 147.296 140.609 147.376 139.539C147.556 137.059 146.297 134.579 145.477 132.309C144.947 130.839 143.947 129.639 143.777 128.049C143.667 127.049 143.907 126.069 143.847 125.089C143.827 124.789 143.487 123.569 143.517 122.899C144.517 123.969 144.866 126.039 145.186 127.309C145.606 128.959 146.066 130.569 146.637 132.169C147.377 134.209 148.497 137.009 150.977 137.299C153.387 137.589 154.287 135.189 154.607 133.229C154.747 132.349 154.837 131.459 154.887 130.569C155.197 131.259 155.567 131.919 156.017 132.529C157.177 134.119 158.657 134.169 159.777 133.309C159.737 134.119 159.797 134.939 159.827 135.709C159.917 138.009 159.057 139.849 158.087 141.929H158.097ZM176.407 89.519C181.967 91.709 187.167 94.129 190.417 99.369C194.237 105.539 196.387 112.529 198.977 119.249C201.117 124.799 202.807 130.509 204.717 136.129C205.657 138.889 206.627 141.639 207.747 144.329C208.917 147.139 210.607 149.629 211.837 152.419C212.547 154.019 212.947 155.539 213.427 157.209C213.967 159.069 214.676 160.859 215.186 162.739C215.856 165.219 215.827 167.899 215.417 170.429C214.717 174.829 213.626 179.259 212.197 183.479C211.717 184.879 211.217 186.399 209.957 187.299C208.797 188.129 207.297 188.219 205.917 188.059C201.977 187.599 198.216 185.369 194.936 183.279C187.476 178.529 180.437 172.549 175.417 165.219C172.017 160.249 169.147 154.829 166.857 149.259C164.847 144.379 162.936 139.289 162.007 134.079C161.626 131.929 161.817 129.769 161.707 127.619C161.797 127.179 161.877 126.729 161.887 126.279C161.907 125.399 161.647 124.589 161.497 123.749C161.497 122.999 161.487 122.249 161.397 121.509C161.397 121.199 161.387 120.899 161.337 120.589C161.287 120.259 161.167 119.949 161.017 119.659C160.747 118.619 160.387 117.579 160.047 116.609C159.487 115.039 158.627 113.129 157.367 111.759C157.227 111.329 157.117 110.909 157.107 110.579C162.227 112.389 166.437 115.699 170.457 119.309C172.317 120.979 174.127 122.719 175.907 124.479C177.277 126.059 178.627 127.649 179.997 129.219C181.347 130.759 182.817 132.129 184.347 133.429C185.767 135.129 187.167 136.829 188.407 138.669C189.897 140.879 191.236 143.119 192.936 145.179C194.416 146.979 195.926 148.939 197.686 150.479C198.806 151.459 200.207 152.289 201.537 151.249C201.727 151.099 201.747 150.819 201.707 150.609C200.877 146.489 197.927 143.219 194.977 140.399C192.117 137.669 188.807 135.459 185.757 132.959C184.027 130.849 182.186 128.829 180.257 126.929C178.846 125.539 177.417 124.079 175.957 122.609C174.727 121.159 173.477 119.729 172.157 118.369C169.957 116.099 167.637 113.899 165.066 112.049C163.096 110.629 160.807 109.249 158.327 108.989C157.857 108.939 157.197 108.859 156.667 109.019C155.897 108.789 155.107 108.599 154.297 108.449C151.637 107.959 148.767 107.799 146.117 108.379C144.297 108.779 141.897 109.059 140.277 110.199C139.587 110.249 138.917 110.539 138.397 110.969C137.997 111.299 137.697 111.749 137.376 112.159C136.426 113.369 135.957 113.189 134.707 112.999C132.157 112.619 131.007 114.749 130.237 116.819C129.677 118.309 129.197 119.839 128.997 121.429C128.747 123.419 128.967 125.419 128.667 127.409C128.417 129.049 127.937 130.659 127.837 132.319C127.787 133.109 127.877 133.899 127.837 134.679C127.787 135.779 127.467 136.819 127.307 137.899C127.127 139.079 127.247 140.339 127.737 141.409C124.567 144.659 121.507 148.019 118.397 151.319C116.717 153.099 115.137 154.809 113.047 156.139C111.727 156.979 110.497 157.919 109.107 158.659C107.547 159.489 105.926 160.159 104.316 160.879C101.367 162.209 98.8365 163.809 96.4365 165.989C93.9565 168.239 91.7565 170.739 89.4165 173.129C88.2465 174.319 87.0565 175.479 85.8465 176.619C84.8165 177.589 83.6865 178.469 82.9465 179.699C81.7065 181.779 81.6365 184.349 82.5865 186.559C83.5365 188.759 85.3465 190.149 87.4065 191.199C79.0365 191.199 70.6665 191.349 62.2965 191.589C58.2465 191.699 54.1965 191.809 50.1465 192.089C50.0765 191.699 49.8765 191.339 49.5865 191.029C51.2265 187.669 54.2165 185.159 56.2365 182.039C57.3565 180.309 57.9165 178.309 58.7265 176.429C59.5765 174.429 60.5165 172.469 61.4065 170.489C63.0965 166.729 64.6465 162.879 65.1965 158.759C65.7665 154.529 65.0765 150.239 64.6565 146.019C63.7865 137.299 62.7265 128.459 63.0865 119.679C63.2465 115.719 63.9566 111.849 65.8065 108.319C67.3465 105.389 69.3965 102.759 71.0665 99.909C73.0165 96.5891 74.5065 93.1291 75.5065 89.409C76.4765 85.789 77.2065 81.949 79.1765 78.699C81.1165 75.509 84.0665 74.2591 87.2165 72.5991C88.7865 71.7691 90.3665 70.6791 90.8765 69.0391C90.9065 69.0791 90.9265 69.119 90.9565 69.159C94.6065 75.109 97.4666 81.5191 98.7466 88.4191C99.4566 92.2191 99.2565 96.269 100.287 99.999C101.107 102.949 103.367 104.329 106.277 104.799C111.937 105.729 118.626 104.549 121.876 99.329C123.006 97.509 123.657 95.3491 124.417 93.3491C125.407 90.7691 126.367 88.179 127.297 85.579C127.457 85.139 127.607 84.699 127.767 84.259C127.607 86.269 127.636 88.3091 127.936 90.4191C128.236 92.5291 128.717 94.739 130.017 96.489C131.177 98.049 132.887 99.019 134.617 99.839C135.637 100.329 136.677 100.809 137.737 101.239C139.327 101.889 140.997 102.089 142.667 102.399C145.947 103.009 149.247 103.439 152.577 103.729C155.637 103.999 158.067 103.409 160.237 101.159C161.877 99.4591 163.067 97.449 163.297 95.059C163.557 92.269 163.057 89.249 162.927 86.449C162.827 84.439 162.237 82.229 161.547 80.199C162.097 81.129 162.737 82.009 163.497 82.809C166.837 86.319 172.027 87.799 176.407 89.529V89.519ZM188.857 137.029C189.577 137.589 190.297 138.149 191.017 138.719C194.797 141.739 199.117 145.579 200.337 150.459C199.067 150.719 196.797 147.629 196.207 146.949C194.277 144.739 192.436 142.529 190.876 140.039C190.236 139.019 189.557 138.019 188.867 137.029H188.857ZM129.557 44.249C130.027 44.949 131.117 44.329 130.697 43.579C129.727 41.879 132.147 39.119 133.457 38.329C136.617 36.409 138.907 40.259 139.327 42.999C139.767 45.879 139.127 48.989 138.117 51.689C137.217 54.099 134.967 55.6991 134.147 58.159C133.627 59.729 133.817 61.399 133.537 63.009C133.167 65.089 132.347 67.039 131.137 68.759C129.947 70.459 128.386 71.869 126.936 73.329C125.156 75.119 123.387 76.919 121.607 78.709C120.257 80.079 118.787 80.989 117.037 81.759C115.517 82.419 114.027 83.289 112.337 83.379C109.667 83.519 107.067 82.279 104.847 80.929C99.8965 77.899 95.3265 73.379 92.0865 68.459C91.7765 67.949 91.4565 67.439 91.1365 66.939C91.0665 66.829 90.9865 66.759 90.8965 66.709C90.5565 65.439 89.7665 64.369 89.1465 63.199C88.1265 61.279 87.8065 59.079 87.5465 56.949C87.3065 54.909 87.1165 52.849 86.7265 50.829C86.2865 48.599 85.4465 46.589 84.7065 44.449C83.5965 41.289 83.3765 37.739 83.7466 34.429C84.0466 31.769 84.8565 27.8691 87.6165 26.6691C90.0465 25.6091 93.5165 26.0791 96.0765 26.1691C99.5365 26.2891 103.027 26.519 106.457 26.999C109.627 27.439 112.747 28.239 115.587 29.739C119.777 31.949 123.277 35.589 126.137 39.319C127.357 40.909 128.456 42.579 129.566 44.249H129.557ZM130.797 71.259C128.217 79.159 125.517 87.019 122.487 94.769C121.027 98.489 119.306 101.419 115.376 102.869C112.686 103.859 109.727 103.959 106.907 103.559C103.947 103.139 102.027 101.919 101.397 98.909C100.637 95.229 100.677 91.409 99.9665 87.709C99.1265 83.339 97.6466 79.1591 95.7466 75.1691C98.2365 77.7991 101.057 80.1291 104.007 81.969C106.547 83.549 109.577 84.939 112.647 84.679C114.147 84.559 115.396 83.899 116.757 83.309C118.846 82.399 120.706 81.509 122.316 79.869C124.316 77.849 126.307 75.829 128.307 73.809C129.147 72.959 129.987 72.129 130.777 71.249L130.797 71.259ZM85.8665 71.409C87.4265 69.5191 86.9765 66.899 86.2765 64.749C85.7265 63.059 84.8965 61.479 84.2965 59.809C83.6265 57.939 83.2765 55.929 82.7265 54.019C81.7765 50.749 81.0665 47.349 79.9665 44.119C79.3665 42.359 78.5165 40.7091 77.8665 38.9791C77.1465 37.0591 76.8765 35.099 77.0065 33.049C77.0965 31.539 77.3665 30.039 77.6965 28.559C78.1465 26.559 79.0765 25.0491 80.0665 23.2891C83.6165 16.9291 86.8165 10.639 92.8765 6.24902C97.0665 3.21902 102.857 1.50902 107.987 1.31902C111.737 1.17902 115.377 2.12904 119.047 2.70904C122.357 3.23904 125.687 3.81902 128.667 5.43902C134.507 8.60902 138.667 14.459 141.737 20.209C144.927 26.169 147.057 32.619 149.027 39.069C151.197 46.169 153.666 53.1891 155.626 60.3591C155.826 61.0791 155.957 61.779 156.327 62.429C156.777 63.229 156.806 63.739 156.936 64.689C157.106 65.879 157.617 66.939 157.957 68.069C157.877 68.199 157.837 68.359 157.876 68.549C158.206 70.179 158.537 71.879 158.957 73.559C159.007 74.419 159.197 75.269 159.367 76.119C159.437 76.479 159.677 77.329 159.807 77.999C159.627 78.089 159.517 78.269 159.547 78.549C159.547 78.609 159.567 78.669 159.577 78.719C159.577 78.719 159.577 78.729 159.577 78.739C159.617 79.009 159.697 79.289 159.857 79.499C160.507 81.319 161.037 83.289 161.397 85.149C161.827 87.369 161.697 89.789 161.897 92.059C162.087 94.209 162.057 96.2591 160.917 98.1691C159.187 101.049 156.686 102.649 153.316 102.479C147.706 102.179 141.447 101.519 136.307 99.189C134.687 98.459 132.956 97.699 131.686 96.429C130.336 95.079 129.777 93.229 129.427 91.399C127.987 83.879 130.317 76.969 132.607 69.909C132.707 69.609 132.587 69.379 132.397 69.239C132.537 69.029 132.676 68.8191 132.816 68.5991C133.887 66.8291 134.587 64.859 134.887 62.809C135.227 60.449 135.117 58.469 136.566 56.439C137.426 55.239 138.467 54.129 139.087 52.769C139.607 51.629 139.947 50.369 140.217 49.149C140.987 45.739 141.147 41.8391 139.047 38.8591C137.277 36.3491 134.457 35.779 132.037 37.749C131.007 38.589 129.797 40.099 129.347 41.649C124.977 35.349 119.737 29.379 112.227 26.959C106.177 25.009 99.2465 24.819 92.9465 24.839C90.6565 24.839 87.8265 24.689 85.9165 26.199C83.7065 27.949 82.8666 31.049 82.4966 33.709C82.0466 36.939 82.1865 40.329 83.0065 43.489C83.5165 45.469 84.4666 47.289 84.9966 49.269C85.6265 51.639 85.8865 54.069 86.1665 56.499C86.3765 58.389 86.5965 60.319 87.2265 62.129C87.8465 63.909 89.2665 65.3891 89.6565 67.2291C90.2565 70.0991 86.8665 71.4291 84.5965 72.4791C85.0865 72.2091 85.5165 71.879 85.8665 71.449V71.409ZM12.2065 171.399C12.3465 170.819 12.4465 170.209 12.6365 169.639C13.0765 168.299 14.7566 167.819 14.4966 169.639C14.2966 171.109 13.7865 172.469 13.4565 173.909C13.2165 174.949 12.5865 177.089 11.5865 178.509C11.1165 176.169 11.6665 173.669 12.2065 171.389V171.399ZM13.9765 182.499C13.1265 182.349 12.4565 180.909 12.1465 180.259C12.1065 180.169 12.0665 180.079 12.0265 179.979C13.7765 177.929 14.2865 175.359 15.0965 172.839C15.5265 171.509 16.9865 167.329 14.6265 166.999C11.9365 166.629 11.3965 169.019 10.9165 171.039C10.2665 173.799 9.64653 176.779 10.4765 179.569C10.4765 179.579 10.4765 179.599 10.4865 179.609C10.0565 179.879 9.5765 179.989 9.0665 179.849C8.4565 179.679 8.00653 179.349 7.66653 178.909C7.70653 178.739 7.72654 178.569 7.73654 178.379C7.76654 177.369 7.4865 176.269 7.4465 175.249C7.3965 174.219 7.40651 173.179 7.45651 172.149C7.56651 169.989 7.90649 167.869 8.43649 165.769C8.46649 165.679 8.46651 165.589 8.45651 165.499C8.42651 165.299 8.30651 165.139 8.14651 165.049C8.14651 165.049 8.1465 165.049 8.1365 165.049C8.1165 165.049 8.10652 165.029 8.08652 165.019C7.79652 164.869 7.41654 164.909 7.23654 165.259C6.80654 166.079 6.3865 166.859 6.1365 167.759C6.0465 168.089 6.19654 168.349 6.42654 168.479C6.00654 170.469 5.70653 172.509 5.53653 174.499C5.41653 175.899 5.48655 177.519 6.11655 178.839C6.02655 178.879 5.91651 178.929 5.76651 178.989C4.70651 179.429 4.01653 178.609 3.47653 177.779C2.66653 176.519 2.06651 175.089 1.70651 173.639C0.346512 168.219 2.36655 162.019 6.99655 158.769C8.49655 157.719 9.66654 157.679 11.4865 157.829C13.7065 158.009 15.9065 158.399 18.0865 158.879C21.8765 159.729 25.6365 160.789 29.3565 161.899C30.8565 162.339 32.4165 162.879 33.5565 163.999C33.7066 164.149 33.8465 164.309 33.9765 164.469C34.0965 164.719 34.2465 164.949 34.4265 165.159C35.1665 166.479 35.4465 168.049 36.3365 169.309C37.9765 171.599 39.6465 173.889 41.9765 175.549C42.8365 176.159 44.0165 177.239 45.1265 177.119C45.9965 177.029 46.7565 176.389 46.9765 175.559C47.6265 173.099 45.4965 170.389 43.5765 169.199C41.0965 167.669 35.1466 166.119 34.9966 162.699C34.9165 160.909 35.9865 158.799 36.7065 157.209C37.3465 155.789 38.0465 154.389 38.6565 152.959C39.9765 149.829 40.9765 146.449 41.1565 143.059C41.3665 138.999 41.4665 134.919 42.1665 130.909C42.7865 127.329 43.4565 123.739 43.8365 120.119C44.1965 116.709 44.4665 113.299 44.8465 109.889C45.6465 102.729 47.0065 95.5191 50.4065 89.0991C53.5765 83.1091 58.6165 77.009 65.4865 75.389C69.3165 74.489 73.2365 74.0891 77.1465 73.719C79.1065 73.529 81.9565 73.599 84.0465 72.719C83.9965 72.739 83.9565 72.7691 83.9065 72.7891C80.7765 74.3891 78.5265 76.729 77.0665 79.949C75.5065 83.399 74.8565 87.149 73.7765 90.759C72.6065 94.709 70.6065 98.339 68.3665 101.779C66.6265 104.449 64.7765 107.049 63.5865 110.029C62.1065 113.759 61.7665 117.799 61.7265 121.769C61.6765 126.289 61.9765 130.809 62.3465 135.309C62.7265 139.889 63.2065 144.449 63.6465 149.029C64.0965 153.659 64.3566 158.009 63.0565 162.549C61.7865 166.979 59.6265 171.069 57.7965 175.269C56.9765 177.159 56.4065 179.229 55.3365 180.999C54.2065 182.849 52.7465 184.459 51.3765 186.129C50.3365 187.409 49.2865 188.719 48.5365 190.189C47.4465 189.549 46.0765 189.179 45.2165 189.069C44.7865 189.009 44.3365 188.989 43.8765 188.979C43.3265 188.559 42.7765 188.119 42.2565 187.669C40.2965 185.969 38.2765 184.449 36.1265 182.989C33.9265 181.489 31.6765 180.059 29.3865 178.699C28.2865 178.039 27.0465 177.489 26.0165 176.729C25.2765 176.179 24.7965 175.369 24.0965 174.769C23.3865 174.169 22.6765 173.899 21.9865 173.869C23.0865 172.729 24.3165 171.729 25.6665 170.919H25.6865C26.5265 170.669 27.2265 170.259 27.9665 169.799C28.2965 169.589 28.3365 169.209 28.1965 168.929C28.0865 168.649 27.8265 168.459 27.4565 168.599C22.3865 169.929 18.8365 174.319 16.6865 178.849C16.6765 178.869 16.6665 178.899 16.6565 178.919C16.2565 179.569 15.8665 180.249 15.7165 180.969C15.2365 181.859 14.6365 182.639 13.9765 182.519V182.499ZM36.6665 166.979C37.7965 167.699 38.9965 168.299 40.1865 168.899C41.9265 169.769 43.8365 170.579 44.8965 172.299C45.2165 172.819 46.0165 174.429 45.6765 175.089C45.0165 176.359 43.8665 175.249 43.2065 174.809C41.6365 173.769 40.2065 172.489 39.1565 170.909C38.2865 169.589 37.3365 168.399 36.6565 166.979H36.6665ZM32.8565 193.889C32.1265 193.399 31.4765 192.819 30.7865 192.289C32.2865 192.929 33.7365 193.639 34.8665 194.759C34.8165 194.779 34.7765 194.799 34.7265 194.819C34.0765 194.579 33.4465 194.289 32.8565 193.889ZM35.3765 196.469C34.7965 196.969 34.0465 197.069 33.2265 197.089C33.7365 196.799 34.2565 196.529 34.7865 196.289C34.9765 196.349 35.1765 196.409 35.3765 196.459V196.469Z" fill="#BDDDC2"/>
</svg>
