<svg width="393" height="302" viewBox="0 0 393 302" fill="none" xmlns="http://www.w3.org/2000/svg">
<path d="M392.318 299.28C363.271 299.386 334.225 299.977 305.167 300.272C305.273 300.177 305.379 300.083 305.485 299.977C306.986 298.478 308.356 298.064 308.32 295.75C308.297 293.437 308.297 291.028 308.061 288.715C308.651 287.64 309.147 286.507 309.525 285.326C311.108 280.427 310.128 275.28 307.671 270.841C305.214 266.403 301.493 262.365 297.158 259.213C299.922 259.815 302.769 260.075 305.58 259.674C313.766 258.505 318.644 251.327 319.684 243.524C319.944 241.541 320.003 239.522 319.849 237.527C319.731 236.087 319.471 234.115 317.924 233.501C316.908 233.1 315.928 233.56 315.266 234.351C314.817 234.883 314.439 235.52 314.108 236.217C313.837 235.473 313.364 234.835 312.585 234.481C310.789 233.667 308.793 234.8 307.624 236.134C307.399 236.382 307.198 236.653 306.997 236.937C306.938 236.771 306.808 236.618 306.655 236.524C304.505 235.178 302.284 235.402 299.898 235.91C296.981 236.524 294.24 236.878 291.417 235.674C285.688 233.206 283.408 227.091 280.065 222.275C278.506 220.02 276.522 218.048 275.057 215.746C273.356 213.078 272.163 210.328 271.407 207.247C269.966 201.391 270.131 195.288 270.651 189.314C271.23 182.526 272.281 175.774 272.246 168.95V150.393C272.246 144.454 272.458 138.481 272.246 132.543C272.068 127.502 271.301 122.095 269.883 117.243C269.21 114.93 268.17 112.97 266.812 110.998C265.513 109.11 264.662 107.717 262.772 106.371C261.721 105.615 260.61 105.237 259.465 104.647C258.283 104.033 257.291 103.124 256.051 102.593C253.854 101.66 251.09 101.141 248.704 101.176C245.987 101.212 243.235 101.46 240.541 100.94C237.458 100.338 234.824 98.5557 232.084 97.1273C228.41 95.2266 224.607 93.5739 221.453 90.9177C221.346 90.7288 221.264 90.5281 221.157 90.3392C219.362 87.1046 216.539 84.7554 214.212 81.9575C213.16 80.6944 212.511 78.9708 211.696 77.5424C210.951 76.232 210.916 74.7209 210.703 73.2452C210.656 72.8911 210.597 72.5606 210.562 72.23C210.585 71.0023 210.727 69.7627 210.952 68.5231C211.412 67.2954 211.967 66.0913 212.416 64.8517C212.605 64.3205 212.735 63.7774 212.83 63.2462C213.361 62.0303 213.822 60.7789 214.259 59.5512C214.365 59.2443 214.283 58.9845 214.094 58.8192C214.389 58.1109 214.696 57.4144 214.991 56.7415C215.027 56.6707 215.039 56.5999 215.05 56.5408C215.121 56.5408 215.18 56.5172 215.251 56.4818C215.877 56.2103 216.385 55.3721 216.799 54.8527C217.755 53.6486 218.606 52.3618 219.338 51.0042C220.661 48.5605 222.031 45.2314 220.685 42.528C219.964 41.0642 218.842 40.2614 217.661 40.1552C218.003 39.6357 218.311 39.0809 218.594 38.4906C219.657 36.2948 220.449 34.04 220.579 31.5964C220.638 30.3214 220.815 29.0583 220.838 27.7833C220.862 26.343 220.496 24.9028 220.295 23.4743C219.905 20.7001 219.61 17.8787 218.535 15.2579C217.448 12.5899 215.523 9.95736 213.243 8.18657C212.192 7.37201 210.951 7.43104 209.841 6.78175C208.991 6.28593 208.518 5.32972 207.809 4.65682C207.301 4.1728 206.711 3.75959 206.108 3.40543C203.403 1.82353 200.167 1.37494 197.131 0.831895C193.895 0.253438 190.811 -0.384034 187.504 0.288864C183.913 1.02079 180.299 1.68187 176.873 3.03947C173.837 4.2436 171.12 6.15605 168.758 8.38724C164.045 12.8142 160.407 18.6814 159.615 25.1625C159.202 28.5506 157.926 32.045 158.469 35.4803C158.918 38.3017 160.359 41.1586 161.257 43.8738C161.588 44.8655 161.859 46.0224 162.344 47.0022C162.202 47.1675 162.119 47.4036 162.19 47.6751C162.344 48.348 162.627 48.9029 162.887 49.4695C162.781 49.6112 162.675 49.7764 162.592 49.9535C161.848 51.4882 162.486 53.684 162.982 55.2187C162.982 55.6554 162.946 56.0804 162.84 56.5054C162.533 57.7804 162.037 58.9373 161.871 60.2595C161.659 61.9476 161.659 63.6358 161.446 65.3358C161.186 67.3545 160.844 70.3058 161.564 72.2654C161.93 73.2571 162.793 73.9181 163.301 74.8271C163.938 75.9604 164.376 77.0584 165.273 78.0264C168.309 81.2964 173.022 81.4735 176.365 78.4396C176.542 78.2743 176.719 78.109 176.885 77.9202C176.649 79.3486 176.33 80.7888 175.987 82.1818C175.467 84.2595 174.735 86.0893 173.436 87.8129C172.644 88.8518 171.865 90.0087 170.931 90.9177C169.16 92.6531 166.856 93.444 164.541 94.1878C159.332 95.8641 154.418 98.3078 149.244 100.09C146.846 100.917 144.413 101.979 141.932 102.546C139.499 103.101 136.995 103.065 134.656 104.01C126.836 107.174 124.745 115.142 124.096 122.745C123.741 126.829 122.938 130.772 122.206 134.798C121.45 138.965 121.072 143.203 120.316 147.37C119.465 152.057 117.953 156.531 116.855 161.159C115.508 166.861 114.646 172.681 113.807 178.477C112.957 184.344 112.366 190.459 110.771 196.185C109.295 201.474 105.692 205.83 102.585 210.233C101.062 212.37 99.5377 214.566 98.4982 216.986C97.4587 219.418 96.9036 221.991 96.183 224.529C95.4034 227.304 94.2576 229.96 93.4189 232.722C92.7574 234.894 92.1668 237.09 91.4345 239.251C89.9343 243.725 87.8317 248.199 83.8155 250.879C83.3667 250.206 82.8233 249.58 82.0791 249.037C80.3427 247.774 78.2519 247.538 76.1611 247.75C75.2161 247.845 74.342 247.916 73.4089 247.857C72.3221 247.42 71.0464 247.195 69.8297 247.266C69.7707 247.266 69.7234 247.266 69.6644 247.266C69.6171 247.266 69.5581 247.278 69.5108 247.29C69.5108 247.29 69.499 247.29 69.4872 247.29C67.5618 247.491 65.8844 248.246 64.7977 249.852C63.9826 251.068 61.5847 252.756 62.4352 254.491C62.577 254.774 62.7778 255.011 63.0258 255.188C62.9432 255.27 62.825 255.377 62.6715 255.518C62.0572 256.12 61.4784 256.675 60.9941 257.395C59.9901 258.895 59.494 260.571 59.2577 262.342C59.0569 263.829 59.0096 265.399 59.364 266.863C59.7066 268.268 60.6397 269.437 61.443 270.617C62.3525 271.939 64.3606 275.15 66.3569 273.911C66.4632 273.852 66.5577 273.781 66.6404 273.698C67.9043 275.587 69.8179 276.992 72.2985 276.661C73.1962 276.543 73.905 276.059 74.472 275.386C75.2634 276.567 76.5509 277.299 77.6613 276.543C78.2047 276.472 78.6772 276.236 78.9725 275.823C79.0197 275.87 79.067 275.918 79.126 275.965C79.5158 276.295 79.9529 276.472 80.4018 276.543C78.4291 277.866 76.5628 279.377 74.9327 281.112C72.6529 283.532 70.7511 286.259 70.066 289.541C69.5344 292.114 68.9674 295.007 69.1682 297.687C63.6637 298.383 58.1001 298.005 52.5837 297.757C47.1855 297.521 41.8227 297.805 36.4363 297.993C24.4468 298.43 12.4691 298.773 0.479609 299.15C-6.09985 299.351 -12.6675 299.575 -19.247 299.811C-20.251 299.847 -20.251 301.405 -19.247 301.37C-7.42283 300.921 4.41311 300.579 16.2491 300.213C22.2143 300.024 28.1913 299.835 34.1565 299.623C39.4839 299.434 44.8349 299.032 50.1622 299.209C56.5881 299.41 63.0731 300.048 69.4754 299.198C69.5462 299.198 69.6053 299.174 69.6644 299.15C70.1487 299.327 70.8692 298.914 70.7629 298.218C70.3613 295.573 71.011 292.528 71.5543 289.942C72.2158 286.743 74.153 284.099 76.421 281.785C78.9725 279.188 82.0319 277.157 85.233 275.457C86.6741 274.702 88.2333 274.147 89.4972 273.143C91.0565 271.904 92.9701 271.266 94.7892 270.416C98.9471 268.469 103.14 266.721 107.476 265.187C109.318 264.537 111.173 263.924 113.063 263.416C113.949 263.168 114.846 262.955 115.756 262.755C117.032 262.483 118.591 262.46 119.808 262.07C120.079 261.987 120.339 261.869 120.611 261.751C122.501 261.905 124.367 262.188 126.198 262.696C130.876 263.994 134.892 267.087 139.085 269.401C141.341 270.652 143.669 271.585 146.066 272.376C141.306 273.557 136.617 274.926 132.104 276.768C127.793 278.527 123.753 280.899 119.985 283.626C118.343 284.819 116.748 286.058 115.189 287.357C113.972 288.36 111.657 289.718 111.137 291.335C110.074 294.641 116.76 293.767 118.201 293.236C120.386 292.433 122.182 291.111 124.474 290.686C126.777 290.261 128.832 289.01 131.041 288.183C140.621 284.618 151.016 283.449 160.218 278.881C161.316 278.338 162.403 277.747 163.466 277.122C164.517 277.523 165.415 278.113 166.443 278.562C167.435 278.999 168.439 279.022 169.455 279.436C170.636 279.908 171.782 280.557 172.928 281.124C175.432 282.352 177.924 283.579 180.428 284.819C185.153 287.144 189.89 289.47 194.662 291.689C199.092 293.744 203.498 295.585 208.235 296.825C212.983 298.064 217.838 298.997 222.681 299.811C233.111 301.57 243.825 301.795 254.374 301.901C276.061 302.125 297.748 301.936 319.436 301.653C343.71 301.334 367.973 300.921 392.247 300.827C393.251 300.827 393.251 299.268 392.247 299.268L392.318 299.28ZM306.679 294.416C306.726 295.054 306.997 296.175 306.702 296.766C306.419 297.356 305.71 297.58 305.226 297.97C304.422 298.643 303.997 299.54 302.887 299.8C302.072 299.989 301.186 299.882 300.359 299.847C299.851 299.823 297.796 300.107 296.721 299.941C300.418 297.498 304.033 294.594 306.608 291.005C306.608 292.138 306.584 293.271 306.667 294.405L306.679 294.416ZM301.682 265.387C304.765 268.646 307.446 272.541 308.427 276.98C309.124 280.132 308.734 283.19 307.588 286.011C307.186 284.559 306.584 283.166 305.911 281.785C304.859 279.648 303.501 278.361 301.741 276.827C300.879 276.071 300.217 275.138 299.319 274.418C298.504 273.769 297.571 273.32 296.638 272.86C296.603 272.683 296.484 272.506 296.284 272.388C288.547 267.76 279.298 268.35 270.592 268.209C260.894 268.055 251.196 268.209 241.498 268.303C231.788 268.398 222.079 268.433 212.369 268.055C207.774 267.878 203.191 267.654 198.596 267.453C195.666 267.323 192.69 267.111 189.748 266.745C191.674 266.544 193.457 266.273 195.43 265.789C195.489 265.777 195.548 265.765 195.607 265.753C199.683 265.151 203.734 264.431 207.786 263.711C211.188 263.227 214.578 262.719 217.909 261.881C218.133 261.822 218.358 261.763 218.57 261.704C221.547 261.137 224.524 260.606 227.524 260.335C232.521 259.886 237.553 259.721 242.538 259.142C244.723 258.883 246.731 258.493 248.834 257.867C251.066 257.195 253.594 257.277 255.909 256.793C260.292 255.872 264.627 254.81 269.08 254.267C273.321 253.759 277.573 253.724 281.672 254.373C282.558 255.152 283.774 255.483 284.92 255.707C285.771 255.872 286.609 255.99 287.448 256.156C288.169 256.474 288.925 256.734 289.681 256.97C290.129 257.112 290.578 257.23 291.039 257.336C292.173 257.903 293.295 258.552 294.382 259.284C297.016 261.067 299.473 263.097 301.658 265.411L301.682 265.387ZM120.079 260.169C118.886 260.087 117.681 260.051 116.488 260.04C113.866 260.004 111.244 260.063 108.621 259.969C107.298 259.922 105.314 260.075 104.097 259.438C103.696 259.225 102.963 258.576 103.011 257.997C103.117 256.722 104.617 257.726 105.385 258.104C105.798 258.34 106.164 258.186 106.365 257.915C106.601 257.643 106.661 257.23 106.33 256.888C105.952 256.51 105.822 256.404 105.373 256.108C105.184 255.99 105.007 255.955 104.841 255.99C104.428 255.754 103.979 255.495 103.53 255.211C104.322 254.385 105.09 253.523 105.786 252.614C106.625 252.886 107.44 253.204 108.255 253.535C108.48 253.641 108.716 253.724 108.94 253.818C109.295 253.972 109.602 253.795 109.755 253.523C109.803 253.464 109.826 253.393 109.85 253.311C109.85 253.299 109.862 253.275 109.862 253.263C109.862 253.263 109.862 253.24 109.862 253.228C109.897 253.11 109.897 252.98 109.862 252.85C109.826 252.697 109.755 252.555 109.614 252.449C109.094 251.906 108.373 251.091 107.546 251.375C107.535 251.375 107.523 251.375 107.511 251.386C107.298 251.304 107.086 251.221 106.885 251.15C107.523 250.347 108.196 249.58 108.881 248.813C110.027 249.12 111.161 249.415 112.271 249.521C112.508 249.616 112.815 249.639 113.193 249.545C113.193 249.545 113.193 249.545 113.205 249.545C113.205 249.545 113.216 249.545 113.228 249.545C113.571 249.45 113.736 249.202 113.748 248.919C113.795 248.683 113.748 248.435 113.535 248.246C113.063 247.833 112.661 247.691 112.354 247.739C111.704 247.514 111.031 247.349 110.358 247.219C112.071 245.425 113.854 243.713 115.65 241.966C116.229 241.399 116.796 240.832 117.351 240.254C117.551 240.313 117.752 240.372 117.953 240.443C123.588 242.355 128.561 246.086 133.534 249.25C134.691 249.993 136.416 251.138 138.14 251.729C132.163 253.677 126.541 256.663 121.06 259.697C120.729 259.886 120.386 260.028 120.056 260.158L120.079 260.169ZM102.125 251.894C102.444 251.752 102.928 251.788 103.436 251.894C103.518 251.918 103.601 251.929 103.684 251.953C103.873 252 104.062 252.047 104.239 252.107C104.239 252.107 104.239 252.118 104.227 252.13C103.625 252.921 102.963 253.629 102.29 254.326C101.227 253.452 100.719 252.531 102.125 251.894ZM100.554 248.376C101.144 248.105 101.747 247.951 102.349 247.857C102.467 247.88 102.573 247.892 102.692 247.904C104.145 248.116 105.621 248.199 107.086 248.341C107.109 248.341 107.133 248.341 107.157 248.352C106.519 249.096 105.916 249.875 105.326 250.666C104.688 250.489 104.05 250.336 103.4 250.194C102.727 250.041 102.054 249.934 101.392 249.745C100.565 249.509 99.1361 249.002 100.565 248.364L100.554 248.376ZM101.286 246.039C99.077 245.342 98.4392 243.288 100.353 241.659C102.621 239.746 105.893 239.404 108.751 239.262C111.067 239.144 113.394 239.298 115.65 239.805C113.252 242.178 110.759 244.48 108.432 246.936C107.984 246.877 107.535 246.841 107.086 246.794C105.775 246.452 104.463 246.18 103.093 246.239C102.857 246.239 102.585 246.263 102.302 246.298C101.947 246.227 101.605 246.145 101.262 246.039H101.286ZM145.866 157.57C145.948 165.267 148.051 173.07 150.378 180.248C152.02 185.336 153.981 190.282 155.115 195.524C156.568 202.265 156.78 208.864 154.819 215.522C152.977 221.767 148.736 226.69 146.125 232.569C144.909 235.319 144.318 238.342 143.728 241.269C143.42 242.792 143.137 244.327 142.794 245.85C142.475 247.266 142.298 249.828 140.763 250.383C138.329 251.268 135.341 248.541 133.474 247.349C130.899 245.696 128.348 243.984 125.69 242.45C123.34 241.092 120.953 239.923 118.485 239.085C120.67 236.76 122.725 234.328 124.686 231.754C127.545 228 130.344 224.14 132.211 219.772C134.018 215.522 135.613 210.989 136.699 206.503C137.845 201.757 139.097 197 140.019 192.218C140.975 187.272 141.578 182.278 142.369 177.308C142.7 175.278 142.511 173.377 142.629 171.347C142.7 170.013 143.113 168.702 143.456 167.416C144.141 164.818 145.003 162.245 145.559 159.612C145.7 158.928 145.795 158.243 145.866 157.546V157.57ZM143.137 250.324C144.46 247.986 144.649 244.634 145.157 242.037C145.759 239.003 146.338 235.862 147.626 233.017C150.094 227.575 153.993 222.959 155.894 217.269C157.761 211.697 158.233 206.042 157.489 200.222C156.768 194.591 155.138 189.244 153.26 183.908C149.575 173.436 145.842 161.43 148.051 150.263C148.075 150.121 148.063 149.979 148.027 149.861C148.11 149.779 148.193 149.684 148.24 149.554C150.319 144.431 153.827 140.063 155.741 134.892C157.016 131.469 157.595 127.88 158.009 124.268C159.651 127.089 161.741 129.426 164.6 131.303C168.959 134.172 174.038 135.789 179.176 136.557C189.559 138.115 200.781 136.746 210.255 132.13C212.593 130.996 214.897 129.686 216.799 127.904C218.63 126.192 220.082 124.126 221.842 122.343C223.508 120.655 224.547 118.731 225.681 116.677C225.894 116.287 226.107 115.898 226.319 115.508C227.252 121.21 228.127 127.101 230.217 132.46C232.403 138.056 236.124 143.061 240.175 147.465C241.108 148.48 242.431 150.499 243.931 150.711C243.931 150.735 243.908 150.758 243.908 150.77C243.494 151.75 243.176 152.801 242.857 153.804C242.195 155.894 242.03 158.054 241.841 160.226C241.451 164.819 241.167 169.269 241.262 173.885C241.297 175.715 241.262 177.556 241.226 179.398C240.825 180.838 240.4 182.278 239.963 183.683C238.651 187.921 237.258 192.077 235.651 196.22C233.974 200.541 233.56 205.204 232.414 209.667C231.458 213.362 230.938 217.848 232.001 221.555C233.005 225.073 235.368 228.047 237.269 231.117C239.384 234.528 241.569 238.247 244.522 241.033C245.042 241.529 245.609 241.93 246.211 242.273C245.443 242.414 244.664 242.662 243.861 243.064C240.152 244.882 237.21 248.506 234.411 251.434C232.922 252.992 231.328 254.515 229.52 255.707C228.753 256.215 228.197 256.25 227.394 256.498C226.355 256.817 225.374 257.549 224.382 258.009C222.445 258.895 220.46 259.579 218.441 260.134C215.452 260.689 212.475 261.291 209.499 261.81C208.412 261.999 207.325 262.188 206.25 262.365C203.191 262.79 200.143 263.192 197.143 263.805C196.954 263.841 196.777 263.888 196.588 263.923C195.454 264.101 194.308 264.278 193.174 264.455C189.737 264.986 186.299 265.293 182.85 265.517C179.176 264.596 175.668 263.156 172.254 261.527C170.293 260.594 168.344 259.815 166.951 258.092C165.828 256.711 165.132 255.022 163.962 253.677C159.296 248.27 149.846 249.037 143.586 250.3C143.42 250.336 143.267 250.371 143.102 250.407C143.113 250.383 143.137 250.359 143.149 250.324H143.137ZM155.138 100.362C155.245 100.303 155.351 100.244 155.493 100.22C155.54 100.22 155.575 100.208 155.599 100.197C155.623 100.197 155.646 100.208 155.67 100.22C156.296 100.374 156.627 100.799 156.91 101.342C157.725 102.9 157.808 104.919 157.867 106.642C158.009 110.503 157.643 114.41 157.087 118.235C156.615 116.334 156.32 114.375 155.847 112.486C155.056 109.275 152.882 103.478 155.115 100.374L155.138 100.362ZM226.863 109.357C226.367 106.666 225.835 103.974 225.15 101.33C224.618 99.264 224.051 97.2217 223.343 95.2384C228.327 96.9856 227.749 104.801 226.863 109.357ZM242.774 172.468C242.715 169.434 242.703 166.412 243.046 163.402C243.353 160.71 243.388 157.877 244.05 155.256C244.321 154.182 244.699 153.096 245.089 152.045C245.03 153.627 244.912 155.197 244.676 156.732C244.333 158.904 244.321 161.076 243.943 163.26C243.577 165.432 243.305 167.581 243.105 169.777C243.022 170.674 242.904 171.571 242.762 172.457L242.774 172.468ZM253.133 245.637C255.094 246.664 257.161 246.723 259.252 246.57C261.071 247.089 262.914 247.443 264.816 247.314C266.658 247.195 267.934 247.337 269.682 247.951C271.159 248.47 272.754 248.836 274.289 249.167C274.525 249.214 274.762 249.261 275.01 249.297C275.659 249.521 276.333 249.722 277.006 249.875C277.325 249.946 277.632 250.041 277.951 250.017C277.998 250.017 278.069 249.993 278.14 249.97C279.097 250.383 279.51 250.985 279.912 252C279.971 252.166 280.006 252.331 280.054 252.496C272.494 251.705 264.839 253.134 257.48 254.822C255 255.388 252.602 255.601 250.098 255.943C248.94 256.097 247.877 256.569 246.755 256.876C245.136 257.313 243.447 257.466 241.793 257.643C236.478 258.222 231.092 258.21 225.788 258.918C226.39 258.588 227.004 258.269 227.607 258.104C228.434 257.867 228.942 257.867 229.733 257.407C233.856 254.975 236.702 250.973 240.199 247.798C241.959 246.204 243.695 244.492 246.07 243.878C248.845 243.158 250.771 244.409 253.11 245.637H253.133ZM280.148 252.095C279.959 252.354 280.148 252.319 280.148 252.095V252.095ZM277.809 248.234C277.585 248.175 277.36 248.116 277.136 248.081C276.474 247.951 275.813 247.845 275.163 247.727C274.561 247.514 273.97 247.29 273.368 247.054C271.242 246.216 269.139 245.248 266.883 244.811C264.544 244.362 262.111 244.823 259.713 245.023C259.347 244.905 258.992 244.799 258.626 244.681C256.665 244.079 254.728 243.406 252.755 242.875C250.889 242.367 248.893 242.013 247.18 241.08C243.624 239.133 241.226 234.528 239.147 231.188C237.163 228.012 234.564 224.813 233.525 221.177C232.296 216.856 233.513 212.181 234.529 207.967C235.049 205.795 235.297 203.563 235.757 201.379C236.242 199.077 237.069 196.929 237.954 194.757C239.242 191.581 240.27 188.287 241.25 184.994C241.286 186.021 241.345 187.036 241.439 188.051C241.912 192.632 242.927 197.2 243.613 201.757C244.853 209.903 245.467 218.863 249.826 226.1C251.763 229.322 254.563 231.99 257.35 234.493C260.173 237.031 263.186 239.439 266.505 241.293C269.73 243.099 273.25 244.02 276.25 246.263C277.077 246.889 277.951 247.42 278.612 248.14C278.329 248.187 278.069 248.223 277.821 248.246L277.809 248.234ZM284.672 251.174C284.696 248.246 289.964 247.16 292.079 246.334C294.559 245.354 297.016 244.315 299.39 243.134C298.268 245 297.571 247.172 297.099 249.273C296.449 252.177 296.744 256.191 292.622 256.049C292.409 256.049 292.173 256.014 291.913 255.99C291.866 255.967 291.83 255.955 291.783 255.931C289.94 255.011 288.039 254.243 286.113 253.677C285.239 252.98 284.649 252.142 284.66 251.186L284.672 251.174ZM305.887 244.374C305.911 245.909 305.45 247.325 305.096 248.801C304.411 251.622 304.044 254.574 302.769 257.195C302.674 256.463 302.367 255.707 302.332 254.975C302.261 253.075 303.206 250.902 303.761 249.108C304.375 247.136 305.001 245.035 305.769 243.016C305.84 243.465 305.887 243.925 305.887 244.386V244.374ZM304.481 240.466C304.718 240.49 304.895 240.62 305.048 240.856C304.753 241.623 304.47 242.391 304.186 243.123C302.958 246.322 301.859 249.616 301.068 252.945C300.725 254.373 300.631 256.663 301.233 258.257C299.201 258.104 297.181 257.69 295.221 257.112C295.469 256.994 295.717 256.864 295.965 256.699C298.386 255.081 298.044 252.225 298.611 249.686C299.225 246.924 300.3 243.477 302.568 241.494C303.182 241.187 303.855 240.844 304.481 240.466ZM308.084 238.164C308.545 237.421 309.135 236.63 309.927 236.205C311.285 235.485 312.644 236.205 312.833 237.716C312.892 238.2 312.939 238.684 312.963 239.18C312.738 239.853 312.526 240.502 312.313 241.08C310.612 245.791 309.395 250.654 308.616 255.601C308.521 256.191 309.147 256.923 309.762 256.474C311.781 255.011 312.644 252.862 313.246 250.513C314.108 247.207 314.534 243.76 314.51 240.348C314.51 240.124 314.51 239.888 314.51 239.628C314.616 239.357 314.723 239.085 314.829 238.814C315.124 238.07 315.609 236.099 316.329 235.52C318.751 233.572 318.396 240.443 318.337 241.399C317.865 249.804 312.88 257.738 303.95 258.281C305.037 256.215 305.568 253.936 306.052 251.658C306.584 249.179 307.529 246.652 307.435 244.091C307.399 243.288 307.222 241.812 306.773 240.62C307.175 239.77 307.6 238.944 308.084 238.164ZM312.75 244.669C312.514 247.373 312.089 250.914 310.588 253.334C311.144 250.407 311.864 247.514 312.75 244.669ZM236.608 101.259C241.734 103.573 247.074 102.038 252.354 103.195C253.795 103.514 255.153 103.774 256.441 104.529C257.468 105.131 258.342 105.84 259.441 106.324C260.811 106.926 262.04 107.61 263.186 108.602C264.32 109.582 264.993 111.057 265.855 112.285C268.82 116.523 269.399 121.918 270.19 126.9C271.289 133.865 270.698 141.149 270.698 148.173V168.962C270.745 181.322 267.119 193.753 269.552 206.066C270.155 209.088 271.123 212.075 272.565 214.802C273.923 217.387 276.073 219.43 277.797 221.755C281.117 226.253 283.243 231.908 287.802 235.343C289.728 236.795 291.972 237.799 294.382 238.046C297.406 238.365 300.17 236.972 303.135 237.031C303.442 237.031 305.462 237.35 305.474 237.433C305.533 237.893 304.151 238.625 303.796 238.849C303.182 239.062 302.591 239.463 302.048 239.924C301.186 240.431 300.3 240.927 299.414 241.387C296.496 242.898 293.461 244.15 290.389 245.33C287.342 246.499 281.046 248.919 283.585 253.039C283.231 252.968 282.889 252.909 282.534 252.85C282.144 252.378 281.884 251.8 281.66 251.186C281.436 250.005 280.821 248.671 280.538 248.116C279.581 246.251 277.171 244.893 275.447 243.796C272.47 241.895 269.009 241.045 265.997 239.192C262.347 236.937 259.039 234.092 255.992 231.081C252.98 228.106 250.594 224.954 249.082 220.976C247.558 216.986 246.873 212.748 246.211 208.545C245.432 203.622 244.735 198.676 243.908 193.753C243.506 191.38 243.01 189.019 242.868 186.599C242.727 184.203 242.809 181.806 242.845 179.41C243.695 176.258 244.392 173.035 244.676 169.8C244.888 167.498 245.184 165.244 245.585 162.965C245.999 160.604 246.034 158.219 246.4 155.847C246.778 153.438 246.79 150.995 246.826 148.539C247.381 147.547 247.806 146.426 248.208 145.541C248.999 143.829 249.625 142.082 250.086 140.252C250.511 138.587 251.55 135.223 249.507 134.16C247.936 133.346 247.014 135.128 246.601 136.344C245.325 140.075 245.231 144.041 245.172 148.008C245.172 148.031 245.148 148.055 245.148 148.091C245.125 148.161 245.101 148.244 245.077 148.315C245.042 148.362 244.995 148.397 244.959 148.433C243.365 149.743 241.994 147.182 241.061 146.166C239.254 144.207 237.588 142.105 236.064 139.909C233.962 136.864 232.119 133.617 231.021 130.076C230.087 127.042 229.461 123.913 228.871 120.809C228.375 118.211 227.938 115.602 227.501 112.994C227.701 112.462 227.879 111.931 228.02 111.376C229.024 107.386 229.851 100.48 227.312 96.478C227.902 96.7731 228.481 97.0564 229.072 97.3516C231.611 98.6147 234.045 100.114 236.62 101.283L236.608 101.259ZM246.932 144.596C246.967 144.018 247.014 143.427 247.074 142.849C247.298 140.771 247.416 138.575 248.16 136.592C248.184 136.533 248.574 135.471 248.727 135.482C249.412 135.565 249.082 137.407 249.034 137.737C248.81 139.284 248.373 140.866 247.853 142.33C247.581 143.097 247.274 143.841 246.944 144.573L246.932 144.596ZM219.539 43.8502C219.976 45.4321 219.374 47.2265 218.759 48.6785C218.098 50.2368 217.2 51.7007 216.208 53.0701C215.806 53.6367 215.015 54.8881 214.483 55.1242C214.259 55.2187 214.129 55.3839 214.094 55.561C214.07 55.561 214.035 55.5846 214.011 55.5846C214.011 55.561 214.011 55.5492 214.011 55.5256C214.129 51.4174 213.562 47.6043 215.003 43.6259C215.027 43.5433 215.062 43.4724 215.098 43.4016C215.346 43.0592 215.582 42.7051 215.806 42.4572C216.456 41.7489 216.976 41.2767 217.933 41.7607C218.748 42.1739 219.315 42.9648 219.551 43.8266L219.539 43.8502ZM160.017 35.1733C159.698 33.0838 160.182 30.9353 160.572 28.893C161.257 25.3278 161.552 21.8807 163.159 18.5516C164.789 15.1517 167.116 12.0823 169.868 9.49694C172.538 6.99423 175.668 4.90471 179.224 3.90127C182.921 2.8506 186.866 1.74089 190.741 1.59923C194.143 1.48118 197.887 2.40202 201.195 3.21658C202.895 3.64157 204.62 4.1846 206.049 5.23526C207.361 6.19149 208.034 7.71437 209.581 8.37546C210.16 8.62337 210.786 8.6706 211.365 8.8949C212.381 9.29627 213.16 10.2053 213.905 10.9844C215.05 12.2004 216.043 13.5462 216.763 15.0572C218.086 17.8079 218.381 20.9008 218.795 23.8875C219.527 29.1645 219.551 35.4449 215.984 39.8837C215.357 40.6628 214.483 41.2649 213.952 42.1266C213.869 41.926 213.692 41.619 213.739 41.9023C213.586 40.8989 213.881 38.3844 213.857 36.8969C213.81 33.0838 212.7 29.6485 211.105 26.2132C209.569 22.9077 207.431 19.2009 204.136 17.3711C200.781 15.5058 198.159 17.0759 195.064 18.5634C190.741 20.6411 186.217 22.2584 181.858 24.2535C177.381 26.2958 173.188 28.7159 170.435 32.9422C168.971 35.197 168.12 37.8413 167.907 40.5093C167.707 43.1183 168.262 45.68 168.545 48.2536C168.061 47.9584 167.565 47.7341 167.163 47.6161C166.62 47.4508 166.112 47.5571 165.84 47.8522C165.746 47.7578 165.628 47.6987 165.45 47.6751C163.596 47.4154 163.348 45.3022 162.864 43.8148C162.379 42.3037 161.859 40.8045 161.352 39.317C160.891 37.9712 160.206 36.59 159.993 35.1733H160.017ZM165.013 51.016C165.013 50.6382 164.943 50.2959 164.836 49.9889C165.202 49.7292 165.699 49.5521 166.36 49.5049C166.419 49.6112 166.514 49.7056 166.643 49.7882C167.789 50.4611 168.285 51.7951 169.124 52.7986C170.376 54.2979 171.298 55.8325 171.983 57.6505C172.55 59.138 172.821 60.6609 173.105 62.2074C172.372 62.2074 171.593 62.3136 170.896 62.1601C167.931 61.499 166.49 59.3623 165.261 56.7533C165.037 56.2929 164.801 55.7499 164.588 55.1832C164.718 53.802 165.025 52.4208 165.013 51.0278V51.016ZM169.112 78.8764C166.325 77.9792 165.108 74.898 163.643 72.655C162.178 70.4002 162.864 66.7287 163.171 64.2024C163.383 62.5261 163.265 60.838 163.643 59.1734C163.749 58.7248 163.879 58.2998 164.021 57.863C165.238 60.4602 167.081 62.7268 169.975 63.5059C170.648 63.683 171.368 63.8483 172.065 63.8837C172.573 63.9191 173.046 63.7657 173.471 63.8247C173.778 64.9226 174.192 65.9614 174.558 67.0475C175.101 68.6412 175.515 70.2704 175.633 71.9467C175.668 72.4307 175.633 72.9383 175.727 73.4224C175.845 74.0362 176.259 74.6265 176.33 75.2286C176.708 78.2861 171.262 79.5493 169.124 78.8646L169.112 78.8764ZM164.718 95.7579C166.596 95.1558 168.51 94.5537 170.187 93.4913C172.302 92.1337 173.896 89.9497 175.314 87.8956C176.849 85.6644 177.487 82.9846 177.995 80.352C178.255 78.9826 178.479 77.6014 178.68 76.2202C178.81 75.3112 179.082 74.3077 178.775 73.4105C178.361 72.2064 177.381 71.5453 177.192 70.1877C177.027 69.0544 177.015 68.0392 176.719 66.9177C176.365 65.5719 176.093 63.7066 174.959 62.7386C174.888 62.6796 174.818 62.6206 174.735 62.5733C174.097 59.9644 173.719 57.3318 172.432 54.8527C171.687 53.4243 170.624 52.3382 169.715 51.0396C170.01 50.9451 170.258 50.6973 170.246 50.3195C170.199 47.8994 169.632 45.5501 169.467 43.1419C169.266 40.2142 169.786 37.2511 171.215 34.6657C173.294 30.8999 176.767 28.4562 180.523 26.5909C184.374 24.6785 188.402 23.1438 192.359 21.4675C193.918 20.8064 195.477 20.1335 196.978 19.3543C198.678 18.4689 200.214 17.619 202.187 18.221C205.565 19.2481 207.774 23.0376 209.262 25.9889C210.822 29.07 212.133 32.4463 212.274 35.9289C212.345 37.7115 212.215 39.4941 212.251 41.2648C212.251 41.7134 212.298 42.1385 212.381 42.5752C212.404 42.7051 212.475 42.7405 212.499 42.835C212.475 42.8468 212.475 42.9176 212.511 43.0475C212.57 43.5197 212.759 44.0155 213.113 44.2634C212.995 44.712 212.889 45.1488 212.782 45.562C211.778 49.5521 212.889 53.6486 212.239 57.6623C212.085 58.595 211.932 59.504 211.755 60.4012C211.14 61.9595 210.574 63.565 210.101 65.1941C209.723 65.8198 209.298 66.41 208.825 66.9649C207.301 68.7239 205.317 70.1759 203.451 71.5335C203.451 71.5335 203.451 71.5335 203.439 71.5335C202.931 71.7578 202.423 71.9703 201.891 72.1592C198.69 73.2925 195.182 71.7696 192.087 70.9668C190.634 70.5891 186.594 69.1252 185.697 71.203C185.283 72.171 186.122 72.7849 186.583 73.5522C187.315 74.7917 187.492 75.9959 188.815 76.7986C191.331 78.3451 194.343 77.3653 196.942 76.6216C199.659 75.8424 201.915 74.5556 204.159 72.9383C204.868 72.6196 205.577 72.289 206.297 72.0411C207.172 71.746 208.152 71.4627 208.849 70.896C208.849 71.2856 208.884 71.6752 208.943 72.0765C208.884 73.9182 209.073 75.748 209.593 77.5306C210.29 79.9506 211.578 82.2173 213.125 84.1887C215.216 86.8685 217.59 89.6782 220.26 91.9684C223.543 98.3078 224.618 105.84 225.847 112.805C225.847 112.805 225.847 112.816 225.847 112.828C225.611 113.43 225.339 114.021 225.032 114.599C224.051 116.476 223.095 118.625 221.701 120.23C218.748 123.63 215.83 127.242 211.885 129.509C203.486 134.326 193.41 136.073 183.807 135.494C175.16 134.975 164.765 132.248 159.922 124.433C159.355 123.512 158.788 122.556 158.304 121.564C158.458 120.065 158.611 118.566 158.8 117.078C159.367 112.663 159.851 107.988 159.143 103.549C158.918 102.18 158.576 100.586 157.56 99.5473C157.264 99.2522 156.934 99.0043 156.544 98.8508C159.225 97.7175 161.919 96.6314 164.694 95.746L164.718 95.7579ZM199.21 74.1189C198.371 74.5084 197.485 74.8508 196.54 75.1223C195.076 75.5473 193.481 76.1021 191.945 76.0785C189.784 76.0431 189.051 74.8036 188.083 73.0446C187.835 72.5842 187.244 72.1592 187.917 71.7342C188.284 71.4981 189.618 71.9703 189.996 72.0647C191.378 72.3835 192.737 72.7848 194.107 73.1744C195.702 73.6348 197.474 74.0716 199.21 74.1306V74.1189ZM95.0372 232.888C95.8168 230.326 96.8681 227.847 97.6241 225.285C98.321 222.912 98.8054 220.48 99.7267 218.166C101.499 213.68 104.877 209.915 107.57 205.972C110.334 201.946 112.141 197.968 113.075 193.163C114.185 187.437 114.941 181.653 115.803 175.88C116.89 168.608 118.437 161.596 120.363 154.524C122.265 147.536 122.784 140.323 124.131 133.228C124.84 129.544 125.407 125.944 125.749 122.202C126.115 118.152 126.73 113.891 129.104 110.467C130.439 108.543 132.293 106.949 134.372 105.875C136.711 104.659 139.251 104.647 141.779 104.163C144.377 103.667 146.881 102.546 149.374 101.696C150.768 101.224 152.126 100.692 153.485 100.149C152.173 102.723 152.859 106.158 153.425 108.85C153.957 111.364 154.654 113.843 155.197 116.37C155.587 118.188 155.906 119.876 156.65 121.588C156.024 126.593 155.682 131.551 153.52 136.273C151.606 140.453 148.925 144.159 147.082 148.386C147.011 148.445 146.952 148.515 146.905 148.61C145.192 151.809 144.755 154.914 144.212 158.432C143.834 160.828 143.007 163.189 142.369 165.527C141.649 168.207 141.034 170.591 141.117 173.377C141.2 175.833 140.668 178.241 140.326 180.661C139.959 183.27 139.605 185.879 139.133 188.476C137.514 197.413 135.364 206.302 132.388 214.873C129.328 223.691 123.729 231.542 117.256 238.224C117.126 238.353 116.996 238.495 116.866 238.625C114.504 237.976 112.047 237.633 109.448 237.704C106.46 237.787 103.365 238.129 100.766 239.605C98.8644 240.691 96.8563 242.603 97.695 245.047C98.0257 245.991 98.7227 246.629 99.5613 247.054C99.077 247.314 98.6636 247.644 98.4156 248.081C97.5887 249.486 98.8762 250.466 100.069 250.961C99.9157 251.115 99.7858 251.28 99.6676 251.493C98.8054 253.075 99.7385 254.409 101.132 255.495C100.624 256.002 100.128 256.51 99.644 257.053C98.5337 258.292 97.3288 259.532 96.3956 260.913C96.1358 261.303 95.8877 261.846 95.5924 262.294C94.6474 262.082 94.2812 260.181 93.9505 259.449C93.6079 258.682 93.2181 257.997 92.5094 257.513C90.4659 256.132 87.3356 256.451 85.8354 254.255C85.3866 253.594 85.0204 252.909 84.6542 252.236C91.1155 247.975 92.911 239.876 95.0372 232.899V232.888ZM75.4642 249.403C77.6613 249.202 79.7403 249.049 81.5594 250.572C83.1186 251.87 83.4966 253.688 84.6306 255.235C85.7409 256.758 87.4773 257.313 89.2019 257.856C90.2532 258.186 91.4817 258.422 92.1786 259.331C92.6984 260.016 92.8756 260.984 93.2299 261.763C93.4426 262.247 93.6788 262.649 93.9623 262.979C93.6197 262.802 93.2772 262.471 92.8283 262.259C91.2218 261.48 89.4736 261.291 87.7608 261.492C87.0048 261.527 86.237 261.669 85.4929 261.893C84.8786 262.082 84.2762 262.33 83.6974 262.637C83.473 262.731 83.2485 262.837 83.0359 262.944C82.398 263.262 81.7366 263.746 81.1223 264.337C81.6539 262.153 81.205 259.981 80.071 257.974C78.5709 255.329 76.8935 256.651 75.5469 258.93C75.2162 257.679 74.9445 255.754 74.0113 254.893C72.0623 253.086 69.4517 255.778 68.9084 257.572C68.8257 257.844 68.7666 258.115 68.7076 258.399C68.6721 258.139 68.6485 257.867 68.6012 257.608C68.5186 257.065 68.2705 256.238 67.8807 255.518C68.9911 255.14 69.9597 254.479 70.9992 253.736C72.4639 252.685 74.3775 251.327 74.7791 249.45C75.0035 249.45 75.2398 249.439 75.476 249.415L75.4642 249.403ZM76.9526 275.127C76.7399 275.103 76.5155 275.009 76.2793 274.867C75.9603 274.513 75.7123 274.171 75.5587 273.722C75.9485 272.896 76.232 272.022 76.4564 271.278C77.1416 269.012 77.4959 266.769 77.0234 264.443C76.7754 263.239 76.4564 262.058 76.1139 260.878C76.8108 259.237 77.6259 257.891 78.3346 258.186C79.0906 258.493 79.7166 261.197 79.8348 261.987C80.0592 263.569 79.1851 265.317 78.5945 266.745C78.0865 267.973 77.3778 269.236 77.1179 270.546C76.9998 271.137 77.5195 272.978 77.5904 274.123C77.425 274.536 77.2242 274.879 76.9644 275.115L76.9526 275.127ZM75.665 267.512C75.5823 268.303 75.4052 269.496 75.0862 270.712C75.0862 270.688 75.0862 270.652 75.0862 270.629C74.8736 269.082 74.4129 267.359 74.5901 265.789C74.6373 265.399 74.8854 264.384 75.2516 263.227C75.606 264.667 75.8186 266.119 75.665 267.512ZM73.0427 265.694C72.9246 266.863 73.1844 268.091 73.338 269.248C73.4797 270.239 73.5624 271.255 73.6687 272.246C73.2553 271.703 72.9127 271.219 72.7356 270.948C71.3771 268.905 70.7747 266.462 70.4085 264.077C70.1723 262.53 69.9833 260.925 70.1487 259.355C70.2432 258.469 70.4322 257.289 71.1055 256.64C72.6883 255.093 73.2199 256.663 73.6215 257.95C73.905 258.871 74.2475 259.851 74.5783 260.842C73.716 262.79 73.1372 264.844 73.0545 265.671L73.0427 265.694ZM67.6208 266.391C67.4436 267.642 67.1483 268.894 66.7703 270.086C66.7113 270.263 66.664 270.44 66.605 270.641C66.038 269.484 65.5655 268.292 65.093 267.3C64.3606 265.753 63.8055 264.408 63.9236 262.649C64.0063 261.539 64.2779 260.441 64.6323 259.379C64.7386 259.072 65.8135 255.861 66.2742 255.825C67.4673 255.754 67.7153 265.682 67.6208 266.379V266.391ZM64.4197 253.653C64.1716 252.803 66.6877 250.619 67.3728 249.993C67.8925 249.521 68.5068 249.191 69.1801 249.002C69.7116 248.931 70.2432 248.931 70.6684 248.99C71.448 249.096 72.1922 249.238 72.9482 249.332C72.9836 249.344 73.0191 249.356 73.0427 249.379C73.4089 249.474 73.4325 249.521 73.1372 249.533C73.1372 249.899 72.5111 250.407 72.2749 250.654C71.6606 251.304 70.9283 251.87 70.2077 252.39C69.1328 253.169 68.0224 254.031 66.6995 254.243C66.3569 254.09 65.9789 254.102 65.5655 254.349C65.341 254.349 65.1166 254.35 64.904 254.302C64.7386 254.09 64.5024 253.936 64.4315 253.665L64.4197 253.653ZM64.1834 271.597C63.1794 270.511 62.258 269.13 61.5021 267.843C60.4508 266.048 60.5807 263.735 60.9587 261.751C61.3839 259.508 62.4943 258.045 64.0063 256.451C63.5338 257.513 63.1912 258.706 62.9432 259.556C62.4234 261.291 62.1163 263.227 62.5061 265.021C63.0495 267.489 64.526 269.98 65.8135 272.211C65.2229 272.766 64.7622 272.223 64.1716 271.597H64.1834ZM71.3181 275.068C69.7116 274.843 68.554 273.805 67.6445 272.471C68.4595 270.936 68.7784 268.776 69.0147 267.442C69.0974 267.005 69.1446 266.58 69.1919 266.143C69.2509 266.414 69.3218 266.686 69.3809 266.946C70.0424 269.578 71.4008 272.282 73.3734 274.3C72.8182 274.867 72.145 275.174 71.3181 275.068ZM79.2914 273.309C79.5395 271.715 79.4686 270.027 80.1065 268.575C80.8034 267.005 82.0673 265.505 83.6029 264.443C83.8628 264.301 84.1226 264.16 84.4061 264.03C85.7882 263.416 87.4655 262.979 89.1192 263.003C89.2137 263.026 89.3201 263.038 89.4146 263.062C91.151 263.463 93.7142 264.986 93.7142 267.028C93.7142 268.386 92.4858 269.496 91.2455 270.263C90.6076 270.511 90.0052 270.782 89.4972 271.125C89.4382 271.172 89.3791 271.207 89.3201 271.255C88.3987 271.632 87.4419 271.892 86.5442 272.376C85.1503 273.143 83.8273 274.111 82.339 274.702C80.7325 275.327 79.693 274.655 79.2914 273.32V273.309ZM108.775 263.144C104.676 264.514 100.613 266.037 96.6909 267.866C96.0413 268.173 95.3916 268.48 94.7419 268.787C95.3562 267.583 95.427 266.226 94.612 264.868C94.7892 264.868 94.9663 264.844 95.1672 264.774C96.3484 264.36 97.0217 262.814 97.6477 261.858C98.7109 260.252 100.01 258.847 101.357 257.466C101.357 257.738 101.404 258.056 101.522 258.434C102.668 262.306 107.948 261.562 111.149 261.598C112.13 261.598 113.122 261.598 114.114 261.598C112.319 262.035 110.547 262.566 108.787 263.156L108.775 263.144ZM143.137 269.684C138.719 267.701 134.786 264.797 130.451 262.649C128.088 261.48 125.572 260.831 123.009 260.465C123.399 260.228 123.777 259.992 124.155 259.792C125.986 258.8 127.816 257.832 129.695 256.923C133.368 255.129 137.172 253.547 141.117 252.472C147.803 250.666 159.166 249.013 163.608 255.872C164.411 257.112 165.108 258.422 166.112 259.532C167.423 260.984 169.089 261.728 170.837 262.566C173.282 263.746 175.763 264.844 178.326 265.753C177.818 265.777 177.322 265.801 176.814 265.836C172.113 266.072 167.766 267.512 163.194 268.563C158.481 269.649 153.685 270.605 148.925 271.715C146.941 271.16 145.003 270.511 143.149 269.673L143.137 269.684ZM178.338 267.323C175.869 268.091 173.53 269.082 171.179 270.57C168.616 272.199 166.065 273.864 163.431 275.41C161.966 274.926 160.418 274.607 158.977 274.23C156.792 273.663 154.548 273.167 152.315 272.624C153.201 272.423 154.075 272.234 154.949 272.034C159.745 270.959 164.742 270.169 169.431 268.705C172.349 267.796 175.326 267.512 178.338 267.347V267.323ZM159.202 277.7C154.808 279.849 150.083 281.183 145.37 282.434C140.904 283.615 136.416 284.701 132.045 286.224C129.943 286.956 127.958 287.959 125.879 288.75C124.769 289.175 123.765 289.021 122.69 289.376C121.91 289.635 121.178 290.155 120.446 290.533C118.449 291.571 116.028 292.846 113.712 292.173C112.13 291.713 112.992 291.371 113.831 290.627C114.657 289.895 115.508 289.187 116.358 288.478C119.819 285.622 123.469 282.977 127.403 280.805C134.124 277.098 141.696 275.068 149.209 273.332C150.283 273.627 151.358 273.911 152.457 274.194C154.855 274.808 157.253 275.386 159.639 276.024C160.253 276.189 160.867 276.354 161.482 276.52C160.726 276.933 159.97 277.334 159.19 277.712L159.202 277.7ZM270.32 300.449C250.287 300.414 230.324 300.496 210.715 295.821C201.265 293.566 192.654 289.069 183.984 284.807C179.424 282.576 174.888 280.297 170.317 278.102C169.656 277.783 169.183 277.618 168.474 277.476C167.388 277.252 166.584 276.827 165.616 276.307C165.486 276.236 165.356 276.177 165.226 276.118C167.896 274.489 170.506 272.754 173.188 271.125C176.412 269.177 180.228 268.032 184.043 267.382C191.532 268.988 199.352 268.905 206.947 269.33C216.149 269.85 225.374 269.944 234.6 269.897C244.794 269.85 255 269.637 265.194 269.696C270.32 269.72 275.459 269.814 280.585 270.027C285.818 270.239 290.59 270.9 295.173 273.545C295.197 273.745 295.315 273.934 295.563 274.064C297.028 274.773 298.256 275.469 299.379 276.661C300.43 277.783 301.729 278.633 302.769 279.754C304.812 281.962 306.029 285.267 306.442 288.313C305.651 289.683 304.706 290.981 303.619 292.185C301.292 294.759 298.54 296.896 295.634 298.796C295.268 298.914 294.984 299.103 294.807 299.327C294.299 299.646 293.791 299.965 293.272 300.272C293.224 300.296 293.177 300.331 293.142 300.366C285.534 300.425 277.916 300.449 270.308 300.437L270.32 300.449Z" fill="#D3DEF2"/>
</svg>
