<svg width="276" height="281" viewBox="0 0 276 281" fill="none" xmlns="http://www.w3.org/2000/svg">
<path d="M271.076 178.042C269.616 175.972 268.626 173.792 268.296 171.262C268.026 169.212 267.496 167.352 266.276 165.652C263.766 162.152 259.896 160.212 255.706 159.602C254.276 159.392 252.666 158.962 251.576 160.172C250.906 160.922 250.246 162.632 250.346 163.642C250.456 164.712 251.656 166.202 252.056 167.192C252.556 168.432 252.946 169.712 253.236 171.012C253.836 173.672 253.996 176.392 253.916 179.102C252.526 178.972 251.316 178.372 250.016 177.872C248.746 177.392 247.366 177.232 246.066 176.802C243.176 175.862 240.176 175.282 237.286 174.312C231.596 172.402 226.126 169.882 220.156 168.992C218.706 168.782 217.286 168.452 215.846 168.212C214.496 167.992 213.156 168.072 211.806 167.952C208.646 167.662 205.676 166.492 202.586 165.882C200.786 165.522 198.936 165.262 197.126 164.862C196.276 164.642 195.426 164.412 194.576 164.162C194.306 164.072 194.036 163.982 193.766 163.882C191.796 163.112 191.026 161.372 188.776 161.202C187.766 161.132 186.696 161.052 185.686 161.092C184.316 161.142 183.076 161.642 181.686 161.552C180.766 161.492 179.866 161.392 178.966 161.262C178.816 160.852 178.606 160.472 178.276 160.132C176.916 158.722 174.626 158.732 172.816 158.892C171.676 158.992 170.536 159.192 169.406 159.402C168.026 158.962 166.726 158.342 165.516 157.352C164.636 156.632 164.066 155.712 163.256 154.942C162.486 154.212 161.466 153.772 160.496 153.382C160.486 153.382 160.476 153.382 160.456 153.372C160.356 150.782 160.086 148.162 160.166 145.582C160.256 142.722 162.876 139.782 164.446 137.502C166.056 135.162 167.676 132.852 169.276 130.512C170.896 128.142 172.676 125.512 174.796 123.552C176.556 121.912 178.736 121.162 181.026 120.592C183.386 120.002 185.736 119.232 188.126 118.832C193.496 117.942 198.656 116.222 203.786 114.442C208.986 112.632 214.076 110.432 218.656 107.342C219.766 106.592 220.786 105.672 221.916 104.962C223.086 104.222 224.476 103.932 225.776 103.542C228.246 102.792 230.426 101.472 232.686 100.272C235.116 98.982 237.846 98.482 240.186 97.012C242.326 95.662 244.196 93.942 246.386 92.662C248.936 91.182 251.576 89.822 254.046 88.212C255.146 87.492 256.266 86.822 257.446 86.232C258.736 85.602 260.046 85.382 261.396 84.952C263.456 84.292 265.706 83.362 267.466 82.102C270.686 79.802 270.606 75.892 271.356 72.362C271.826 70.152 272.616 68.002 273.106 65.792C273.656 63.342 273.656 60.622 273.546 58.112C273.516 57.442 273.286 56.042 272.656 55.442C273.226 53.712 273.306 52.162 273.246 50.332C273.206 49.042 273.386 47.442 272.096 46.652C271.196 46.102 270.266 46.532 269.766 47.392C269.716 47.482 269.676 47.562 269.636 47.652C269.556 47.582 269.456 47.522 269.346 47.472C268.086 46.902 267.266 48.552 266.876 49.452C265.996 51.462 265.416 53.582 264.686 55.642C264.186 57.052 263.596 58.432 263.036 59.822C262.606 60.912 262.316 62.102 261.736 63.122C260.126 65.982 257.316 68.032 256.186 71.162C255.876 72.022 255.646 73.022 255.116 73.772C254.506 74.642 253.456 75.372 252.596 75.942C250.746 77.172 248.676 78.002 246.566 78.652C241.696 80.172 236.616 80.902 231.656 82.022C228.936 82.632 226.226 83.332 223.596 84.262C221.006 85.172 218.746 86.552 216.356 87.902C211.216 90.812 205.486 92.702 199.836 94.362C193.726 96.152 187.466 97.252 181.326 98.902C179.156 99.482 177.066 100.222 174.996 101.052C175.996 100.092 176.506 98.952 177.106 97.482C177.936 95.452 178.066 93.352 179.116 91.392C179.606 90.482 180.056 89.622 180.256 88.612C180.346 88.142 180.386 87.662 180.496 87.192C180.536 87.022 180.566 86.882 180.596 86.782C180.676 86.732 180.746 86.652 180.796 86.552C180.816 86.512 180.836 86.462 180.846 86.422C180.966 86.372 181.156 86.362 181.476 86.332C183.176 86.152 185.036 85.122 185.336 83.272C185.686 81.112 183.246 79.882 181.866 78.702C179.956 77.062 178.086 75.372 176.086 73.842C172.336 70.992 168.056 68.932 163.236 69.672C161.996 69.862 160.706 70.182 159.566 70.712C158.306 71.282 157.366 72.342 156.146 72.972C154.096 74.042 152.386 74.572 151.026 76.592C150.016 78.092 149.046 79.842 148.616 81.612C148.066 83.832 147.846 86.132 147.326 88.362C146.916 90.102 146.936 91.932 146.396 93.642C145.176 97.542 140.646 95.222 138.356 93.742C136.846 92.772 135.426 91.682 133.826 90.862C132.416 90.132 130.936 89.672 129.436 89.162C126.126 88.032 124.186 85.052 121.856 82.622C119.516 80.182 116.986 78.922 113.986 77.452C111.216 76.092 108.596 74.052 106.326 71.972C106.306 71.952 106.276 71.932 106.256 71.912C105.396 70.762 104.606 69.952 103.436 69.102C101.746 67.892 100.376 66.272 99.0061 64.732C96.3761 61.782 93.1761 59.422 90.5461 56.472C89.1961 54.952 87.8961 53.582 86.6961 51.912C85.6461 50.452 84.4961 49.052 83.2661 47.732C80.8861 45.182 78.2161 42.942 75.5061 40.772C72.7361 38.562 69.8761 36.452 67.4461 33.862C66.2361 32.572 64.9561 30.682 64.5661 28.932C64.1061 26.882 64.4061 24.882 64.8561 22.862C65.2161 21.232 65.6361 19.522 65.4361 17.832C65.2161 16.002 64.7361 14.142 64.2861 12.362C63.7061 10.032 63.1561 5.53202 60.1861 5.00202C57.8961 4.59202 57.2661 7.79201 57.2161 9.43201C57.2061 9.85201 57.2161 10.262 57.2361 10.682C57.0761 10.462 56.9061 10.242 56.7161 10.042C55.1461 8.392 53.6461 6.80199 52.2561 4.97199C51.0961 3.45199 48.5961 -0.767988 46.0661 0.122012C45.1061 0.462012 44.7361 1.34201 44.7061 2.37201C44.2361 1.91201 43.7261 1.52201 43.1461 1.24201C41.7761 0.582007 39.7361 1.18196 39.4561 2.82196C39.2861 3.82196 39.6461 4.82201 40.1261 5.81201C39.5161 5.42201 38.8461 5.192 38.1461 5.302C36.8761 5.502 36.5261 6.862 36.6661 7.982C36.8861 9.752 38.2361 11.452 39.2461 12.852C39.4461 13.122 39.6461 13.402 39.8461 13.672C39.5961 13.562 39.3361 13.462 39.0761 13.392C37.2261 12.872 36.1261 14.312 36.6561 16.082C37.0361 17.362 38.0161 18.482 38.8361 19.512C39.9061 20.872 41.0561 22.172 42.2561 23.422C44.2961 25.572 46.4661 27.602 48.4861 29.772C50.5561 32.002 52.4461 34.392 53.8261 37.122C54.4661 38.392 54.8561 39.772 55.5761 40.992C56.1061 41.902 56.5961 42.812 57.0161 43.782C58.3961 47.012 60.7561 49.992 62.8361 52.802C64.8761 55.562 67.0561 58.232 69.3561 60.782C71.6761 63.362 74.4261 65.622 76.6761 68.252C77.5661 69.292 78.1361 70.572 79.0661 71.602C80.3961 73.082 81.8861 74.442 83.2561 75.892C85.9061 78.682 88.4861 81.532 91.1261 84.322C93.7261 87.072 96.4561 89.592 99.2561 92.122C101.976 94.582 104.926 97.172 106.736 100.402C108.836 104.142 108.276 107.652 107.526 111.682C106.146 119.072 104.126 126.572 103.736 134.092C103.296 142.732 104.726 151.482 106.366 159.942C107.936 168.032 109.866 176.052 111.366 184.152C111.246 184.302 111.176 184.492 111.216 184.732C111.536 186.372 111.656 188.032 111.366 189.682C111.156 190.902 110.256 192.252 110.286 193.442C110.116 194.162 110.006 194.892 109.986 195.622C109.966 196.452 110.246 197.272 111.206 197.282C111.596 197.282 111.996 197.112 112.366 196.892C113.216 197.552 113.596 198.072 113.906 199.112C114.246 200.262 114.456 201.442 114.596 202.632C114.576 202.682 114.546 202.732 114.526 202.792C114.206 203.662 114.486 204.322 114.846 205.022C114.946 206.122 115.046 207.232 115.216 208.322C115.356 209.212 115.576 210.202 115.966 211.022C116.396 211.922 117.036 212.172 117.796 212.712C119.076 213.622 118.806 215.812 118.806 217.222C118.806 218.892 118.676 220.562 118.876 222.222C119.226 225.192 119.756 228.152 120.226 231.112C121.226 237.372 122.076 243.632 123.416 249.842C124.086 252.932 124.556 256.072 125.266 259.142C125.566 260.432 126.006 261.652 126.436 262.892C126.976 264.432 127.046 266.102 127.266 267.722C127.346 268.302 127.476 268.842 127.646 269.372C124.246 271.092 120.506 272.122 116.626 272.632C112.566 273.162 108.466 273.212 104.386 273.492C102.356 273.632 100.346 273.932 98.3161 274.052C95.6761 274.212 93.0261 274.192 90.3861 274.182C70.5861 274.092 50.7961 273.292 30.9861 273.642C20.8261 273.822 10.5261 274.052 0.486144 275.762C-0.373856 275.912 0.00613904 277.212 0.856139 277.062C9.87614 275.532 19.1261 275.262 28.2461 275.052C39.2161 274.802 50.1861 274.902 61.1461 275.072C70.4261 275.212 79.7061 275.462 88.9961 275.532C91.8961 275.552 94.7961 275.582 97.6961 275.442C98.9661 275.382 100.216 275.222 101.476 275.092C105.556 274.682 109.656 274.642 113.746 274.302C118.756 273.882 123.706 272.842 128.146 270.662C128.706 271.882 129.476 273.002 130.356 274.122C131.836 276.002 133.586 278.002 135.536 279.402C138.966 281.872 143.376 281.152 146.806 279.082C148.736 277.912 150.246 276.392 151.516 274.542C153.156 272.152 154.316 269.502 156.466 267.512C158.366 265.772 160.106 264.212 161.506 262.022C163.076 259.562 164.946 257.352 166.516 254.882C169.696 249.872 172.146 244.462 174.966 239.262C177.736 234.162 180.896 229.032 185.016 224.902C189.316 220.602 194.816 217.782 200.056 214.852C202.546 213.462 205.006 212.022 207.396 210.482C209.486 209.132 212.236 207.712 213.776 205.712C214.826 204.342 215.656 202.442 214.826 200.762C213.936 198.952 211.596 198.672 209.806 198.932C204.636 199.702 200.676 204.252 195.286 204.162C190.216 204.082 185.716 200.682 180.576 200.952C179.506 201.012 178.096 201.232 177.016 201.812C177.336 201.562 177.646 201.312 177.946 201.042C178.096 201.072 178.256 201.052 178.406 200.982C178.756 200.802 179.156 200.612 179.316 200.232C179.326 200.202 179.336 200.182 179.336 200.152C179.936 199.552 180.486 198.912 181.016 198.252C183.136 196.372 185.306 195.182 188.076 194.462C191.096 193.672 194.156 193.022 197.216 192.382C200.326 191.732 203.446 191.092 206.536 190.322C207.986 189.962 209.426 189.572 210.856 189.152C212.476 188.672 214.156 187.832 215.836 187.652C218.976 187.332 221.646 189.122 224.486 190.112C227.166 191.052 229.946 191.652 232.766 192.022C239.286 192.862 246.016 192.502 252.526 191.742C256.146 191.312 259.256 190.402 262.826 191.762C265.076 192.622 267.016 193.662 269.376 193.972C269.496 194.032 269.646 194.062 269.806 194.032C269.826 194.032 269.836 194.032 269.856 194.032C269.946 194.032 270.026 194.052 270.116 194.052C270.336 194.062 270.496 193.992 270.606 193.872C273.076 193.232 275.606 191.382 275.916 188.792C275.916 188.742 275.916 188.692 275.916 188.642C276.526 184.472 273.306 181.222 271.046 178.022L271.076 178.042ZM183.496 162.852C184.626 162.672 185.636 162.442 186.796 162.492C186.906 162.492 187.026 162.492 187.156 162.492C186.216 164.372 185.226 166.352 183.816 167.912C182.486 169.392 181.516 169.142 180.676 167.352C180.066 166.032 179.736 164.552 179.436 163.132C179.416 163.032 179.396 162.922 179.376 162.822C180.776 162.982 182.246 163.052 183.506 162.852H183.496ZM175.956 160.352C176.476 160.492 176.856 160.702 177.136 160.972C175.766 160.742 174.406 160.472 173.016 160.222C173.016 160.222 173.006 160.222 172.996 160.222C173.976 160.132 175.006 160.102 175.956 160.352ZM159.156 154.602C159.156 155.862 158.866 156.632 157.496 156.182C157.106 156.052 155.736 155.472 155.666 155.002C155.796 154.772 155.936 154.552 156.066 154.322C156.146 153.722 156.416 153.512 156.876 153.692C157.146 153.652 157.526 153.792 157.786 153.852C158.246 153.972 158.696 154.132 159.146 154.302C159.146 154.402 159.146 154.502 159.146 154.602H159.156ZM178.786 89.142C178.376 90.272 177.606 91.232 177.176 92.352C176.776 93.382 176.606 94.512 176.336 95.572C176.076 96.592 175.606 97.372 175.226 98.322C174.876 99.212 174.686 99.772 173.836 100.382C173.226 100.812 172.556 101.162 171.886 101.492C170.676 102.092 169.456 102.682 168.246 103.282C166.636 104.082 164.816 104.062 163.036 104.042C162.816 103.882 162.576 103.712 162.336 103.542C162.646 103.012 162.816 102.372 162.926 101.772C163.226 100.072 164.056 98.152 162.946 96.622C162.096 95.462 161.496 94.792 161.576 93.242C161.656 91.762 162.346 89.132 164.336 89.852C165.766 90.372 165.986 92.832 167.826 91.822C168.616 91.392 169.146 90.572 169.636 89.852C170.086 89.192 170.766 88.502 170.926 87.712C171.056 87.072 170.336 85.492 170.626 85.052C171.016 84.462 173.236 85.492 173.906 85.742C175.016 86.152 176.176 86.442 177.356 86.512C177.916 86.542 178.526 86.582 179.066 86.422C179.146 86.402 179.266 86.382 179.356 86.342C179.356 86.342 179.356 86.352 179.366 86.362C179.076 87.262 179.106 88.242 178.786 89.142ZM105.196 141.272C104.956 137.432 104.946 133.492 105.546 129.682C106.126 125.982 106.916 122.292 107.626 118.612C108.796 112.482 111.226 105.822 108.066 99.942C104.946 94.132 98.8261 90.282 94.3161 85.652C91.7161 82.982 89.1962 80.222 86.6562 77.482C85.4162 76.152 84.1761 74.822 82.9161 73.522C81.6961 72.262 80.2961 71.082 79.2961 69.632C78.5361 68.522 77.8961 67.472 76.9261 66.542C75.6461 65.312 74.3661 64.072 73.1361 62.802C70.8461 60.442 68.6661 57.972 66.5961 55.412C62.7061 50.582 59.3561 45.452 56.5661 39.942C55.9161 38.662 55.5061 37.262 54.8161 35.972C54.0461 34.522 53.1261 33.162 52.1261 31.872C50.2961 29.522 48.1861 27.412 46.0761 25.312C43.6961 22.942 41.2961 20.542 39.2961 17.822C38.8661 17.242 37.0261 14.522 38.6461 14.642C39.2161 14.692 39.8661 15.202 40.3261 15.512C41.2361 16.142 42.0661 16.902 42.8461 17.692C42.9661 17.882 43.0861 18.062 43.1961 18.252C43.6461 19.002 44.8061 18.312 44.3561 17.562C44.2961 17.472 44.2361 17.382 44.1861 17.292C44.1661 17.172 44.1061 17.052 44.0061 16.942C43.9661 16.902 43.9361 16.862 43.8961 16.832C42.5161 14.722 40.8461 12.822 39.4661 10.712C38.9161 9.86198 37.8061 8.41197 38.0461 7.33197C38.4661 5.44197 41.0361 8.41201 41.7861 9.24201C41.8861 9.40201 42.0261 9.49198 42.1861 9.52198C42.2061 9.52198 42.2261 9.52198 42.2461 9.52198C42.2661 9.52198 42.2861 9.52198 42.3061 9.52198C42.3261 9.52198 42.3361 9.52198 42.3561 9.52198C42.7461 9.50198 43.1461 9.17201 43.0161 8.68201C42.5861 7.03201 41.3061 5.60202 40.9861 3.94202C40.6461 2.15202 42.2061 2.012 43.3461 2.982C43.9861 3.532 44.4761 4.26197 45.0361 4.89197C45.1461 5.01197 45.2361 5.14198 45.3361 5.27198C45.5361 5.81198 45.7761 6.292 45.9861 6.612C46.7961 7.842 47.8661 8.88201 48.9061 9.93201C49.0461 10.072 49.1861 10.212 49.3161 10.352C50.3461 11.632 51.2661 12.992 52.2861 14.282C52.2861 14.292 52.3061 14.302 52.3161 14.322C52.5361 14.592 52.7561 14.872 52.9861 15.132C53.5161 15.742 54.3761 14.952 54.0461 14.302C53.9561 14.122 53.8561 13.972 53.7561 13.842C53.7961 13.722 53.8061 13.592 53.7561 13.462C53.4161 12.452 52.8761 12.222 52.1561 11.522C51.2361 10.622 50.4361 9.56196 49.5161 8.63196C49.2561 8.37196 48.9961 8.11199 48.7461 7.85199C48.3461 7.41199 47.9661 6.97201 47.6661 6.49201C47.3161 5.92201 46.9461 5.292 46.5461 4.672C46.0861 3.392 45.7061 1.53197 46.9661 1.45197C47.9861 1.38197 49.3161 3.33199 49.8361 3.97199C50.8061 5.17199 51.6961 6.43196 52.6561 7.63196C53.6961 8.94196 54.9961 10.012 56.0461 11.302C56.8461 12.282 57.2761 13.522 57.9061 14.622C57.9861 14.942 58.0761 15.262 58.1661 15.582C58.2461 16.412 58.4861 17.252 58.9461 17.882C59.3661 18.442 60.4661 18.132 60.1761 17.352C59.9261 16.682 59.6961 15.992 59.4961 15.292C59.4961 15.192 59.4861 15.082 59.4761 14.982C59.4761 14.932 59.4961 14.872 59.4861 14.812C59.4861 14.692 59.4761 14.582 59.4461 14.472C59.4061 14.272 59.2961 14.142 59.1561 14.062C58.8861 12.922 58.6961 11.762 58.6261 10.602C58.5561 9.53199 58.5361 8.32196 58.9861 7.32196C59.3761 6.44196 60.1161 6.11198 60.9661 6.90198C61.6161 7.50198 61.8761 8.83197 62.1361 9.64197C63.1961 12.902 64.5461 16.962 64.0161 20.392C63.5461 23.432 62.5561 26.202 63.2961 29.302C64.7061 35.212 71.2461 39.012 75.6161 42.562C77.9761 44.482 80.2861 46.472 82.3561 48.702C84.6861 51.212 86.4462 54.132 88.8362 56.582C90.2262 58.002 91.4962 59.472 92.9662 60.812C94.4062 62.122 95.8961 63.392 97.2561 64.792C98.5661 66.142 99.7461 67.602 101.116 68.902C102.516 70.222 104.026 71.102 105.186 72.672C105.226 72.722 105.266 72.762 105.306 72.802C105.336 72.842 105.366 72.892 105.416 72.932C107.116 74.492 109.026 75.892 110.916 77.222C113.126 78.772 115.776 79.492 118.026 80.972C120.456 82.582 122.226 85.082 124.226 87.162C126.056 89.062 127.726 89.972 130.196 90.792C133.416 91.852 135.856 93.882 138.756 95.552C140.696 96.672 143.116 97.762 145.336 96.872C148.566 95.582 148.096 91.042 148.806 88.282C149.336 86.202 149.456 84.042 149.966 81.962C150.406 80.172 151.496 78.122 152.686 76.702C154.216 74.872 156.756 74.342 158.646 72.932C160.846 71.302 163.746 70.672 166.456 70.912C171.556 71.362 175.626 75.052 179.316 78.252C180.166 78.992 181.016 79.732 181.886 80.452C182.866 81.272 184.686 82.252 183.766 83.732C182.916 85.102 181.386 84.672 180.326 85.162C180.296 85.142 180.256 85.132 180.226 85.122C180.166 85.042 180.116 84.962 180.016 84.902C179.526 84.602 179.096 84.962 178.616 85.082C176.476 85.642 174.316 84.272 172.296 83.792C171.336 83.562 169.836 83.002 169.346 84.252C168.836 85.562 169.956 86.782 169.196 88.082C168.806 88.762 168.106 90.152 167.376 90.472C166.836 90.712 166.966 90.552 166.586 90.072C166.326 89.742 166.096 89.412 165.766 89.152C164.816 88.372 163.206 87.972 162.126 88.722C160.946 89.542 160.386 91.472 160.246 92.822C160.066 94.512 160.496 95.912 161.576 97.182C162.446 98.202 161.996 98.932 161.766 100.082C161.606 100.842 161.686 102.072 161.266 102.842C158.116 100.762 154.036 98.772 150.906 100.822C149.916 101.472 149.256 102.482 148.816 103.562C148.646 103.992 148.506 104.432 148.386 104.882C148.366 104.952 148.316 105.062 148.296 105.162C147.986 105.552 148.016 106.162 148.536 106.372C148.946 106.542 149.216 106.372 149.396 106.082C149.556 106.082 149.946 105.942 150.136 105.902C150.876 105.762 151.636 105.682 152.386 105.602C154.056 105.422 155.726 105.292 157.396 105.132C158.566 105.022 159.876 105.022 161.006 104.672C161.026 104.672 161.056 104.652 161.076 104.642C161.026 105.012 161.246 105.422 161.726 105.412C162.006 105.412 162.296 105.412 162.586 105.412C162.716 105.502 162.836 105.592 162.956 105.682C163.056 106.002 163.356 106.282 163.776 106.202C166.276 105.742 169.006 105.672 171.226 104.362C173.636 102.942 176.346 101.872 179.006 101.022C184.096 99.382 189.386 98.562 194.566 97.262C199.926 95.922 205.286 94.302 210.406 92.212C212.866 91.212 215.296 90.122 217.596 88.792C220.116 87.332 222.546 86.042 225.326 85.142C230.276 83.542 235.406 82.672 240.486 81.602C244.626 80.732 248.946 79.762 252.626 77.572C254.006 76.752 255.666 75.652 256.476 74.222C257.236 72.882 257.426 71.292 258.256 70.002C260.076 67.172 262.586 65.062 263.746 61.852C264.846 58.802 266.046 55.802 267.116 52.742C267.456 51.772 267.786 50.762 268.226 49.832C268.296 49.672 268.776 48.742 268.786 48.742C268.916 48.742 268.626 50.242 268.596 50.362C268.436 51.022 268.266 51.682 268.096 52.352C268.036 52.492 267.976 52.632 267.916 52.772C267.166 54.602 266.506 56.462 266.056 58.392C265.836 59.322 265.496 60.192 265.196 61.092C265.066 61.482 264.956 61.892 264.846 62.302C264.396 63.132 263.876 63.882 263.906 64.902C263.926 65.572 264.826 65.812 265.166 65.232C265.766 64.232 266.176 63.122 266.506 61.972C266.536 61.902 266.566 61.832 266.596 61.762C267.126 60.322 267.516 58.812 268.006 57.352C268.466 55.992 268.876 54.592 269.256 53.202C269.556 52.472 269.866 51.742 270.166 51.002C270.406 50.412 270.526 49.842 270.666 49.222C270.716 49.002 270.786 48.192 270.986 48.092C271.296 48.342 271.606 48.592 271.906 48.852C271.906 49.152 271.906 49.462 271.916 49.762C271.956 51.522 272.046 53.132 271.496 54.832C271.426 55.052 271.346 55.272 271.266 55.482C270.186 56.272 269.436 58.592 269.016 59.642C268.816 60.152 268.676 60.662 268.556 61.172C267.636 62.822 266.626 64.692 267.336 66.422C267.566 66.972 268.226 67.072 268.576 66.572C269.416 65.372 269.456 63.282 269.756 61.842C269.906 61.572 270.056 61.312 270.186 61.062C270.846 59.742 271.506 58.442 272.076 57.102C272.326 57.822 272.226 58.682 272.226 59.442C272.226 60.742 272.246 62.032 272.126 63.332C271.906 65.802 271.156 68.382 270.416 70.742C269.506 73.642 269.916 77.612 267.846 80.002C264.966 83.322 259.926 83.442 256.266 85.372C253.486 86.832 250.836 88.612 248.096 90.182C246.956 90.832 245.796 91.442 244.696 92.152C242.766 93.402 241.076 94.982 239.086 96.142C237.106 97.302 234.816 97.712 232.766 98.742C230.486 99.882 228.346 101.322 225.906 102.112C223.796 102.802 221.946 103.282 220.146 104.652C218.146 106.172 216.026 107.532 213.816 108.722C209.506 111.052 204.886 112.722 200.236 114.232C197.866 115.002 195.496 115.732 193.116 116.472C190.846 117.182 188.486 117.312 186.186 117.862C184.276 118.312 182.376 118.882 180.466 119.372C178.776 119.802 177.096 120.332 175.616 121.272C173.766 122.452 172.466 124.152 171.126 125.852C169.586 127.802 168.116 129.782 166.826 131.912C165.626 133.892 164.076 135.702 162.776 137.622C161.476 139.532 159.756 141.642 159.076 143.882C158.426 146.012 158.986 148.712 159.056 150.912C159.076 151.562 159.106 152.222 159.126 152.872C157.656 152.332 155.926 151.932 154.726 152.862C153.436 153.862 154.026 155.402 155.056 156.322C156.016 157.182 157.516 157.952 158.836 157.692C160.266 157.412 160.506 156.132 160.516 154.892C161.456 155.312 162.286 155.832 162.976 156.692C163.576 157.452 164.216 158.052 164.976 158.662C165.566 159.142 166.186 159.532 166.826 159.872C166.516 159.962 166.246 160.082 166.056 160.242C165.536 160.662 165.146 161.932 164.846 162.502C164.426 163.302 164.006 164.122 163.416 164.812C162.116 166.352 160.226 167.642 158.616 168.842C157.226 169.872 155.776 170.822 154.216 171.592C153.456 171.972 152.626 172.212 151.886 172.612C151.156 173.002 150.726 173.542 150.156 174.112C148.846 175.412 146.866 176.122 145.216 176.932C143.466 177.782 141.706 178.622 139.926 179.412C135.826 181.242 131.586 182.982 127.236 184.122C122.706 185.312 118.036 185.622 113.366 185.492C113.276 185.492 113.176 185.512 113.096 185.552C112.976 185.592 112.866 185.672 112.786 185.792C112.786 185.782 112.786 185.762 112.786 185.752C112.926 185.602 113.006 185.392 112.966 185.142C110.366 170.542 106.126 156.182 105.206 141.322L105.196 141.272ZM159.856 103.582C159.296 103.642 158.696 103.632 158.326 103.672C155.676 103.942 152.996 104.082 150.356 104.482C150.226 104.502 150.066 104.522 149.906 104.542C151.506 99.762 156.166 101.392 159.856 103.582ZM113.686 196.172C114.776 195.572 115.876 194.992 116.986 194.442C118.366 193.762 119.746 193.182 121.226 192.762C121.796 192.592 121.796 192.592 121.496 193.112C120.386 195.032 119.036 196.742 117.666 198.482C117.036 199.272 116.416 200.072 115.816 200.882C115.626 199.662 115.346 198.472 114.846 197.442C114.566 196.882 114.156 196.522 113.686 196.172ZM128.716 267.932C128.536 266.732 128.426 265.522 128.246 264.322C128.036 262.942 127.446 261.732 127.056 260.392C126.246 257.682 125.916 254.832 125.336 252.062C124.126 246.372 123.156 240.692 122.256 234.942C121.796 232.042 121.326 229.142 120.876 226.242C120.636 224.702 120.316 223.142 120.206 221.582C120.096 220.142 120.226 218.672 120.226 217.222C120.226 215.262 120.446 212.932 118.696 211.662C118.176 211.282 117.736 211.152 117.376 210.592C117.046 210.072 116.916 209.462 116.776 208.872C116.576 208.022 116.476 207.162 116.396 206.282C116.646 206.152 116.796 205.892 116.646 205.552C116.526 205.272 116.386 205.002 116.256 204.732C116.246 204.582 116.226 204.422 116.206 204.272C116.156 203.832 116.116 203.382 116.066 202.922V202.902C116.266 202.442 116.656 202.012 116.946 201.612C117.636 200.672 118.366 199.762 119.086 198.842C120.336 197.262 121.826 195.632 122.666 193.782C123.236 192.532 122.926 191.292 121.346 191.382C120.246 191.442 119.136 191.982 118.146 192.412C116.346 193.202 114.206 194.042 112.506 195.162C112.136 194.722 111.866 194.212 111.806 193.622C111.956 193.082 112.126 192.552 112.296 192.022C112.736 190.652 113.246 189.272 113.626 187.882C113.716 187.872 113.806 187.852 113.906 187.832C114.176 187.772 114.416 187.462 114.396 187.172C114.396 187.052 114.376 186.932 114.356 186.832C118.056 186.892 121.756 186.642 125.396 185.902C129.496 185.062 133.476 183.542 137.336 181.942C140.896 180.462 144.386 178.812 147.836 177.092C148.636 176.692 149.656 176.362 150.366 175.812C150.896 175.402 151.246 174.772 151.736 174.312C152.466 173.632 153.476 173.382 154.366 172.962C155.236 172.552 156.076 172.092 156.896 171.592C158.426 170.642 159.866 169.552 161.266 168.422C162.686 167.282 164.136 166.192 165.146 164.642C165.676 163.822 166.056 162.922 166.536 162.082C166.956 161.352 167.126 161.242 167.966 161.072C168.396 160.982 168.826 160.892 169.266 160.802C169.566 160.892 169.866 160.972 170.176 161.042C172.466 161.582 174.836 162.092 177.156 162.492C177.406 162.532 177.676 162.582 177.946 162.622C178.036 162.982 178.106 163.372 178.186 163.782C178.596 165.702 179.116 168.542 180.796 169.842C183.906 172.262 186.966 165.992 188.276 163.272C189.046 163.792 190.036 164.102 190.846 164.392C191.656 164.682 192.486 164.952 193.316 165.202C193.816 165.392 194.336 165.542 194.816 165.682C195.436 165.862 196.066 166.012 196.696 166.142C196.976 166.212 197.256 166.292 197.536 166.362C199.576 166.882 201.626 167.322 203.676 167.772C198.446 168.742 193.886 171.642 190.416 175.912C186.766 180.392 184.476 185.692 182.316 191.002C181.916 191.992 181.536 192.992 181.046 193.942C180.006 195.942 178.316 197.562 177.596 199.692C176.616 200.532 175.606 201.332 174.456 201.972C172.146 203.262 170.006 203.022 167.526 202.562C165.686 202.212 163.656 201.922 161.866 202.662C161.306 202.892 160.796 203.222 160.346 203.632C159.916 203.832 159.466 204.062 159.386 204.112C158.596 204.642 157.866 205.262 157.146 205.872C155.736 207.042 154.476 208.102 153.746 209.812C153.246 210.992 151.856 214.992 154.176 215.242C155.996 215.442 157.276 212.162 157.836 210.932C158.246 210.042 158.736 209.062 158.946 208.092C158.996 207.862 159.036 207.632 159.076 207.422C158.956 210.402 159.156 213.382 159.326 216.352C159.566 220.632 159.526 224.932 158.696 229.072C156.806 230.472 154.946 231.912 153.166 233.492C151.246 235.202 149.116 237.032 147.616 239.132C147.026 239.952 146.466 240.872 145.976 241.742C145.376 242.812 144.626 243.562 144.246 244.732C143.496 247.072 142.346 249.262 143.286 251.722C143.396 252.002 143.626 252.222 143.946 252.212C143.966 252.212 143.996 252.212 144.016 252.212C140.986 256.332 138.226 260.712 134.626 264.362C132.886 266.122 130.946 267.572 128.866 268.742C128.796 268.472 128.726 268.202 128.686 267.932H128.716ZM157.706 207.182C157.706 207.242 157.706 207.312 157.706 207.372C157.616 208.972 156.506 210.832 155.716 212.182C155.526 212.512 154.696 214.022 154.326 213.772C153.866 213.462 154.676 211.232 154.846 210.772C155.416 209.232 156.436 208.242 157.686 207.212C157.696 207.202 157.716 207.192 157.726 207.182H157.706ZM144.446 250.772C143.956 248.502 145.116 245.332 146.496 243.692C147.036 243.052 147.306 242.272 147.756 241.562C148.506 240.362 149.246 239.302 150.236 238.262C152.706 235.652 155.416 233.302 158.246 231.112C157.746 232.982 157.066 234.812 156.156 236.592C154.656 239.522 152.556 241.982 150.496 244.532C149.556 245.702 148.606 246.862 147.576 247.952C146.846 248.732 145.606 250.372 144.446 250.792V250.772ZM177.656 203.102C178.756 202.392 180.346 202.262 181.616 202.322C183.996 202.432 186.296 203.262 188.546 203.992C190.656 204.682 192.846 205.432 195.086 205.522C197.226 205.602 199.306 204.962 201.236 204.102C203.486 203.092 205.576 201.662 207.916 200.842C209.136 200.412 210.686 199.942 211.976 200.292C214.256 200.922 214.116 202.912 213.036 204.522C211.616 206.632 208.636 208.122 206.516 209.472C204.286 210.902 201.996 212.242 199.686 213.542C197.316 214.862 194.796 216.012 192.526 217.502C190.286 218.962 188.156 220.612 186.056 222.262C182.096 225.372 179.156 229.742 176.516 233.972C173.636 238.602 171.336 243.542 168.776 248.342C166.236 253.102 163.046 257.292 160.106 261.782C158.646 264.002 156.596 265.432 154.776 267.312C153.076 269.062 152.056 271.352 150.716 273.382C148.266 277.102 143.636 280.562 138.896 279.442C136.496 278.872 134.816 276.932 133.146 275.252C131.746 273.842 130.236 272.002 129.366 270.052C131.016 269.142 132.586 268.072 134.046 266.782C138.986 262.452 142.306 256.582 146.296 251.442C146.386 251.332 146.426 251.212 146.436 251.092C147.536 250.182 148.516 248.912 149.296 248.032C151.076 246.022 152.776 243.912 154.426 241.792C157.176 238.262 158.996 234.102 159.996 229.752C160.666 229.252 161.346 228.762 162.026 228.272C165.866 225.532 170.026 222.992 173.166 219.412C174.446 217.952 175.506 216.272 175.996 214.382C176.586 212.052 176.266 209.622 176.306 207.252C176.326 205.812 176.356 203.952 177.676 203.102H177.656ZM175.526 203.442C174.606 205.992 175.066 208.722 174.976 211.372C174.796 216.972 170.536 220.532 166.316 223.622C164.346 225.072 162.336 226.462 160.366 227.882C160.416 227.592 160.466 227.302 160.506 227.002C161.396 220.932 160.346 214.832 160.406 208.742C160.426 207.342 160.226 205.722 161.256 204.672C161.516 204.572 161.786 204.482 162.066 204.422C162.216 204.392 162.376 204.262 162.466 204.122C162.526 204.092 162.586 204.062 162.646 204.042C162.796 203.972 162.886 203.872 162.946 203.762C163.556 203.602 164.196 203.562 164.836 203.582C166.996 203.652 169.066 204.532 171.246 204.372C173.086 204.232 174.676 203.512 176.126 202.522C175.866 202.782 175.666 203.092 175.536 203.442H175.526ZM269.826 192.692C267.416 192.462 265.446 191.332 263.206 190.482C260.636 189.502 258.176 189.452 255.486 189.912C249.456 190.942 243.206 191.372 237.086 191.072C233.946 190.922 230.806 190.512 227.766 189.712C224.966 188.982 222.456 187.572 219.696 186.762C216.786 185.912 214.546 186.602 211.756 187.492C208.816 188.422 205.816 189.172 202.806 189.842C199.686 190.542 196.556 191.152 193.436 191.842C190.526 192.482 187.446 192.992 184.716 194.222C184.236 194.442 183.786 194.682 183.346 194.952C183.116 194.682 182.676 194.552 182.336 194.862C182.146 195.032 181.966 195.212 181.786 195.392C181.916 195.182 182.036 194.972 182.156 194.762C182.536 194.062 182.826 193.312 183.136 192.582C184.026 190.432 184.876 188.272 185.846 186.162C188.356 180.712 191.666 175.242 196.786 171.892C200.136 169.692 203.976 168.722 207.966 168.782C208.106 168.782 208.226 168.742 208.316 168.682C209.046 168.852 209.786 169.012 210.536 169.142C212.876 169.532 215.206 169.482 217.546 169.942C220.116 170.452 222.696 170.732 225.236 171.442C227.766 172.152 230.176 173.302 232.656 174.162C235.306 175.072 237.946 176.012 240.626 176.802C241.856 177.162 243.106 177.462 244.356 177.752C245.536 178.032 246.656 178.522 247.846 178.752C250.056 179.182 252.036 180.462 254.336 180.492C254.556 180.492 254.726 180.412 254.826 180.282C255.056 180.192 255.236 179.992 255.246 179.682C255.446 174.772 254.826 169.822 252.706 165.352C252.276 164.452 251.716 163.862 251.876 162.882C252.066 161.702 252.476 160.842 253.746 160.732C254.936 160.622 256.446 161.062 257.606 161.352C259.016 161.702 260.256 162.232 261.466 163.042C263.576 164.452 265.446 166.252 266.356 168.672C267.186 170.862 267.066 173.222 267.986 175.412C269.826 179.782 275.786 183.842 274.486 189.062C274.466 189.162 274.456 189.252 274.476 189.332C273.916 191.142 271.616 192.332 269.816 192.702L269.826 192.692Z" fill="#EED5BA"/>
</svg>
