<svg width="248" height="165" viewBox="0 0 248 165" fill="none" xmlns="http://www.w3.org/2000/svg">
<path d="M247.486 159.851C239.219 160.01 230.952 159.951 222.693 159.767C218.639 159.675 214.585 159.549 210.53 159.39C208.357 159.306 206.15 159.415 204.002 159.113C201.946 158.829 199.881 158.862 197.808 158.879C196.537 158.887 195.267 158.904 193.996 158.921C192.776 158.929 191.229 159.139 191.338 157.413C191.455 155.604 192.935 154.264 192.826 152.405C192.826 152.338 192.801 152.271 192.784 152.221C192.876 150.127 193.202 147.999 192.843 145.914C192.45 143.644 191.079 142.413 189.449 140.93C188.956 140.478 188.446 139.992 187.927 139.507C188.479 138.82 188.805 137.79 189.131 137.061C190.101 134.934 191.07 132.798 192.224 130.763C193.319 128.828 194.623 127.002 195.785 125.101C196.847 123.359 197.967 121.625 199.496 120.251C199.772 120.009 200.249 119.732 200.708 119.422C200.867 119.33 201.018 119.23 201.143 119.104C201.753 118.618 202.18 118.04 201.762 117.328C201.452 116.801 200.901 116.709 200.265 116.826C199.848 116.625 199.388 116.474 198.995 116.323C196.546 115.36 193.971 114.891 191.422 114.288C190.719 114.121 190.176 113.886 189.474 114.154C188.479 114.531 187.702 115.36 186.774 115.871C185.737 116.449 184.835 117.044 183.982 117.898C182.67 119.205 181.34 120.251 179.853 121.349C179.418 121.675 178.992 122.002 178.574 122.345C178.54 122.287 178.498 122.236 178.44 122.195C178.44 122.178 178.44 122.169 178.448 122.153C178.457 122.069 178.465 121.985 178.473 121.901C178.482 121.809 178.473 121.734 178.448 121.667C178.423 120.293 178.064 119.02 177.662 117.689C177.178 116.089 176.852 114.447 176.526 112.806C175.84 109.322 175.406 105.896 175.28 102.345C175.08 96.415 174.57 90.3177 173.19 84.5302C172.555 81.8585 171.761 78.9606 170.064 76.7662C168.559 74.8147 166.871 73.0056 164.932 71.4729C161.529 68.7677 157.517 67.1261 153.279 66.2802C152.903 66.2048 152.518 66.1378 152.134 66.0708C152.259 66.0121 152.393 65.9535 152.518 65.8865C155.068 64.5381 156.899 61.5564 157.927 58.9516C159.08 56.0286 159.615 52.98 159.716 49.8475C159.808 47.0753 159.607 44.3114 159.933 41.5559C160.042 40.6681 160.058 39.7719 160.15 38.8925C160.209 38.3564 160.434 37.6613 160.493 36.9829C160.568 36.8991 160.618 36.7986 160.627 36.6646C161.203 30.4417 161.989 23.9172 160.05 17.8534C158.478 12.9286 155.026 8.48127 150.83 5.46611C146.642 2.45933 140.916 0.206335 135.733 0.0136995C132.741 -0.0951812 129.573 0.465972 126.622 0.951748C123.395 1.48778 120.177 2.34207 117.285 3.90828C111.141 7.2082 106.259 13.205 105.089 20.1566C104.353 22.0662 103.651 23.9256 103.058 25.8854C102.456 27.862 101.269 29.579 100.399 31.4467C98.8447 34.7885 97.6076 38.2811 96.2785 41.715C94.9494 45.1406 93.2775 48.3818 91.8732 51.7655C90.494 55.0738 89.3822 59.1024 90.7949 62.5866C90.8283 62.6703 90.8701 62.7373 90.9036 62.8211C87.2841 63.198 83.6312 63.5079 80.0368 64.069C76.8018 64.5716 73.5167 66.456 71.034 68.5415C68.5848 70.6019 66.6539 73.2318 65.2496 76.1045C63.8285 79.0108 63.1096 82.1684 61.9227 85.1668C58.8716 92.8638 57.2248 100.971 55.1518 108.97C54.9679 109.69 54.784 110.419 54.6001 111.139C54.4831 111.214 54.3827 111.332 54.366 111.449C54.3242 111.692 54.3242 111.918 54.341 112.152C52.5438 119.347 50.9722 126.608 50.0862 133.97C49.6682 137.446 49.4174 140.989 50.0277 144.456C50.6379 147.932 52.2512 150.964 54.6168 153.552C57.0744 156.241 60.2926 157.69 63.7449 158.67C64.422 158.862 65.1075 159.038 65.7846 159.214C63.3855 159.365 60.9781 159.532 58.5707 159.574C50.7466 159.708 42.9392 159.264 35.1235 159.088C28.9127 158.954 22.7018 158.988 16.491 159.063C8.16538 159.155 -0.160271 159.273 -8.48592 159.281C-9.17136 159.281 -9.17136 160.345 -8.48592 160.345C5.4236 160.345 19.3415 159.892 33.251 160.119C40.9999 160.244 48.7404 160.705 56.4976 160.663C60.6019 160.638 64.6728 160.328 68.7771 160.11C69.0362 160.093 69.2954 160.085 69.5545 160.068C71.87 160.546 74.2021 160.931 76.5677 161.274C78.6491 161.576 80.7222 161.894 82.812 162.137C85.1107 162.405 87.4095 162.388 89.6999 162.673C90.7448 162.799 91.798 162.673 92.8429 162.815C93.8961 162.949 94.9159 163.125 95.9776 163.184C97.9837 163.293 99.9899 163.125 101.971 162.815C104.111 162.48 106.201 161.986 108.274 161.358C108.424 161.308 108.583 161.266 108.734 161.216C110.664 161.442 112.838 161.098 114.326 160.604C115.103 160.345 115.847 160.085 116.616 159.867C120.47 160.01 124.273 160.864 128.152 160.705C132.54 160.529 136.845 159.306 141.217 159.172C145.187 159.046 148.732 160.99 152.134 162.799C152.953 163.234 153.772 163.661 154.608 164.072C154.968 164.248 155.327 164.44 155.712 164.532C155.895 164.574 156.063 164.591 156.23 164.608C156.522 164.826 156.848 164.876 157.199 164.859C157.225 164.876 157.25 164.884 157.283 164.909C157.542 165.085 157.793 164.985 157.943 164.784C157.985 164.784 158.035 164.775 158.077 164.767C160.969 164.432 163.77 163.678 166.537 162.79C169.328 161.894 172.087 160.881 174.912 160.102C175.915 159.825 176.601 159.717 177.077 158.72C177.445 157.949 177.362 157.371 176.843 156.718C176.083 155.755 175.247 154.867 174.327 154.063C173.274 153.133 172.028 152.43 170.975 151.509C170.323 150.931 169.713 150.194 170.047 149.323C170.44 148.292 171.468 148.728 172.313 148.937C172.547 148.996 172.781 149.063 173.023 149.13C173.717 149.984 174.386 150.864 175.038 151.751C175.849 152.874 176.659 154.909 178.206 155.118C179.209 155.252 180.337 154.725 180.463 153.644C180.613 152.296 179.343 151.207 178.406 150.47C177.027 149.39 175.305 148.694 173.633 148.2C173.241 147.723 172.831 147.245 172.413 146.785C171.937 146.257 170.9 145.436 170.281 144.599C170.465 144.314 170.658 144.029 170.833 143.745C171.201 143.158 171.552 142.564 171.886 141.969C172.062 141.952 172.246 141.944 172.43 141.944C172.589 142.27 172.839 142.597 173.232 142.966C174.285 143.937 175.33 144.909 176.442 145.813C178.615 147.589 180.989 149.021 183.731 149.716C184.015 149.792 184.3 149.624 184.383 149.348C184.709 148.276 184.341 147.405 183.539 146.651C183.113 146.249 182.619 145.931 182.151 145.579C181.625 145.185 181.24 144.666 180.747 144.272C180.17 143.812 179.192 143.552 178.523 143.209C177.663 142.756 176.81 142.287 175.924 141.885C175.08 141.508 174.193 141.182 173.291 141.039C173.257 140.838 173.249 140.621 173.257 140.386C176.049 140.11 178.641 141.006 181.115 142.229C182.285 143.845 183.815 145.135 185.353 146.391C185.955 146.877 187.158 148.251 188.07 147.505C189.173 146.609 187.877 144.775 187.05 144.239C185.411 143.175 183.597 142.195 181.784 141.349C181.332 140.696 180.931 139.984 180.672 139.247C180.53 138.845 180.329 138.225 180.479 137.806C180.705 137.195 181.257 137.002 181.834 136.986C182.369 137.396 182.862 137.848 183.464 138.15C184.358 138.61 185.119 139.146 185.779 139.858C185.821 139.967 185.896 140.059 186.005 140.11C186.055 140.168 186.105 140.227 186.155 140.286C186.331 140.512 186.724 140.47 186.908 140.286C186.949 140.244 186.983 140.21 187.025 140.168C187.468 140.562 187.919 140.964 188.354 141.358C190.059 142.907 191.597 144.172 191.865 146.609C192.065 148.477 191.789 150.37 191.706 152.237C191.706 152.329 191.722 152.413 191.756 152.48C191.756 154.482 188.078 159.281 191.957 159.926C193.988 160.261 196.261 159.934 198.309 159.926C199.496 159.926 200.683 159.909 201.862 159.951C203.108 159.993 204.32 160.286 205.557 160.345C214.493 160.755 223.479 160.889 232.431 160.964C237.447 161.006 242.47 160.998 247.486 160.897C248.171 160.881 248.171 159.825 247.486 159.834V159.851ZM193.545 126.692C192.274 128.669 191.037 130.595 189.992 132.706C189.474 133.753 188.989 134.808 188.504 135.872C188.287 136.357 187.769 138.016 187.142 138.77C186.13 137.865 185.069 137.011 183.932 136.433C183.464 136.19 182.854 136.014 182.243 135.955C181.884 135.713 181.508 135.478 181.098 135.277C180.981 135.218 180.864 135.168 180.747 135.109C180.939 134.791 181.098 134.431 181.29 134.046C182.001 132.605 182.87 131.265 183.798 129.959C185.846 127.103 188.462 125.126 191.388 123.233C192.684 122.396 193.946 121.315 195.359 120.712C196.103 120.394 196.83 120.101 197.641 120C197.841 119.975 198.05 119.958 198.251 119.942C197.691 120.511 197.173 121.123 196.696 121.767C195.534 123.325 194.598 125.034 193.553 126.667L193.545 126.692ZM134.747 119.523C134.714 119.414 134.655 119.313 134.563 119.246C135.825 117.421 138.417 116.709 139.854 114.967C140.222 114.523 140.598 114.079 140.941 113.618C141.3 113.141 141.493 112.58 141.927 112.136C142.295 111.759 143.073 111.491 143.608 111.709C143.967 111.851 144.067 112.286 144.276 112.554C144.627 113.015 144.979 113.258 145.463 113.61C147.862 115.31 150.378 116.826 152.903 118.333C153.739 118.836 154.558 119.347 155.36 119.866C155.427 119.958 155.528 120.017 155.636 120.042C157.258 121.097 158.846 122.195 160.434 123.342C162.014 124.489 163.352 125.804 164.672 127.178C162.491 126.056 160.276 125.009 158.019 124.054C154.257 122.454 150.454 120.989 146.391 120.402C144.385 120.117 142.354 119.975 140.331 119.858C139.336 119.799 138.341 119.749 137.338 119.69C136.853 119.665 135.508 119.741 134.755 119.514L134.747 119.523ZM166.102 127.128C163.36 124.129 160.209 121.558 156.748 119.422C156.606 119.339 156.464 119.246 156.322 119.163C156.238 117.563 155.352 116.139 155.252 114.498C155.151 112.797 154.867 111.114 154.792 109.414C156.263 110.754 157.952 111.834 159.682 112.906C163.21 115.101 166.896 117.144 170.599 119.037C172.137 119.824 174.135 120.067 175.531 121.056C176.241 121.566 176.735 122.454 177.495 122.906C177.47 123.032 177.487 123.133 177.537 123.225C175.857 124.749 174.402 126.491 173.341 128.552C172.923 129.364 172.413 130.528 172.129 131.709C171.117 130.888 170.022 130.16 168.919 129.515C168.518 129.28 168.116 129.054 167.715 128.828C167.172 128.275 166.637 127.706 166.102 127.119V127.128ZM150.788 101.197C149.818 98.5507 149.1 95.6612 148.631 92.8805C148.422 91.6494 148.297 90.393 148.013 89.1786C147.837 88.4164 147.553 87.6878 147.411 86.9089C147.361 86.6408 147.118 85.6609 147.503 85.4683C147.77 85.3343 148.615 86.3058 148.824 86.532C149.793 87.5956 150.261 89.0027 150.704 90.3512C151.574 92.9978 152.259 95.6863 152.819 98.4167C153.154 100.042 153.513 101.7 153.647 103.358C153.739 104.455 153.73 105.553 153.714 106.65C152.46 105 151.49 103.115 150.788 101.189V101.197ZM200.031 118.032C200.19 118.208 200.207 118.35 200.132 118.459C200.006 118.543 199.873 118.618 199.756 118.694C199.354 118.828 198.769 118.87 198.485 118.895C198.326 118.911 198.176 118.92 198.017 118.928C198.452 118.736 198.886 118.543 199.321 118.359C199.43 118.308 199.747 118.149 200.04 118.024L200.031 118.032ZM181.09 121.742C182.051 121.056 182.954 120.436 183.79 119.59C184.659 118.719 185.462 117.814 186.532 117.178C187.275 116.734 187.994 116.323 188.713 115.821C189.499 115.268 189.967 115.025 190.895 115.251C192.742 115.704 194.615 116.047 196.445 116.583C197.139 116.784 198.067 116.985 198.853 117.303C198.151 117.63 197.499 118.007 197.122 118.174C195.083 119.079 193.06 120.034 191.146 121.181C190.176 121.767 189.181 122.396 188.304 123.124C187.576 123.727 187.1 124.548 186.423 125.21C184.626 126.96 182.912 128.602 181.458 130.662C180.772 131.625 179.903 132.714 179.451 133.811C179.351 134.063 179.301 134.305 179.293 134.548C178.741 134.372 178.181 134.23 177.612 134.13C176.668 133.97 175.807 134.264 174.912 134.347C174.871 134.347 174.82 134.347 174.77 134.347C174.745 134.28 174.703 134.213 174.645 134.146C174.436 133.937 174.219 133.719 174.01 133.51C173.776 133.208 173.5 132.932 173.232 132.672C173.157 132.605 173.09 132.538 173.015 132.471C173.324 130.604 174.603 128.384 175.247 127.421C176.776 125.126 178.85 123.325 181.09 121.734V121.742ZM178.574 135.419C178.264 135.495 177.913 135.52 177.495 135.503C177.002 135.478 176.517 135.386 176.049 135.243C176.534 135.168 177.027 135.109 177.545 135.193C177.888 135.243 178.231 135.327 178.574 135.419ZM114.15 52.2764C114.167 52.1592 114.15 52.0587 114.117 51.9665C114.225 51.8828 114.292 51.7488 114.284 51.5645C114.251 50.9782 114.401 50.3249 114.409 49.7219C114.409 49.2948 114.434 48.8592 114.443 48.4321C114.468 47.5108 114.568 46.5225 114.368 45.618C114.342 45.5007 114.25 45.3834 114.142 45.3164C114.108 45.2076 114.033 45.1071 113.899 45.0401C112.161 44.1439 111.96 41.112 111.701 39.4034C111.45 37.745 111.191 36.1118 111.283 34.4284C111.367 32.8287 111.676 30.3998 113.339 29.646C115.889 28.4818 117.619 31.9157 118.313 33.8002C118.447 34.1604 118.831 34.2274 119.099 34.1017C119.324 34.2357 119.65 34.2274 119.826 33.9342C121.055 31.8571 122.459 29.7046 124.148 27.9793C125.853 26.2288 128.269 25.9273 130.567 26.3377C132.448 26.6727 134.003 26.6057 135.784 25.8184C137.639 25.006 139.018 23.5738 140.49 22.2254C143.106 19.83 148.406 16.6222 151.432 20.1147C153.856 22.9205 153.831 27.6275 154.14 31.1787C154.09 31.2792 154.065 31.3965 154.098 31.5305C154.516 33.5908 154.082 35.224 153.179 37.0583C152.51 38.4235 151.758 39.7803 151.507 41.3046C151.014 44.2695 150.286 47.1004 149.083 49.8643C147.913 52.5528 146.416 55.1576 144.418 57.3101C144.201 57.5362 143.975 57.7707 143.758 58.0136C143.173 58.625 142.554 59.3202 142.111 60.0823C141.1 61.1209 140.022 62.0757 138.826 62.863C138.266 63.0221 137.723 63.2315 137.246 63.3823C134.647 64.2365 131.495 64.1025 128.971 63.0807C127.742 62.5782 126.58 61.8663 125.485 61.1209C124.373 60.3587 123.805 59.4458 122.91 58.5161C121.598 57.1509 119.943 55.7857 117.912 56.2129C117.653 56.2715 117.527 56.5228 117.536 56.7657C117.419 56.9164 117.385 57.1174 117.511 57.3268C120.746 62.863 126.831 67.1512 133.468 66.121C135.742 65.7693 137.698 64.9066 139.436 63.7256C140.038 63.5916 140.598 63.5749 141.041 63.8345C141.083 63.8596 141.117 63.8764 141.158 63.8848C141.677 65.0825 141.392 67.1763 141.334 68.0306C141.2 69.9737 140.874 72.6622 139.879 74.3624C137.806 77.8885 134.128 79.1281 130.375 79.8567C126.472 80.6105 122.292 80.7194 118.388 79.84C114.577 78.9857 111.751 76.7578 108.675 74.4881C107.162 73.3742 105.59 72.4361 103.96 71.4981C102.13 70.4427 100.441 69.1529 98.7778 67.8547C97.5574 66.8999 96.3871 65.9619 94.9828 65.2751C94.0884 64.8396 93.3612 64.3371 92.7844 63.7173C99.6806 63.0472 107.964 62.7708 112.311 56.6735C113.247 55.3586 113.891 53.8845 114.167 52.2932L114.15 52.2764ZM118.723 57.1509C120.837 57.1091 122.108 59.5128 123.404 60.8194C124.917 62.3605 127.241 63.6084 129.263 64.3036C130.743 64.8061 132.323 64.9903 133.886 64.9401C127.684 66.2718 121.849 62.3186 118.672 57.2179C118.689 57.1928 118.706 57.1761 118.723 57.1509ZM91.3633 60.7942C90.6862 57.2598 92.1491 53.4657 93.6788 50.3417C95.0748 47.4857 96.3036 44.5794 97.4488 41.6145C98.7695 38.1889 99.9815 34.6796 101.603 31.3797C102.456 29.646 103.509 28.0379 104.078 26.1786C104.654 24.2941 105.331 22.485 106.034 20.6508C106.067 20.6005 106.092 20.5335 106.109 20.4498C106.134 20.3828 106.142 20.3158 106.142 20.2571C107.221 14.2101 111.074 9.20993 116.123 5.85138C121.448 2.30857 128.327 1.47103 134.571 1.09413C139.453 0.800991 144.878 3.02886 148.966 5.51636C153.187 8.07924 156.924 12.4093 158.646 17.0493C160.928 23.1718 160.2 29.8051 159.599 36.1788C159.481 36.2961 159.415 36.4552 159.44 36.6562C159.548 37.3765 159.147 38.1973 159.089 38.9176C159.038 39.462 159.03 40.0567 158.972 40.6262C158.754 42.6279 158.662 44.5124 158.671 46.5392C158.704 52.5444 158.136 58.9349 153.797 63.533C151.741 65.719 149.175 66.0038 146.5 65.0992C146.374 65.0406 146.257 64.9736 146.132 64.8982C145.121 64.2784 144 63.4325 142.822 62.8797C142.621 62.528 142.529 62.1259 142.604 61.6569C142.889 61.1628 143.139 60.6435 143.415 60.1577C144.243 59.2532 145.029 58.2984 145.798 57.3268C146.675 56.4055 147.536 55.4842 148.197 54.2949C148.23 54.2363 148.247 54.1693 148.264 54.1106C148.339 54.0185 148.406 53.9264 148.481 53.8343C148.623 53.6584 148.606 53.4741 148.523 53.3401C149.384 51.799 150.119 50.1826 150.738 48.5326C151.273 47.1172 151.716 45.6682 152.05 44.1941C152.36 42.8457 152.41 41.4219 152.895 40.1237C153.421 38.6915 154.257 37.4016 154.817 35.9862C155.386 34.554 155.436 33.1637 155.202 31.698C155.227 31.631 155.235 31.5556 155.227 31.4718C154.742 26.455 154.474 16.4463 146.985 17.6021C143.574 18.1298 140.958 20.3409 138.509 22.5939C136.87 24.1015 134.981 25.3913 132.674 25.5085C130.919 25.6007 129.305 24.9139 127.508 25.1651C125.786 25.408 124.265 26.2121 123.119 27.5186C121.648 29.1937 120.328 31.0531 119.166 32.9627C119.149 32.9627 119.141 32.9794 119.124 32.9878C118.288 30.9023 116.817 28.3981 114.351 28.3729C111.985 28.3478 110.798 30.5589 110.422 32.6109C110.012 34.8388 110.28 37.0164 110.606 39.2275C110.915 41.3214 111.166 44.6799 113.239 45.886C113.256 45.9865 113.306 46.087 113.39 46.154C113.515 46.9748 113.398 47.8877 113.381 48.7001C113.356 49.6633 113.172 50.6432 113.231 51.5813C113.231 51.6399 113.247 51.6985 113.264 51.7488C113.197 51.8074 113.155 51.8995 113.13 52.0084C112.42 56.0956 109.369 58.8176 105.716 60.342C101.612 62.0506 96.9138 62.1929 92.5252 62.6787C92.3664 62.6955 92.2076 62.7122 92.0488 62.729C91.7395 62.1762 91.5138 61.548 91.3717 60.811L91.3633 60.7942ZM61.2623 89.9659C61.9059 88.0647 62.7 86.2304 63.4022 84.346C63.9288 82.9305 64.2966 81.4564 64.7815 80.0326C65.8932 76.7662 67.5567 73.6505 69.9056 71.1044C72.2879 68.5248 75.4476 66.5063 78.7913 65.4342C80.7891 64.7977 83.0711 64.7642 85.1525 64.5297C87.2507 64.2868 89.3571 64.069 91.4553 63.8345C92.0906 64.7642 92.9348 65.4594 94.0299 65.987C95.9525 66.9083 97.524 68.2316 99.2042 69.5214C100.934 70.8448 102.723 72.0006 104.621 73.0726C106.518 74.1447 108.24 75.4931 109.979 76.7913C113.298 79.2621 116.65 80.8367 120.796 81.2889C125.067 81.7496 129.289 81.2973 133.451 80.2504C137.355 79.2621 140.766 76.2469 141.652 72.2686C142.17 69.9402 142.462 67.6705 142.437 65.2835C142.437 64.848 142.337 64.3203 142.161 63.8178C142.956 64.8396 144.326 65.4175 145.48 65.8698C145.681 65.9451 145.881 66.0205 146.082 66.0875C147.62 66.8162 149.317 66.7324 151.022 66.9837C155.285 67.6286 159.431 68.91 163.009 71.3892C164.94 72.7292 166.654 74.3624 168.175 76.1548C169.069 77.2017 169.88 78.2319 170.432 79.505C171.05 80.9455 171.535 82.4447 171.928 83.9607C173.391 89.5555 173.959 95.5523 174.168 101.323C174.294 104.824 174.57 108.208 175.213 111.658C175.514 113.283 175.849 114.908 176.225 116.516C176.626 118.208 177.286 119.782 177.37 121.516C176.985 121.114 176.643 120.62 176.267 120.335C175.397 119.648 174.135 119.347 173.115 118.978C169.93 117.831 167.072 115.838 164.079 114.28C161.529 112.956 158.955 111.415 156.664 109.682C155.979 109.162 155.335 108.568 154.75 107.931C154.75 106.415 154.809 104.891 154.692 103.383C154.558 101.7 154.207 100.025 153.864 98.3748C153.212 95.1754 152.443 91.9509 151.281 88.8938C150.771 87.5454 149.233 84.1366 147.286 84.4381C145.447 84.7312 146.475 87.7464 146.784 88.8017C147.545 91.4316 147.595 94.2122 148.406 96.8421C148.932 98.534 149.258 100.31 149.927 101.96C150.587 103.601 151.457 105.218 152.418 106.7C152.803 107.295 153.237 107.839 153.697 108.35C153.697 108.685 153.697 109.012 153.714 109.347C153.772 111.089 154.098 112.789 154.182 114.523C154.224 115.335 154.307 116.114 154.575 116.885C154.767 117.446 154.993 117.948 155.126 118.484C151.958 116.625 148.615 114.866 145.781 112.58C144.77 111.759 144.301 110.301 142.722 110.536C141.125 110.77 140.448 112.513 139.57 113.626C138.341 115.176 136.937 116.013 135.324 117.094C134.789 117.454 133.827 118.132 133.451 118.878C133.443 118.878 133.435 118.861 133.418 118.853C132.992 118.652 132.415 118.761 131.963 118.786C131.562 118.803 130.459 118.995 130.124 118.928C129.882 118.761 129.506 118.761 129.347 119.071C128.561 120.679 127.984 122.412 127.316 124.071C126.471 126.173 125.56 128.074 124.457 130.059C122.401 133.769 120.787 137.748 118.756 141.483C118.255 141.399 117.335 142.103 117.042 142.312C115.421 143.451 113.833 144.641 112.244 145.83C110.965 146.776 109.628 148.117 108.199 148.82C107.321 149.256 105.933 149.071 104.955 148.962C103.392 148.795 101.929 148.234 100.55 147.497C99.0704 146.709 97.641 145.797 96.245 144.867C94.7488 143.87 93.2608 142.949 91.6893 142.061C88.5547 140.302 85.8547 138.083 82.4108 136.952C82.369 136.349 82.1516 135.813 82.0262 135.21C81.8423 134.314 81.6584 133.476 81.299 132.622C80.6554 131.089 79.8863 129.598 79.0086 128.191C78.3399 127.128 77.5876 126.089 76.7851 125.084C77.2114 123.644 77.6126 122.186 78.0055 120.737C78.3733 120.067 78.7327 119.397 78.9166 118.618C79.0587 118.024 79.1925 117.437 79.2678 116.826C79.3681 115.955 79.6523 115.201 79.8194 114.347C79.8362 114.255 79.8529 114.163 79.8696 114.07C80.3878 112.32 80.9312 110.569 81.4912 108.827C81.7169 108.543 81.951 108.266 82.16 107.973C82.7785 107.454 83.372 106.909 83.9405 106.34C85.5788 104.69 86.6823 102.621 87.7857 100.594C88.7637 98.8104 89.9089 97.1101 90.5943 95.1838C91.1794 93.5422 91.5807 91.7666 91.0624 90.0664C90.7531 89.053 90.1764 87.403 88.9977 87.1517C88.8556 87.0764 88.6801 87.0512 88.5379 87.1266C88.3206 87.1601 88.1535 87.2941 88.0866 87.5035C87.9278 87.9893 87.7104 88.4416 87.5934 88.9273C85.7126 93.1402 84.325 97.6545 82.7618 101.968C82.0597 103.903 81.3324 105.829 80.6637 107.78C77.9136 110 74.7371 111.776 71.7111 113.501C70.0895 114.422 68.4678 115.218 66.7877 115.879C65.7177 115.193 64.6227 114.556 63.5443 113.995C62.048 113.208 60.4598 112.605 58.8632 112.077C57.835 111.742 56.7902 111.198 55.7119 111.08C56.5478 107.906 57.4505 104.74 58.1861 101.541C59.0806 97.6462 59.9583 93.7683 61.2456 89.9743L61.2623 89.9659ZM88.4878 89.7146C88.5379 89.656 88.5714 89.5806 88.5881 89.4801C88.5881 89.4717 88.5881 89.4634 88.5881 89.455C88.7386 89.0697 88.8974 88.6928 89.0646 88.3159C89.6664 88.7682 90.0259 90.1166 90.1596 90.6443C90.4773 91.8755 90.1596 93.1821 89.7834 94.363C88.9308 97.0348 87.2423 99.5306 85.8464 101.943C84.9436 103.501 83.8235 104.874 82.5612 106.114C82.5194 106.089 82.4693 106.08 82.4275 106.063C84.2832 100.552 86.3312 95.1 88.4962 89.7146H88.4878ZM79.3263 111.508C79.1674 112.312 78.9752 113.099 78.7997 113.895C78.1894 116.064 77.6043 118.241 77.0192 120.411C76.5343 121.198 76.1331 122.002 75.8907 122.898C75.8071 123.191 75.7653 123.493 75.7402 123.794C74.6619 122.555 73.5334 121.365 72.3966 120.243C71.0758 118.937 69.5461 117.722 67.9495 116.617C69.5963 115.921 71.1093 115.067 72.7058 114.171C75.0631 112.848 77.504 111.441 79.7776 109.832C79.5938 110.377 79.4516 110.93 79.3346 111.508H79.3263ZM76.9857 135.545C76.317 135.193 75.6566 134.867 74.9795 134.548C74.1854 134.171 74.1604 133.25 74.3025 132.421C74.5031 131.801 74.7873 131.181 74.9795 130.662C75.3975 129.515 75.7904 128.359 76.1581 127.195C76.1916 127.119 76.2251 127.052 76.2501 126.977C76.3337 126.776 76.4006 126.575 76.4591 126.374C76.7851 126.776 77.0944 127.178 77.387 127.605C78.3065 128.937 79.1006 130.344 79.8027 131.801C80.2291 132.697 80.6554 133.619 80.8811 134.59C80.9981 135.109 81.182 135.713 81.2906 136.29C81.1402 136.316 81.0315 136.391 80.9563 136.491C79.7609 136.165 78.5489 135.905 77.3284 135.704C77.2198 135.654 77.1111 135.604 76.9941 135.545H76.9857ZM55.4444 112.152C55.8372 111.893 57.1413 112.605 57.3837 112.688C58.8632 113.233 60.3762 113.652 61.8224 114.305C63.0929 114.883 64.3301 115.578 65.5338 116.349C64.6477 116.658 63.7449 116.943 62.8087 117.186C61.3375 117.571 59.6156 118.04 58.1109 117.588C57.5258 117.412 56.9908 117.111 56.5728 116.65C55.7871 115.787 55.8289 114.958 55.8122 113.903C55.8122 113.744 55.5029 112.621 55.4109 112.303C55.4193 112.253 55.436 112.203 55.4444 112.152ZM66.5954 158.368C64.5892 157.84 62.5245 157.355 60.6186 156.517C57.1329 154.984 54.249 152.221 52.5354 148.803C50.8803 145.495 50.5877 141.734 50.7716 138.091C51.1729 130.31 52.9116 122.53 54.7506 114.967C54.8174 115.67 54.9762 116.273 55.4193 116.918C56.297 118.183 57.7765 118.811 59.2895 118.819C61.6886 118.819 64.0793 117.957 66.3279 117.22C66.4449 117.178 66.5536 117.136 66.6706 117.102C67.7406 117.831 68.7855 118.61 69.7969 119.38C71.3851 120.603 72.6891 122.069 74.0099 123.568C74.5448 124.171 75.0799 124.766 75.6148 125.369C75.4059 126.047 75.1969 126.717 74.9795 127.387C74.6953 127.974 74.3861 128.552 74.152 129.113C73.734 130.126 73.2158 131.575 73.1573 132.89C72.9566 133.878 73.0319 134.841 73.8845 135.654C74.4947 136.232 75.247 136.441 76.0578 136.567C76.3755 136.617 76.6848 136.667 76.9941 136.726C77.0275 136.743 77.0526 136.751 77.0861 136.768C77.9972 137.212 78.9167 137.48 79.9281 137.63C80.3126 137.689 80.8894 137.798 81.3575 137.773C83.1213 138.284 84.8015 138.912 86.4231 139.9C88.4878 141.157 90.4355 142.547 92.5587 143.728C94.4645 144.791 96.2283 146.098 98.0841 147.245C99.5803 148.167 101.118 149.071 102.815 149.574C103.576 149.8 104.37 149.942 105.164 150.018C106.075 150.102 107.413 150.261 108.282 149.959C108.909 149.741 109.469 149.205 109.996 148.812C111.108 147.991 112.219 147.162 113.331 146.333C114.485 145.47 115.646 144.616 116.817 143.77C116.984 143.644 117.159 143.527 117.327 143.401C116.859 144.214 116.34 145.001 115.805 145.771C115.529 146.173 115.245 146.567 114.969 146.969C114.677 147.287 114.393 147.622 114.159 147.991C113.983 148.267 113.799 148.544 113.615 148.82C113.013 149.616 112.403 150.403 111.776 151.19C110.514 152.606 109.21 153.921 108.107 155.462C107.981 155.587 107.847 155.713 107.714 155.839C106.719 156.76 103.802 158.552 105.716 160.102C105.917 160.261 106.142 160.403 106.368 160.529C105.624 160.663 104.913 160.789 104.119 160.789C103.141 160.789 102.155 160.789 101.177 160.789C99.0286 160.789 96.8302 160.981 94.6819 160.763C93.0435 160.596 91.4971 160.068 89.8336 160.018C87.7104 159.959 85.5872 160.11 83.464 160.077C81.2655 160.052 79.2092 159.532 77.0526 159.247C75.1551 158.996 73.2409 158.938 71.335 158.971C70.6663 158.979 69.9975 159.005 69.3288 159.038C68.4177 158.829 67.5065 158.611 66.6037 158.368H66.5954ZM121.448 152.145C120.837 152.639 120.211 153.117 119.575 153.577C117.828 154.331 116.115 155.194 114.585 156.283C114.551 156.291 114.51 156.308 114.476 156.324C114.225 156.45 114.159 156.542 113.941 156.76C113.69 157.02 113.766 157.589 114.175 157.648C114.175 157.648 114.192 157.648 114.2 157.648C114.234 157.648 114.276 157.656 114.317 157.656C115.187 157.723 115.764 157.221 116.474 156.718C117.009 156.35 117.594 156.098 118.154 155.78C118.798 155.403 119.425 154.993 120.035 154.557C120.57 154.323 121.105 154.105 121.632 153.887C124.189 152.849 126.823 151.919 129.514 151.282C130.267 151.107 130.735 150.964 130.35 151.902C129.932 152.916 128.67 153.376 127.692 153.577C126.614 153.803 126.589 153.711 125.719 154.289C124.95 154.8 124.098 155.169 123.245 155.504C122.493 155.805 121.665 156.023 120.946 156.4C120.637 156.559 120.394 156.793 120.144 157.02C119.918 157.103 119.717 157.288 119.542 157.489C119.533 157.505 119.525 157.514 119.517 157.531C119.517 157.539 119.5 157.556 119.492 157.564C119.483 157.581 119.475 157.589 119.467 157.606C119.467 157.614 119.45 157.631 119.45 157.639C119.383 157.79 119.391 157.941 119.45 158.067C119.45 158.067 119.45 158.075 119.45 158.083C119.45 158.092 119.45 158.1 119.467 158.108C119.517 158.217 119.6 158.309 119.717 158.351C119.233 158.393 118.739 158.427 118.255 158.477C117.669 158.527 117.109 158.644 116.566 158.795C114.936 158.728 113.314 158.82 111.726 159.247C110.74 159.516 109.77 159.792 108.792 160.068C108.458 160.018 108.132 159.968 107.822 159.884C107.187 159.725 106.56 159.591 106.418 158.912C106.276 158.217 106.711 158.05 107.229 157.639C107.48 157.438 107.73 157.229 107.973 157.011C109.218 157.882 111.935 155.269 112.721 154.658C115.162 152.748 117.511 150.696 120.093 148.971C121.247 148.2 122.459 147.455 123.763 146.977C124.298 146.785 124.85 146.617 125.418 146.559C125.669 146.534 125.945 146.508 126.196 146.542C126.196 146.542 126.405 146.232 126.196 146.726C125.259 148.962 123.295 150.629 121.448 152.137V152.145ZM120.804 158.025C122.844 157.02 124.724 155.906 127.006 155.562C128.135 155.395 129.347 155.269 130.492 155.437C130.902 155.495 131.362 155.579 131.662 155.881C131.696 155.914 131.938 155.805 131.504 155.973C131.169 156.107 130.86 156.308 130.526 156.442C127.842 157.539 124.8 157.866 121.941 158.159C121.381 158.217 120.821 158.259 120.261 158.309C120.47 158.242 120.662 158.15 120.796 158.025H120.804ZM75.6232 160.16C76.6848 160.269 77.738 160.47 78.7829 160.655C77.7297 160.495 76.6681 160.328 75.6232 160.16ZM92.4667 161.693C91.4051 161.593 90.3435 161.676 89.2736 161.559C88.3039 161.45 87.3426 161.467 86.373 161.425C84.9269 161.375 83.4724 161.249 82.0179 161.082C83.9906 161.216 85.9968 161.115 87.9695 161.082C89.1482 161.065 90.3185 161.023 91.4887 161.216C92.4082 161.366 93.3027 161.634 94.2222 161.752C96.5042 162.053 98.8614 161.827 101.152 161.827C101.235 161.827 101.319 161.827 101.403 161.827C100.575 161.953 99.7308 162.053 98.8781 162.104C96.6713 162.246 94.6401 161.869 92.4584 161.676L92.4667 161.693ZM152.861 161.995C151.248 161.14 149.643 160.269 147.954 159.557C146.475 158.929 144.928 158.443 143.332 158.242C141.351 157.991 139.436 158.293 137.48 158.577C133.067 159.222 128.62 159.976 124.148 159.591C123.22 159.516 122.284 159.398 121.339 159.273C121.648 159.247 121.966 159.214 122.275 159.18C124.85 158.904 127.483 158.577 129.949 157.773C131.036 157.422 133.861 156.576 132.348 155.068C131.612 154.331 130.358 154.197 129.13 154.247C129.288 154.18 129.439 154.113 129.581 154.038C130.634 153.485 132.565 151.324 131.002 150.21C130.241 149.666 128.82 150.344 128.043 150.554C126.338 151.023 124.658 151.584 123.002 152.204C124.106 151.266 125.159 150.252 126.045 149.113C126.731 148.234 127.483 147.12 127.224 145.947C127.19 145.78 127.023 145.604 126.856 145.579C123.454 144.967 120.043 147.606 117.511 149.507C116.925 149.951 111.316 154.423 109.285 155.755C110.364 154.624 111.342 153.393 112.311 152.179C112.395 152.078 112.478 151.969 112.562 151.869C112.595 151.835 112.629 151.802 112.662 151.768C113.498 150.897 114.15 149.892 114.844 148.912C115.07 148.611 115.295 148.301 115.513 147.999C115.814 147.614 116.123 147.237 116.474 146.885C117.711 145.646 118.539 143.912 119.408 142.388C120.085 141.198 120.729 139.992 121.322 138.761C122.442 136.45 123.479 134.104 124.691 131.835C125.786 129.783 126.898 127.865 127.775 125.721C128.561 123.811 129.222 121.801 130.099 119.925C130.442 119.942 130.81 119.883 131.111 119.866C131.504 119.849 131.905 119.816 132.298 119.799C132.482 119.799 132.992 119.849 132.941 119.782C133.075 119.849 133.217 119.866 133.351 119.808C133.786 120.963 135.942 120.67 136.82 120.729C139.052 120.871 141.292 120.955 143.524 121.148C151.816 121.876 159.766 125.545 166.98 129.64C167.799 130.478 168.651 131.24 169.579 131.952C170.072 132.329 170.566 132.706 171.084 133.049C171.326 133.208 171.611 133.359 171.903 133.518C171.945 134.59 172.338 135.528 173.366 136.056C173.19 137.069 172.605 138.141 172.237 138.929C171.903 139.657 171.535 140.378 171.151 141.081C169.964 141.324 168.626 141.919 168.61 143.292C168.61 143.786 168.752 144.23 168.977 144.632C167.774 146.416 166.47 148.133 165.141 149.833C163.36 152.112 161.605 154.398 159.682 156.559C158.871 157.48 158.052 158.393 157.3 159.365C156.648 160.211 155.645 161.299 155.461 162.388C155.411 162.681 155.427 163.008 155.494 163.326C155.436 163.31 155.377 163.284 155.31 163.259C154.458 162.908 153.647 162.422 152.836 161.995H152.861ZM170.348 142.522C170.323 142.564 170.298 142.614 170.273 142.656C170.114 142.915 169.955 143.167 169.797 143.418C169.797 143.091 169.964 142.781 170.348 142.522ZM176.601 150.579C177.328 150.989 177.922 151.45 178.49 152.07C178.641 152.229 178.841 152.413 178.983 152.589C179.293 152.966 179.51 153.72 178.875 154.046C177.78 154.607 175.765 150.947 175.163 150.143C175.063 150.018 174.963 149.884 174.871 149.758C175.464 149.993 176.049 150.269 176.609 150.579H176.601ZM171.067 146.902C171.31 147.162 171.544 147.421 171.786 147.689C170.975 147.522 170.164 147.53 169.487 148.075C166.654 150.353 171.953 153.435 173.282 154.566C173.901 155.093 174.494 155.654 175.046 156.249C175.523 156.76 175.824 157.062 175.974 157.765C176.116 158.443 175.982 158.611 175.33 158.912C175.054 159.038 174.703 159.08 174.411 159.164C172.346 159.742 170.323 160.437 168.292 161.124C166.269 161.802 164.246 162.464 162.173 162.975C161.245 163.201 160.317 163.402 159.381 163.552C158.88 163.636 158.144 163.871 157.542 163.854C157.325 163.753 157.099 163.686 156.865 163.636C156.731 163.527 156.631 163.368 156.581 163.15C156.355 162.238 157.333 161.14 157.852 160.445C158.529 159.532 159.273 158.678 160.025 157.832C161.387 156.291 162.683 154.725 163.954 153.108C165.91 150.629 167.899 148.158 169.688 145.545C170.139 146.039 170.658 146.483 171.084 146.919L171.067 146.902ZM179.276 144.775C180.128 145.177 180.638 145.763 181.391 146.333C182.16 146.91 183.355 147.53 183.439 148.535C181.307 147.899 179.393 146.793 177.637 145.411C176.743 144.708 175.89 143.954 175.054 143.183C174.703 142.857 174.302 142.547 173.968 142.195C175.874 142.74 177.788 144.071 179.293 144.766L179.276 144.775ZM173.224 139.347C173.358 139.046 173.5 138.744 173.625 138.435C173.968 137.605 174.377 136.692 174.478 135.771C175.991 136.533 177.913 136.927 179.46 136.274C179.543 136.24 179.619 136.198 179.694 136.165C179.71 136.207 179.727 136.24 179.744 136.282C179.811 136.441 179.919 136.525 180.045 136.55C179.844 136.734 179.677 136.969 179.568 137.254C179.159 138.301 179.543 139.532 180.103 140.595C177.88 139.657 175.623 139.138 173.232 139.339L173.224 139.347ZM186.532 145.16C186.665 145.261 187.693 146.341 187.51 146.642C187.392 146.827 186.214 145.713 186.122 145.637C185.336 145.001 184.542 144.348 183.806 143.652C184.325 143.937 184.835 144.23 185.344 144.507C185.729 144.716 186.189 144.892 186.54 145.152L186.532 145.16Z" fill="#EEB3B4"/>
</svg>
