<svg width="276" height="286" viewBox="0 0 276 286" fill="none" xmlns="http://www.w3.org/2000/svg">
<path d="M275.354 284.422C266.811 283.79 258.331 283.464 249.756 283.833C245.579 284.012 241.433 284.454 237.256 284.475C235.173 284.475 233.1 284.443 231.017 284.433C229.376 284.433 227.65 284.654 225.988 284.517C226.43 284.233 227.061 284.001 227.292 283.843C228.081 283.327 228.723 282.621 229.491 282.084C230.775 281.168 231.88 280.441 232.963 279.262C232.974 279.251 232.995 279.241 233.005 279.23C233.637 278.704 234.068 278.114 234.563 277.461C235.331 276.461 236.372 275.692 237.025 274.607C238.129 272.785 238.54 270.079 237.509 268.141C234.584 262.675 227.745 266.572 223.368 267.319C219.969 267.899 216.581 267.235 213.194 266.824C211.5 266.624 209.795 266.456 208.091 266.466C208.038 266.466 207.975 266.466 207.922 266.466C207.386 265.203 206.849 263.928 206.47 262.601C206.102 261.316 205.692 260.063 205.281 258.778C204.766 257.157 204.692 255.45 204.461 253.765C203.524 247.004 202.42 240.275 201.546 233.492C200.715 226.995 199.958 220.476 199.495 213.946C199.263 210.639 199.116 207.322 199.074 204.004C199.032 201.077 198.947 198.244 198.285 195.39C197.632 192.525 196.559 189.808 195.286 187.175C193.834 184.153 192.593 181.046 191.309 177.95C190.099 175.033 188.91 172.042 187.332 169.303C186.574 167.976 185.669 166.765 185.017 165.375C184.323 163.88 183.965 162.29 183.207 160.815C181.534 157.55 179.914 154.201 178.673 150.726C179.272 149.957 179.483 149.052 178.957 148.062C178.41 147.04 177.705 146.313 177.41 145.134C177.147 144.112 177.168 143.07 177.063 142.027C176.873 140.089 176.379 137.32 177.084 135.455C177.221 135.097 177.042 134.824 176.779 134.697C177.147 131.338 177.778 127.989 178.126 124.608C178.504 120.933 178.683 117.236 178.546 113.54C178.41 109.864 177.926 106.21 177.673 102.545C177.421 98.8798 177.21 95.1728 177.368 91.4973C177.452 89.5701 178.031 88.1905 179.209 86.6845C179.441 86.3896 179.725 86.0842 179.988 85.7893C180.03 86.6845 180.156 87.5796 180.356 88.4959C180.924 91.1182 181.734 93.8248 183.565 95.8468C185.049 97.4897 186.732 99.6381 188.721 100.649C190.699 101.66 193.108 101.629 195.233 101.197C204.092 99.3959 210.079 90.6969 215.056 83.8831C216.455 81.9664 217.991 80.1445 219.496 78.312C220.979 76.5111 222.442 74.6997 223.915 72.8883C224.725 71.8878 225.462 70.782 226.398 69.9079C227.029 69.3182 227.766 68.8442 228.344 68.1913C228.997 67.4541 229.439 66.6011 229.617 65.6322C229.733 64.9476 229.607 64.2841 229.67 63.6101C229.712 63.1152 229.944 62.6412 230.007 62.1463C230.165 60.9352 229.533 59.6819 228.986 58.6288C228.734 58.1233 228.439 57.5967 228.071 57.1754C227.608 56.6489 226.777 56.2697 226.451 55.6589C225.988 54.7953 226.03 53.9423 225.083 53.3525C224.451 52.9629 223.736 52.9734 223.063 53.2367C221.916 53.6895 221.043 54.669 220.264 55.68C219.948 54.6058 219.275 53.8054 217.76 54.1213C216.171 54.4583 214.993 56.375 214.14 57.6072C213.036 59.1975 211.805 61.0194 211.215 62.8835C210.889 63.905 211.016 64.9055 211.215 65.9376C211.415 67.0118 211.689 67.8859 211.016 68.8653C210.563 69.5288 209.911 70.1185 209.374 70.7188C205.05 75.5528 200.684 80.6921 194.402 82.8721C194.381 82.8721 194.36 82.8932 194.339 82.8932C194.265 82.1876 194.139 81.4925 193.918 80.8395C193.508 79.5968 192.782 78.5016 192.182 77.3326C191.404 75.8055 191.014 74.1731 190.13 72.6882C189.331 71.3507 188.415 70.108 187.742 68.7073C186.869 66.8749 186.143 64.9687 185.259 63.1362C184.417 61.388 183.649 59.5977 183.018 57.7652C182.576 56.4698 182.166 55.2377 181.229 54.2056C180.303 53.2051 179.209 52.0782 178.136 51.2463C177.663 50.8777 177.147 50.5617 176.558 50.3932C175.59 50.1194 174.548 50.33 173.759 49.5612C173.296 49.1189 172.981 48.5713 172.781 47.9815C172.739 47.5919 172.717 47.2022 172.707 46.802C172.707 46.5703 172.612 46.4018 172.465 46.286C172.349 44.0638 173.128 41.5152 173.643 39.8091C174.359 37.4396 176.105 38.3031 177.936 37.9977C178.999 37.8187 179.956 37.3553 180.598 36.4707C181.156 35.7019 181.324 34.7856 181.429 33.8589C181.619 32.0685 182.292 30.4678 182.534 28.709C182.702 27.519 182.439 26.6238 183.313 25.6865C183.691 25.2758 184.06 24.9388 184.27 24.4017C184.67 23.3907 184.459 22.3059 183.849 21.4318C183.113 20.3681 181.829 19.81 181.166 18.7147C180.314 17.3035 181.04 15.4289 180.619 13.8597C180.114 11.9641 178.946 10.3001 178.42 8.39391C178.062 7.07749 177.463 6.14019 176.558 5.11864C176.358 4.89748 176.158 4.68685 175.958 4.47623C175.895 4.29719 175.769 4.18135 175.6 4.12869C174.327 2.90705 172.854 1.92762 171.234 1.30627C171.045 1.19042 170.824 1.12724 170.603 1.08511C170.287 0.979796 169.961 0.895545 169.635 0.821825C169.361 0.695448 169.151 0.548008 168.793 0.48482C168.162 0.379505 167.583 0.48482 166.941 0.326848C165.836 0.0635629 164.7 0.000374392 163.564 0.000374392C158.619 -0.0312199 154.431 1.93816 150.959 5.40299C147.655 8.69932 146.34 13.2384 145.646 17.7353C145.067 21.4845 141.29 19.3677 139.059 18.7674C136.945 18.1987 134.356 18.483 132.199 18.7042C127.381 19.1781 123.951 22.4428 120.605 25.6023C119.658 26.4974 118.627 27.2873 117.596 28.0771C116.48 28.9302 115.144 29.4252 114.06 30.2993C112.998 31.1628 111.998 32.6162 111.914 34.0063C111.819 35.5439 113.229 37.092 114.45 37.8503C115.786 38.6823 117.238 38.5875 118.764 38.577C122.383 38.5559 126.065 40.4094 129.653 39.0193C132.147 38.0504 134.209 36.2179 136.608 35.0595C137.429 34.6593 138.197 34.2591 138.754 33.5113C139.386 32.6583 139.554 31.5736 140.101 30.6784C140.69 29.699 141.563 28.8986 142.3 28.0245C143.015 27.182 143.72 26.2236 144.615 25.5496C145.341 25.002 145.909 24.8966 146.13 25.9919C146.224 26.4658 146.098 27.024 146.13 27.5084C146.182 28.7511 146.477 29.8148 147.161 30.8574C147.192 30.9101 147.224 30.9522 147.266 30.9943C149.833 33.5956 152.306 36.9235 155.978 37.9767C156.22 38.0504 156.935 38.0609 157.114 38.2084C157.724 38.7139 157.409 39.7881 157.219 40.42C156.893 41.5258 156.22 42.5473 155.589 43.4951C154.389 45.296 152.811 47.0653 150.696 47.7498C150.496 47.7498 150.286 47.7498 150.065 47.7814C149.854 47.813 149.654 47.8973 149.528 48.0447C147.697 48.4344 145.835 48.5607 144.036 49.1821C142.205 49.814 140.448 50.6565 138.786 51.6464C134.924 53.9423 131.4 56.8174 127.77 59.4397C123.288 62.6834 118.806 65.9165 114.313 69.1602C110.893 71.6245 106.706 73.9204 104.055 77.2799C102.971 78.6595 102.234 80.2919 102.361 82.0822C102.508 84.1464 103.749 86.1474 104.612 87.9798C106.748 92.4978 108.968 96.9947 111.693 101.197C114.218 105.104 117.29 108.516 120.352 112.002C121.836 113.698 123.288 115.414 124.561 117.278C125.823 119.121 126.623 121.343 128.043 123.049C129.274 124.524 131.063 125.282 132.747 126.114C133.041 126.262 133.336 126.409 133.641 126.567C130.79 132.328 129.169 138.436 130.916 145.397C131.084 146.05 131.284 146.692 131.494 147.324C131.505 147.388 131.515 147.461 131.526 147.524C132.105 151.253 130.947 154.707 129.916 158.256C128.054 164.638 125.613 170.894 124.014 177.349C122.709 182.605 122.046 188.323 118.932 192.904C118.195 193.989 117.227 195.2 116.123 195.927C114.797 196.79 113.135 196.548 111.63 196.432C108.263 196.18 104.907 195.348 101.519 195.4C98.2467 195.453 94.9008 196.295 91.6708 196.801C88.2092 197.338 84.7477 197.865 81.2756 198.402C77.814 198.928 74.3525 199.455 70.8909 199.992C69.3548 200.234 67.8081 200.476 66.272 200.719C64.6622 200.971 62.9262 201.403 61.2533 201.498C61.1586 201.277 60.9587 201.098 60.643 201.098C60.0749 201.098 59.5277 201.098 58.9911 201.14C58.2231 200.771 57.4971 200.192 56.8132 199.781C55.7505 199.139 54.6668 198.528 53.5305 198.023C51.7208 197.222 49.6902 196.601 47.6911 196.98C45.3974 197.422 43.9665 199.128 42.9775 201.129C41.5887 203.91 40.1998 206.637 38.4743 209.228C35.7913 213.251 32.5297 217.011 30.8883 221.634C29.5206 225.489 29.0787 230.807 30.4991 234.704C31.1303 236.42 31.9194 236.926 33.6239 237.4C35.6756 237.968 37.0644 237.505 38.7689 236.167C40.6102 234.714 41.5992 232.682 42.6408 230.628C44.0507 227.837 46.0077 225.847 48.3119 223.772C51.0264 221.329 54.2565 218.253 57.9916 217.558C60.3379 217.116 62.7789 217.822 65.1146 218.032C70.6805 218.517 76.4462 217.832 82.0121 217.537C88.4512 217.19 94.9009 216.842 101.34 217.011C104.696 217.106 108.053 217.327 111.388 217.727C113.177 217.938 114.965 218.211 116.733 218.538C118.195 218.801 119.721 219.317 121.204 219.349C123.572 219.401 125.865 218.264 127.98 217.348C129.064 216.874 129.864 216.242 130.895 215.673C131.978 215.073 133.062 214.599 133.999 213.767C143.226 205.574 148.592 194.484 151.538 182.668C152.148 180.235 152.622 177.781 152.979 175.296C154.147 176.791 155.304 178.308 156.472 179.803C161.87 186.691 167.457 193.715 172.076 201.161C174.096 204.415 176.074 207.638 177.042 211.387C178.168 215.747 178.431 220.265 179.009 224.72C179.314 227.016 179.672 229.322 180.335 231.544C180.672 232.671 181.24 233.714 181.577 234.851C181.861 235.82 181.997 236.799 182.208 237.779C183.271 242.665 185.101 247.552 186.627 252.323C188.174 257.157 190.004 261.864 191.803 266.603C193.603 271.363 194.644 276.355 196.012 281.242C196.065 281.41 196.149 281.526 196.265 281.61C196.212 281.947 196.065 282.253 195.728 282.506C194.581 283.38 192.256 282.895 190.899 282.895C187.763 282.895 184.617 282.864 181.482 282.832C175.137 282.758 168.825 283.338 162.48 283.348C149.223 283.348 135.966 283.148 122.709 283.001C96.5843 282.695 70.449 282.727 44.3242 282.706C29.7731 282.695 15.2219 282.758 0.670743 283.043C-0.223581 283.064 -0.223581 284.443 0.670743 284.433C28.0055 283.917 55.3402 284.117 82.6749 284.233C110.388 284.349 138.112 284.665 165.826 284.749C169.519 284.759 173.18 284.317 176.873 284.243C180.598 284.17 184.312 284.296 188.037 284.307C189.867 284.307 191.698 284.359 193.529 284.38C194.676 284.391 195.917 284.233 196.812 283.443C198.348 282.084 197.464 280.031 196.685 278.504C195.77 275.028 194.928 271.521 193.781 268.109C192.372 263.939 190.583 259.895 189.173 255.714C187.732 251.449 186.427 247.141 185.133 242.834C184.565 240.959 183.891 239.074 183.481 237.157C183.039 235.062 182.303 233.219 181.661 231.197C179.157 223.403 180.356 214.81 177.073 207.195C175.6 203.783 173.338 200.55 171.234 197.507C168.835 194.031 166.373 190.598 163.848 187.207C160.765 183.057 157.672 178.845 154.421 174.78C154.505 174.674 154.568 174.538 154.568 174.369C154.768 169.767 159.766 165.86 162.933 163.079C164.721 161.51 166.562 159.994 168.435 158.53C170.087 157.245 172.034 156.445 173.654 155.139C174.99 154.064 176.326 152.959 177.62 151.821C177.926 152.643 178.252 153.464 178.588 154.275C179.777 157.108 181.335 159.773 182.523 162.595C183.102 163.964 183.439 165.365 184.133 166.681C184.901 168.156 185.88 169.493 186.637 170.967C189.699 176.928 192.056 183.289 194.802 189.397C196.159 192.42 197.138 195.664 197.506 198.96C197.874 202.183 197.685 205.479 197.822 208.712C198.106 215.463 198.779 222.192 199.589 228.901C200.484 236.357 201.441 243.803 202.672 251.206C203.009 253.249 203.188 255.314 203.493 257.357C203.714 258.842 204.355 260.2 204.787 261.632C205.292 263.286 205.944 264.887 206.576 266.508C205.892 266.519 205.197 266.624 204.745 266.993C203.356 268.141 204.892 269.963 205.629 271.005C206.597 272.364 207.817 272.922 209.374 272.185C209.658 272.048 209.764 271.679 209.69 271.406C209.395 270.184 208.953 269.015 208.469 267.867C209.911 267.92 211.457 268.099 211.92 268.141C216.234 268.583 220.338 269.415 224.651 268.552C228.05 267.867 234.647 264.392 236.425 269.299C237.256 271.606 236.109 273.796 234.552 275.418C233.689 276.313 233.058 277.398 232.132 278.219C232.08 278.251 232.027 278.293 231.974 278.346C230.564 279.904 228.807 280.936 227.177 282.253C226.103 283.116 224.22 283.559 224.115 285.149C224.094 285.433 224.346 285.76 224.62 285.823C226.303 286.15 227.987 285.928 229.681 285.907C231.869 285.876 234.058 285.949 236.246 285.96C240.539 285.96 244.789 285.549 249.072 285.349C257.857 284.938 266.558 285.265 275.333 285.907C276.228 285.97 276.217 284.58 275.333 284.517L275.354 284.422ZM192.919 87.2848C192.856 86.9793 192.898 86.3264 192.971 85.9578C192.982 85.8946 193.003 85.8314 193.013 85.7788C192.992 86.2316 192.898 87.19 192.908 87.2848H192.919ZM179.325 54.332C180.566 55.4799 181.124 56.5436 181.671 58.1443C182.713 61.1668 184.238 63.9682 185.459 66.9065C185.996 68.2018 186.511 69.4972 187.216 70.7083C187.921 71.93 188.805 73.0463 189.436 74.3101C189.994 75.4369 190.278 76.6691 190.856 77.796C191.54 79.144 192.424 80.4077 192.771 81.9032C192.898 82.4508 192.971 83.009 193.013 83.5777C192.014 84.2938 191.488 85.3364 191.561 86.7898C191.625 87.9482 192.898 89.7491 194.034 88.2536C194.56 87.5691 194.434 85.7472 194.434 84.9784C194.434 84.7677 194.434 84.5677 194.434 84.357C194.792 84.2096 195.181 84.0937 195.57 83.9674C196.727 83.6093 197.738 83.1038 198.779 82.4508C201.199 80.9554 203.398 79.0913 205.408 77.0903C207.428 75.0788 209.28 72.8988 211.184 70.782C211.868 70.0238 212.646 69.3076 212.836 68.265C213.057 67.0434 212.51 65.8639 212.446 64.6527C212.331 62.5886 213.93 60.4507 215.024 58.8078C215.634 57.881 216.287 56.9332 217.097 56.1644C217.328 55.9433 217.644 55.5641 217.991 55.5009C219.317 55.2482 219.128 56.6699 219.17 57.4177C219.212 58.1549 220.053 58.3023 220.464 57.7652C221.221 56.7858 222.41 54.7006 223.757 54.4899C224.967 54.3004 224.851 55.7853 225.346 56.512C226.072 57.5862 227.208 58.1022 227.829 59.3344C228.471 60.5981 228.723 61.4723 228.45 62.8308C228.25 63.7997 228.492 64.8107 228.218 65.7691C227.745 67.433 226.145 68.1492 225.062 69.3287C222.347 72.288 219.959 75.637 217.402 78.7438C216.245 80.155 215.098 81.5662 214.014 83.0301C209.364 89.3489 204.135 97.079 196.233 99.5223C194.118 100.175 191.509 100.47 189.457 99.4591C188.373 98.922 187.658 98.0268 186.848 97.1632C186.059 96.3207 185.175 95.5625 184.417 94.6883C182.597 92.5821 181.766 89.2225 181.45 86.5054C181.103 83.525 182.061 81.2713 183.134 78.5753C184.144 76.0477 184.807 73.3412 184.154 70.6451C183.544 68.1176 182.039 65.9481 180.566 63.8629C178.841 61.4196 177.252 58.9026 175.832 56.2697C174.948 54.6479 174.138 53.0366 173.57 51.3516C173.612 51.3094 173.654 51.2568 173.696 51.1936C173.706 51.1725 173.717 51.162 173.728 51.1409C174.212 51.3832 174.759 51.5411 175.379 51.6254C177.21 51.8676 178.104 53.1735 179.378 54.353L179.325 54.332ZM155.883 36.4917C154.778 36.0915 153.779 35.4175 152.885 34.6698C151.222 33.2902 149.823 31.6157 148.308 30.0781C147.603 28.9618 147.519 27.8876 147.519 26.5922C147.519 25.9919 147.571 25.3284 147.308 24.7703C146.835 23.7171 145.74 23.4328 144.72 23.8435C143.3 24.4122 142.268 25.9182 141.311 27.0345C140.08 28.4879 138.965 29.6884 138.218 31.4577C137.302 33.6061 135.335 34.0168 133.462 35.2069C131.547 36.418 129.664 37.9451 127.317 38.103C125.308 38.2399 123.393 37.7555 121.457 37.3342C119.984 37.0078 118.448 37.25 116.954 37.1763C114.828 37.0604 112.577 34.9963 113.745 32.8268C114.271 31.8579 114.986 31.2997 115.923 30.7521C117.164 30.0254 118.248 29.2988 119.395 28.4141C123.14 25.5075 126.044 21.4634 130.895 20.2944C132.073 20.0101 133.23 20.0206 134.43 19.9785C135.661 19.9363 136.945 19.7362 138.176 19.9574C140.206 20.326 141.869 21.674 144.036 21.2422C145.456 20.9684 146.509 20.147 146.877 18.7252C147.403 16.6716 147.603 14.5653 148.224 12.5222C149.002 9.96309 150.801 7.45662 152.706 5.60309C154.778 3.59159 157.672 1.99081 160.555 1.50637C163.006 1.09564 165.247 1.69593 167.625 1.86444C167.709 1.91709 167.814 1.94869 167.93 1.94869C168.351 1.96975 168.761 2.03294 169.161 2.10666C169.245 2.12772 169.33 2.14878 169.424 2.16985C169.814 2.2541 170.192 2.36994 170.561 2.50685C170.666 2.58057 170.76 2.61217 170.866 2.6227C172.234 3.17033 173.475 4.02338 174.559 5.03439C174.169 8.9942 173.023 12.9645 170.929 16.3557C169.835 18.1249 168.414 19.8732 166.636 21.0106C165.058 22.0216 163.332 21.1896 161.607 21.2844C158.387 21.4423 157.356 24.7597 158.85 27.2978C159.787 28.8986 161.733 30.2887 161.975 32.2054C162.154 33.6588 161.144 34.554 160.144 35.3965C159.955 35.5544 158.24 37.0604 157.83 36.8393C157.661 36.7445 157.503 36.734 157.356 36.7656C156.862 36.6602 156.304 36.6497 155.873 36.4917H155.883ZM154.747 46.7388C156.251 45.2223 159.85 40.7254 158.745 38.0188C159.439 37.7344 160.092 37.1973 160.586 36.8182C162.091 35.6387 163.669 34.1959 163.385 32.1107C163.101 30.0254 161.386 28.6353 160.292 26.9819C159.524 25.8234 159.008 24.3701 160.197 23.2643C161.102 22.4323 162.312 22.685 163.438 22.8009C165.374 23.0115 166.552 22.8641 168.109 21.653C169.729 20.3997 171.055 18.799 172.128 17.0613C174.127 13.8281 175.274 10.1105 175.79 6.35082C176.705 7.45662 176.926 8.52029 177.389 9.85778C177.894 11.3427 178.894 12.7013 179.272 14.2178C179.798 16.3557 178.83 18.4304 180.545 20.1891C181.177 20.8421 182.008 21.316 182.566 22.0426C183.702 23.5276 182.439 24.2648 181.661 25.4127C180.935 26.4869 181.314 27.7612 181.05 28.9618C180.777 30.2255 180.23 31.4051 180.093 32.7004C179.956 33.9958 180.072 35.4281 178.82 36.239C177.578 37.0288 176.095 36.4075 174.759 36.6286C172.528 37.0078 172.318 39.5353 171.76 41.3257C171.171 43.2002 170.929 45.4961 171.318 47.4971V48.3712C171.318 48.5607 171.381 48.7082 171.486 48.824C171.55 49.2874 171.644 49.7613 171.75 50.2247C171.707 50.3511 171.686 50.4775 171.697 50.6038C170.866 55.1007 169.54 61.7777 163.595 60.6613C160.355 60.0505 157.02 58.2286 154.21 56.3961C154.389 55.8801 154.505 55.3324 154.557 54.7427C154.736 52.7733 154.126 49.7192 152.411 48.3922C153.242 47.992 154.031 47.4655 154.747 46.7388ZM150.791 50.0246C150.917 49.814 151.075 49.5823 151.212 49.3506C152.358 49.9088 152.916 51.5306 153.116 52.7628C153.284 53.7527 153.232 54.7006 153 55.5852C151.222 54.2688 149.497 52.2783 150.801 50.0246H150.791ZM133.409 124.914C131.095 123.766 129.285 122.818 128.001 120.448C123.898 112.823 117.143 107.252 112.524 99.9751C110.073 96.0995 108.021 91.9923 106.054 87.8535C105.065 85.7788 103.339 83.2302 103.781 80.829C104.17 78.7122 105.938 77.0903 107.527 75.8055C111.525 72.5829 115.87 69.7394 120.026 66.7274C124.035 63.8313 128.075 60.9562 132.063 58.0285C135.65 55.3851 139.217 52.5416 143.394 50.8987C145.32 50.1404 147.371 49.8877 149.318 49.4348C149.328 49.4559 149.339 49.477 149.36 49.5086C149.391 49.5612 149.444 49.6139 149.497 49.656C149.286 49.993 149.086 50.3405 149.002 50.7302C148.844 51.5095 148.939 52.352 149.17 53.0998C149.676 54.7006 150.97 55.8906 152.306 56.8279C152.358 56.87 152.422 56.9122 152.474 56.9437C152.169 57.5546 151.759 58.1233 151.275 58.6709C150.054 60.0294 148.634 61.209 147.424 62.5886C146.793 63.3258 146.193 64.1051 145.73 64.9582C145.614 65.1688 145.52 65.3794 145.425 65.6006C145.414 65.6006 145.404 65.6111 145.393 65.6216C144.815 66.1482 144.467 67.0328 144.257 68.0123C144.183 68.107 144.11 68.2124 144.025 68.2966C142.689 69.7605 140.269 70.4134 138.533 71.2349C136.282 72.2986 134.041 73.4149 131.842 74.5839C127.717 76.7639 123.446 78.9965 119.637 81.7031C118.637 82.4087 117.711 83.3355 117.827 84.6519C117.89 85.4102 118.311 86.0947 118.648 86.7477C119.311 88.0746 119.995 89.391 120.657 90.7075C122.983 95.2781 125.297 99.8593 127.623 104.43C129.474 108.074 131.231 111.412 135.145 113.108C136.85 113.845 138.66 114.266 140.459 114.719C140.532 114.74 140.606 114.751 140.68 114.772C138.449 118.258 136.124 121.722 134.23 125.324C133.956 125.187 133.683 125.05 133.409 124.914ZM145.93 81.3977C147.224 85.8419 147.224 90.3073 147.035 94.899C146.856 99.4169 146.971 103.703 144.815 107.821C143.805 109.738 142.668 111.623 141.49 113.508C140.901 113.382 140.322 113.255 139.785 113.118C137.628 112.571 135.387 111.981 133.567 110.643C131.526 109.148 130.411 106.842 129.295 104.641C128.001 102.102 126.718 99.5539 125.424 97.0158L122.015 90.3073C121.394 89.0856 120.773 87.864 120.152 86.6529C119.879 86.1052 119.321 85.347 119.237 84.7362C119.048 83.4829 120.457 82.8194 121.278 82.2929C126.034 79.2704 130.979 76.5111 136.019 73.9941C138.533 72.7409 141.321 71.7825 143.699 70.2976C143.805 70.2344 143.899 70.1607 143.994 70.0975C143.952 70.782 143.952 71.4139 143.952 71.9194C143.952 75.2368 145.015 78.2488 145.93 81.3872V81.3977ZM141.974 115.098C142.342 115.193 142.71 115.298 143.079 115.425C144.794 116.025 145.425 117.131 145.835 118.784C146.435 121.206 147.119 124.229 145.919 126.588C145.488 127.431 144.794 128.241 143.931 128.663C142.5 129.358 141.132 128.715 139.827 128.094C138.323 127.378 136.829 126.62 135.345 125.872C137.281 122.133 139.68 118.616 141.984 115.098H141.974ZM56.9079 202.899C56.6343 203.341 56.1924 203.762 55.9189 204.004C55.6664 204.226 55.3928 204.426 55.1087 204.605C54.9404 204.721 54.7615 204.805 54.5616 204.879C54.2986 205.005 54.267 205.005 54.4774 204.879C54.5195 204.542 55.3507 203.92 55.6348 203.678C56.0451 203.33 56.466 203.088 56.9079 202.909V202.899ZM151.748 174.085C150.223 186.122 145.877 198.454 137.881 207.701C136.061 209.807 133.999 212.43 131.526 213.767C129.401 214.915 127.454 216.126 125.182 216.99C123.993 217.443 122.677 217.938 121.383 217.938C119.763 217.938 118.006 217.327 116.407 217.053C113.261 216.505 110.083 216.116 106.906 215.873C94.238 214.915 81.5702 216.389 68.9023 216.705C66.0721 216.779 63.3786 216.295 60.5694 216.063C58.1284 215.863 55.9189 216.484 53.8146 217.716C52.068 218.738 50.4582 220.023 48.9221 221.329C46.8599 223.077 44.6294 224.888 43.0406 227.089C41.7149 228.922 40.9995 231.091 39.7474 232.966C38.9793 234.124 38.0114 235.072 36.8014 235.757C35.5283 236.483 34.5182 236.294 33.2031 235.82C31.1724 235.083 31.1198 231.776 31.0777 229.933C31.0251 227.626 31.2566 225.267 31.8458 223.035C33.0663 218.422 36.4016 214.557 39.0635 210.713C40.7259 208.312 42.1253 205.795 43.4299 203.194C44.7346 200.592 46.0603 197.98 49.4061 198.244C50.069 198.296 50.7108 198.433 51.342 198.623C51.342 198.834 51.4367 199.044 51.6682 199.192C52.2574 199.55 52.6467 200.013 53.3096 200.266C53.8461 200.476 54.4354 200.624 54.993 200.803C55.4559 200.95 56.2871 201.098 56.7816 201.477C55.6032 201.835 54.5511 202.488 53.6989 203.667C52.7624 204.952 53.2359 206.901 55.0982 206.153C56.4239 205.616 58.2546 204.131 58.5072 202.52C58.5072 202.52 58.5177 202.52 58.5282 202.52C58.6124 202.562 58.7071 202.614 58.7912 202.646C59.8749 203.12 61.2533 202.835 62.3896 202.709C68.9129 201.982 75.4362 200.666 81.9279 199.676C85.2842 199.16 88.6406 198.654 91.9969 198.128C95.4164 197.591 99.0042 196.664 102.476 196.79C105.696 196.906 108.884 197.622 112.103 197.854C114.439 198.023 116.175 197.823 117.911 196.18C121.52 192.767 122.983 187.828 124.077 183.142C125.466 177.213 127.16 171.462 129.032 165.66C130.021 162.595 130.979 159.53 131.842 156.434C132.357 154.559 132.831 152.78 132.999 150.947C135.209 155.286 138.439 159.099 141.763 162.648C144.204 165.259 146.73 167.787 149.076 170.493C150.023 171.578 150.938 172.705 151.843 173.832C151.801 173.906 151.78 173.99 151.759 174.085H151.748ZM175.537 151.705C173.854 153.148 172.202 154.465 170.266 155.549C168.362 156.613 166.699 158.098 165.016 159.467C163.185 160.963 161.375 162.5 159.671 164.143C157.083 166.618 153.926 169.63 153.295 173.348C151.959 171.715 150.601 170.104 149.202 168.545C144.457 163.248 138.986 158.435 135.293 152.274C134.188 150.421 133.325 148.493 132.715 146.524C132.42 145.007 132.021 143.533 131.768 142.006C131.389 138.562 131.747 135.034 132.904 131.548C133.409 130.032 134.02 128.568 134.714 127.136C136.492 128.052 138.27 128.979 140.101 129.768C143.152 131.095 146.13 129.8 147.392 126.704C148.224 124.65 147.95 122.365 147.55 120.238C147.192 118.352 146.866 116.183 145.235 114.961C144.531 114.435 143.678 114.098 142.794 113.845C142.879 113.708 142.973 113.571 143.058 113.434C145.32 109.896 147.424 106.41 148.118 102.197C148.476 100.049 148.308 97.7319 148.402 95.5519C148.508 93.0665 148.602 90.5811 148.476 88.1062C148.276 83.9674 146.845 80.3446 145.888 76.3742C145.435 74.4891 145.225 72.5092 145.393 70.5609C145.446 70.0027 145.509 69.0338 145.698 68.1702C146.214 67.2435 146.593 66.2219 147.224 65.1793C148.939 62.3464 152.053 60.5139 153.621 57.7125C156.704 59.7556 160.513 61.7566 164.058 62.1463C169.603 62.7571 171.571 57.6599 172.602 53.0471C173.991 56.7015 176.284 60.1453 178.389 63.2205C180.009 65.59 181.945 67.907 182.702 70.7399C183.607 74.11 182.071 77.2694 180.861 80.3235C180.619 80.9448 180.419 81.5662 180.282 82.1876C180.23 82.2402 180.177 82.3034 180.125 82.3771C179.651 83.2407 179.346 84.0411 178.852 84.8309C177.968 85.5997 177.094 86.3791 176.147 87.0636C176.074 87.0636 176 87.0636 175.937 87.0847C175.569 87.1794 175.264 87.3901 174.927 87.5691C174.454 87.8324 174.022 88.0851 173.612 88.3695C172.802 88.6644 171.981 88.9066 171.15 89.2331C168.404 90.3178 165.616 91.213 163.006 92.6347C161.102 93.6773 159.25 94.8674 157.567 96.247C156.63 97.0158 155.041 98.2058 154.926 99.5223C154.789 101.081 156.504 101.302 157.672 101.091C160.229 100.618 162.112 99.0483 164.058 97.4581C166.447 95.5098 169.119 93.9617 171.497 92.0344C172.37 91.3288 173.138 90.5074 174.012 89.8123C174.369 89.6754 174.717 89.5279 175.064 89.37C175.527 89.1593 175.979 88.9066 176.411 88.6222C175.443 91.1814 175.895 94.4988 175.979 97.1632C176.2 103.945 177.305 110.686 177.168 117.478C177.105 120.733 176.821 123.976 176.421 127.199C176.021 130.443 175.306 133.686 175.074 136.951C174.759 141.553 175.632 146.092 177.094 150.421C176.568 150.947 175.874 151.39 175.506 151.705H175.537ZM170.287 91.1077C169.14 91.9712 167.951 92.7716 166.752 93.6352C164.595 95.1939 162.659 97.1632 160.397 98.5534C159.492 99.1115 158.387 99.6171 157.325 99.7434C155.473 99.9646 156.83 98.7956 157.44 98.2058C160.407 95.3097 164.427 93.1192 168.309 91.7711C168.961 91.5395 169.624 91.3288 170.298 91.1077H170.287ZM206.533 269.784C206.365 269.52 205.629 268.583 205.66 268.288C205.702 267.983 206.291 267.835 207.091 267.793C207.501 268.867 207.87 269.952 208.175 271.058C207.428 271.132 206.954 270.447 206.533 269.784Z" fill="#E1C0D1"/>
</svg>
