<svg width="198" height="213" viewBox="0 0 198 213" fill="none" xmlns="http://www.w3.org/2000/svg">
<path d="M197.536 210.373C189.953 209.74 182.4 208.827 174.84 207.99C170.928 207.56 166.94 207.002 162.967 206.814C162.982 206.414 162.997 206.014 163.005 205.615C163.08 202.727 163.035 199.846 162.967 196.958C162.846 191.536 162.528 186.114 162.581 180.692C162.611 177.796 162.959 174.916 163.209 172.035C163.428 169.479 163.648 166.93 163.867 164.374C165.048 164.283 166.236 164.185 167.416 164.057C170.905 163.695 174.492 162.85 177.247 160.566C178.48 159.54 179.585 157.926 179.82 156.32C180.13 154.186 179.525 152.218 179.078 150.159C178.072 145.559 177.133 140.982 175.809 136.457C174.379 131.563 173.244 126.594 172.154 121.625C171.616 119.166 171.079 116.7 170.512 114.242C170.232 113.02 169.944 111.799 169.641 110.585C169.505 110.049 169.445 109.031 169.157 108.368C170.058 108.292 170.958 108.202 171.851 108.089C175.029 107.681 178.17 106.98 181.22 106C183.505 105.268 185.859 104.582 187.38 102.591C190.793 98.1272 189.09 91.4687 187.304 86.7481C187.054 86.0769 186.721 85.4209 186.502 84.7347C186.275 84.0258 186.252 83.2717 186.01 82.5704C185.836 82.0727 185.541 81.6505 185.299 81.1905C184.86 80.3685 184.686 79.4033 184.375 78.521C183.921 77.2164 183.392 75.942 182.839 74.6752C182.166 73.1217 181.182 71.5231 180.804 69.8716C180.539 68.7103 179.964 67.6772 179.449 66.5913C178.745 65.1133 178.057 63.6353 177.338 62.1724C176.006 59.4426 174.598 56.743 172.956 54.1866C171.511 51.9319 169.891 49.73 167.999 47.8146C166.735 46.5327 165.252 45.3864 163.527 44.8586C162.876 44.2402 162.316 43.5088 161.748 42.815C161.052 41.9704 160.28 41.2541 159.523 40.4698C157.571 38.4489 155.649 35.6361 155.634 32.7253C155.626 31.3303 156.02 29.9805 156.315 28.6307C156.64 27.1225 156.837 25.5917 157.094 24.0684C157.344 22.598 157.571 21.1049 157.556 19.6118C157.556 19.001 157.503 18.3977 157.412 17.802C157.367 17.5004 157.2 17.0931 157.336 16.799C157.775 15.8489 158.487 16.505 158.895 16.9046C159.826 17.8397 160.447 19.2347 161.014 20.4036C161.756 21.9344 162.165 23.5406 162.573 25.177C163.262 27.9445 164.306 30.5611 165.615 33.1024C166.766 35.3345 168.241 37.4459 170.315 38.9089C171.564 39.7911 174.568 41.3521 175.468 39.1652C175.809 38.3433 175.378 37.5741 174.992 36.8653C174.205 35.4099 173.501 33.9394 172.933 32.386C171.934 29.6261 171.185 26.8209 170.822 23.9025C170.496 21.3236 170.042 18.9407 168.514 16.784C167.174 14.8988 165.456 13.1493 163.353 12.1237C161.605 11.2641 159.183 10.7965 157.442 11.9503C156.86 12.3349 156.398 13.0814 155.785 12.2293C155.467 11.7919 155.165 11.3545 154.824 10.9323C153.923 9.81621 152.924 8.79065 151.963 7.72739C150.367 5.96283 148.853 4.2058 146.802 2.93894C144.925 1.77765 142.791 1.05374 140.635 0.601292C135.474 -0.484592 129.866 -0.130179 124.977 1.91339C119.756 4.0927 115.563 8.68508 112.665 13.4283C112.634 13.4811 112.619 13.5263 112.604 13.5791C110.341 17.0177 109.093 21.1652 109.146 25.2901C109.116 25.3579 109.1 25.4333 109.108 25.5238C109.116 25.6746 109.138 25.8179 109.169 25.9612C109.244 27.5674 109.524 29.1585 110.024 30.7044C110.682 32.748 111.976 34.7237 113.505 36.2243C114.277 36.9859 115.086 37.7174 115.783 38.5544C116.04 38.8636 116.403 39.2557 116.509 39.6629C116.524 39.7308 116.539 39.7836 116.539 39.8288C116.237 40.1983 116.002 40.6131 115.972 40.9524C115.949 41.2918 116.312 41.4954 116.6 41.435C117.046 41.337 117.455 40.681 117.553 40.2134C117.599 40.1682 117.652 40.1229 117.697 40.1003C118.015 39.9269 117.985 39.9646 118.257 40.3642C118.484 40.6885 118.613 41.0882 118.742 41.4652C119.006 42.2721 119.165 43.1166 119.271 43.9461C119.355 44.557 119.302 45.311 119.642 45.854C120.232 46.789 121.443 46.7137 122.336 46.314C122.783 46.1104 123.176 45.9294 123.502 45.7107C123.592 45.8917 123.698 46.0727 123.804 46.2461C124.319 47.1284 124.425 48.4782 125.492 48.9156C125.84 49.0588 126.241 49.0664 126.65 49.0061C126.695 49.0815 126.763 49.1493 126.831 49.1946C128.708 50.3483 129.783 52.309 131.917 53.1234C133.718 53.8096 135.557 53.3119 137.169 52.3693C138.342 51.6831 139.386 50.8159 140.438 49.9562C140.34 50.6801 140.188 51.4041 139.954 52.1355C139.076 54.903 137.539 57.3764 136.238 59.9554C135.186 62.0442 134.248 64.2989 132.969 66.2897C132.378 65.5432 131.758 64.8117 131.137 64.118C130.494 63.4016 129.821 62.7153 129.117 62.0668C129.064 61.1846 128.958 60.3023 128.859 59.42C128.693 57.8741 128.33 56.2377 127.036 55.2273C126.355 54.6994 125.734 54.6843 125.182 55.001C124.546 53.7945 123.509 53.0103 122.215 53.8021C122.139 53.5306 122.011 53.2817 121.776 53.048C120.762 52.0375 119.438 52.8293 118.515 53.5758C117.44 54.443 116.259 55.5968 115.374 56.9013C113.603 57.7233 112.105 59.2315 110.947 60.7623C109.766 62.3232 108.775 64.2914 109.993 66.1012C110.228 66.4556 110.5 66.7422 110.796 66.9835C108.904 68.1146 107.027 69.2759 105.165 70.4674C102.948 71.8926 100.761 73.3631 98.6117 74.8788C96.7425 76.1909 94.8355 77.4954 93.3371 79.2298C92.0052 80.7682 90.9986 82.5176 91.0213 84.5914C91.0441 87.2156 92.55 89.0707 94.0409 91.0765C95.6074 93.1804 97.1436 95.307 98.6571 97.4486C99.0657 98.0217 99.4971 98.5948 99.8755 99.183C100.269 99.8013 100.383 99.8541 99.6712 100.156C98.4301 100.676 96.7728 100.646 95.4409 100.865C90.7035 101.626 86.0192 102.652 81.2894 103.474C78.7391 103.919 76.1813 104.296 73.6083 104.567C72.3672 104.695 71.1186 104.793 69.8699 104.884C68.2277 105.012 66.9942 104.379 65.6018 103.587C64.2093 102.787 61.765 101.128 60.1077 101.981C58.2839 102.923 59.2147 105.487 59.5023 107.041C59.9866 109.612 60.6828 112.146 61.6439 114.581C61.9163 115.268 62.1055 116.142 62.8245 116.497C63.2936 116.731 64.005 116.821 64.4666 116.565C65.2082 116.15 65.8666 115.064 66.4645 114.461C67.312 113.609 68.2504 112.817 69.3931 112.402C70.6645 111.942 72.1402 111.897 73.4872 111.738C74.8494 111.58 76.2191 111.437 77.5888 111.309C82.4321 110.856 87.2906 110.6 92.149 110.313C94.669 110.17 97.189 110.012 99.709 109.816C102.221 109.62 104.976 109.016 107.473 109.574C108.783 109.868 109.449 110.653 110.357 111.535C111.113 112.274 111.976 112.93 112.899 113.443C114.61 114.393 116.547 114.875 118.499 114.883C118.151 117.002 117.637 119.106 117.13 121.187C116.244 124.822 115.253 128.434 114.231 132.031C113.096 136.028 111.916 140.009 110.72 143.991C110.621 144.157 110.523 144.315 110.417 144.466C109.842 145.273 109.592 146.253 109.274 147.188C108.843 148.425 108.442 149.631 108.162 150.906C107.912 152.059 107.64 153.417 107.496 154.812C107.405 155.136 107.307 155.46 107.216 155.792C107.178 155.92 107.193 156.034 107.239 156.132C106.308 158.318 107.186 160.158 108.767 161.403C109.055 161.78 109.396 162.127 109.797 162.428C111.068 163.386 112.748 163.295 114.337 163.182C115.412 163.22 116.502 163.182 117.584 163.205C119.347 163.235 121.11 163.295 122.873 163.371C123.312 163.476 123.729 163.627 124.069 163.853C124.069 163.884 124.069 163.906 124.069 163.936C124.069 164.132 124.198 164.321 124.379 164.396C124.364 166.915 124.947 169.411 125.462 171.862C126.044 174.637 126.665 177.412 127.285 180.179C128.534 185.805 129.768 191.438 130.661 197.139C130.88 198.519 130.986 199.944 131.342 201.294C131.606 202.312 132.038 203.269 132.303 204.287C132.863 206.384 133.514 210.003 131.228 211.331C130.146 211.957 128.738 211.851 127.535 211.874C126.044 211.896 124.546 211.911 123.055 211.919C119.907 211.941 116.751 211.934 113.603 211.904C101.404 211.798 89.2127 211.368 77.0288 210.923C74.645 210.833 69.6656 211.512 69.4234 208.201C69.3401 207.002 69.9455 205.683 70.3542 204.566C70.8083 203.337 71.3456 202.131 71.7618 200.887C72.1099 199.846 72.0872 198.768 72.5791 197.787C73.0861 196.762 73.1543 195.48 73.4191 194.371C74.0472 191.747 75.4397 189.319 76.4008 186.8C77.5056 183.897 81.8797 176.514 76.4537 175.308C73.9488 174.75 71.3985 174.961 68.8634 175.082C67.5164 175.15 66.1542 175.187 64.8072 175.052C64.0201 174.976 62.8699 175.029 62.5445 174.147C62.2569 173.37 62.6277 172.473 62.8699 171.741C64.5347 166.734 66.9866 161.704 70.1045 157.429C71.6105 155.362 73.3737 153.477 75.2959 151.796C76.2267 150.981 77.218 150.265 78.0732 149.382C78.6861 148.749 79.2689 148.327 79.5413 147.437C80.8051 143.259 74.3878 144.458 72.284 145.182C70.9596 145.642 69.7337 146.298 68.6061 147.098C68.8407 145.974 69.0602 144.85 69.2872 143.749C69.8169 141.155 70.5055 138.335 70.4526 135.673C70.4147 133.939 69.6429 132.536 67.6904 132.755C65.9499 132.951 64.7239 134.565 63.6417 135.764C62.0904 137.483 60.9174 139.421 60.1001 141.593C58.6168 145.537 57.0579 149.496 55.8547 153.537C55.7941 153.183 55.7336 152.829 55.673 152.489C55.1055 148.862 54.4471 145.235 53.1908 141.774C51.4049 136.857 50.7087 130.568 46.4633 127.016C46.2817 126.865 46.0697 126.828 45.8578 126.941C43.807 127.997 43.8297 131.382 43.807 133.32C43.7616 136.955 44.1097 140.582 44.6849 144.172C45.2751 147.889 46.1152 151.562 47.0157 155.212C47.4471 156.961 47.9011 158.711 48.3476 160.452C48.5822 161.357 48.8092 162.27 49.0362 163.175C49.0514 163.235 49.0665 163.303 49.0816 163.363C48.7865 162.843 48.5368 162.33 48.3249 161.727C47.7649 160.113 47.0308 158.552 46.1681 157.082C44.5184 154.261 42.4221 151.599 40.1519 149.247C37.9497 146.962 35.3994 144.888 32.4556 143.636C30.2383 142.694 27.2112 141.97 24.8274 142.769C21.5128 143.885 26.4394 147.211 27.4988 147.942C28.9518 148.953 30.5334 149.842 31.8956 150.966C32.7205 151.645 33.6362 152.12 34.4383 152.851C35.7324 154.02 36.9962 155.219 38.207 156.471C40.5075 158.854 42.6416 161.463 44.1249 164.442C44.8211 165.844 45.3584 167.322 45.6762 168.861C45.9032 169.946 46.6373 173.038 45.3508 173.589C43.5043 174.38 41.1281 174.169 39.1605 174.132C37.8362 174.109 36.5118 174.064 35.1875 174.003C34.0448 173.951 32.834 173.709 31.6989 173.792C29.5496 173.943 28.1345 176.19 28.1345 178.234C28.1345 178.928 28.4599 179.674 28.6491 180.345C28.8988 181.243 29.1486 182.14 29.3907 183.037C29.9053 184.9 30.4275 186.762 30.9572 188.618C31.9485 192.101 32.9702 195.585 34.0524 199.039C34.5518 200.623 35.0588 202.206 35.5886 203.782C35.8837 204.68 36.194 205.577 36.4967 206.474C36.6859 207.032 36.9356 207.636 36.8297 208.239C36.4891 210.199 33.3032 210.365 31.7897 210.471C29.8902 210.607 27.9907 210.509 26.0988 210.637C17.5777 211.217 8.996 210.463 0.482436 210.041C-0.160812 210.011 -0.160812 211.006 0.482436 211.037C8.12573 211.414 15.7766 211.994 23.435 211.753C25.4328 211.693 27.4156 211.572 29.4134 211.549C31.2902 211.527 33.2729 211.504 35.0816 210.939C36.4059 210.524 37.7075 209.709 37.8438 208.201C37.9346 207.198 37.4729 206.225 37.1551 205.298C36.5118 203.413 35.8913 201.512 35.2935 199.612C34.1962 196.151 33.167 192.667 32.168 189.183C31.6837 187.479 31.2069 185.782 30.7302 184.078C30.2383 182.306 29.5572 180.496 29.2394 178.694C29.0275 177.48 29.6707 175.617 30.8286 175.021C31.8275 174.509 33.1972 174.878 34.2642 174.946C36.6934 175.097 39.1454 175.202 41.5822 175.142C43.0276 175.104 45.8654 175.165 46.7584 173.792C47.3411 172.902 47.0157 171.198 46.9022 170.203C46.7281 168.68 46.3573 167.194 45.8049 165.769C43.5573 159.992 38.8503 155.362 34.2567 151.358C33.6437 150.823 32.9172 150.506 32.2664 150.008C31.5853 149.488 30.8589 149.013 30.1475 148.538C28.634 147.527 27.0523 146.562 25.7053 145.341C25.448 145.107 24.5399 144.39 24.7215 143.961C24.9864 143.32 27.1961 143.501 27.688 143.523C31.6459 143.682 35.1951 145.974 38.0254 148.576C40.8481 151.17 43.3757 154.299 45.313 157.61C46.3573 159.397 46.9249 161.312 47.7725 163.175C48.0373 163.763 48.5292 164.238 48.7033 164.864C48.8168 165.279 48.7562 165.603 49.1952 165.837C49.2027 165.837 49.2179 165.844 49.2254 165.852C49.3238 166.003 49.4298 166.138 49.5206 166.251C49.6644 166.493 49.8914 166.538 50.0806 166.47C50.2773 166.432 50.4438 166.274 50.4438 166.003C50.4438 165.701 50.4438 165.135 50.3 164.706C50.2622 164.268 50.2168 163.838 50.1033 163.393C49.899 162.564 49.6871 161.727 49.4752 160.897C49.0665 159.306 48.6579 157.708 48.2568 156.116C47.4319 152.844 46.6525 149.563 46.0395 146.245C45.4189 142.912 44.9724 139.549 44.8438 136.163C44.7757 134.459 44.647 132.619 44.9195 130.93C45.0708 130.01 45.2978 128.675 46.0697 128.034C49.8838 131.503 50.5422 137.453 52.2298 142.075C53.3876 145.243 54.0309 148.568 54.5682 151.886C54.7876 153.236 54.9844 154.586 55.1963 155.935C55.0752 156.418 54.9541 156.901 54.8406 157.383C54.3865 159.351 53.7055 161.305 55.4687 162.783C55.6049 162.911 55.7941 162.948 55.953 162.903C56.1195 162.873 56.2709 162.767 56.3012 162.564C56.9066 160.43 56.6493 158.092 56.2558 155.822C56.3693 155.4 56.4828 154.978 56.6039 154.563C57.3303 152.059 58.2082 149.609 59.1087 147.165C59.9941 144.775 60.7282 142.234 61.9012 139.971C62.9077 138.049 64.3455 136.239 65.965 134.776C66.7217 134.09 68.2807 133.109 69.1812 134.225C69.8699 135.077 69.378 137.113 69.2494 138.079C68.8937 140.839 68.3337 143.576 67.7207 146.291C67.5769 146.924 67.4331 147.55 67.2893 148.176C66.0028 149.307 64.8601 150.619 63.8839 152.022C62.7639 153.636 61.8407 155.377 61.0688 157.18C60.2893 159.012 59.8958 161.01 59.0633 162.805C58.8136 163.341 58.5033 163.959 58.7833 164.547C59.086 165.188 59.8655 165.241 60.4785 165.007C61.3563 164.668 61.7953 163.861 62.2115 163.077C62.832 161.908 63.4526 160.739 64.058 159.563C65.2915 157.15 66.4342 154.684 67.3045 152.12C67.6904 150.989 68.0007 149.82 68.2731 148.636C68.818 148.191 69.3856 147.776 69.991 147.407C71.6785 146.374 73.5705 145.718 75.5456 145.552C76.2872 145.491 78.0505 145.235 78.5273 145.951C79.1705 146.932 78.1716 147.852 77.5813 148.47C76.0072 150.144 74.1002 151.471 72.4883 153.123C70.9293 154.721 69.5218 156.463 68.3034 158.333C65.6774 162.345 63.5055 166.779 61.9769 171.319C61.6742 172.209 61.3715 173.053 61.4925 174.003C61.6288 175.067 61.8558 175.564 62.885 175.798C65.2915 176.349 67.7661 176.183 70.2029 176.054C71.4667 175.987 72.7456 175.926 74.0094 176.009C75.2429 176.092 77.1651 176.168 77.8235 177.397C78.4743 178.618 77.9142 180.127 77.551 181.356C77.1499 182.698 76.4688 183.905 75.9391 185.186C75.0007 187.449 74.0623 189.734 73.1618 192.018C72.7229 193.135 72.4353 194.235 72.1856 195.404C72.0721 195.94 72.0266 196.581 71.8299 197.086C71.6937 197.425 71.4742 197.704 71.3531 198.051C70.9823 199.13 70.9596 200.261 70.551 201.339C70.1272 202.47 69.6656 203.586 69.2569 204.725C68.6364 206.467 67.9099 208.397 68.9618 210.132C69.9607 211.783 72.3294 211.806 74.0548 211.874C76.8699 211.987 79.6775 212.077 82.4927 212.175C93.8517 212.582 105.218 212.929 116.585 212.975C119.408 212.99 122.223 212.975 125.045 212.952C127.058 212.929 129.556 213.276 131.44 212.386C135.027 210.705 133.771 205.449 132.772 202.568C131.932 200.148 131.743 197.569 131.311 195.05C130.865 192.433 130.358 189.832 129.821 187.238C128.738 182.027 127.52 176.854 126.423 171.651C125.87 169.019 125.235 166.357 125.393 163.65C125.393 163.612 125.393 163.574 125.393 163.537C134.823 164.004 144.222 164.751 153.674 164.781C156.739 164.788 159.803 164.698 162.868 164.494C162.588 167.677 162.308 170.859 162.028 174.041C161.612 178.807 161.552 183.429 161.695 188.21C161.854 193.572 162.081 198.933 162.013 204.295C162.006 205.14 161.975 205.984 161.945 206.829C160.757 206.791 159.569 206.791 158.388 206.836C156.897 206.897 155.255 207.108 153.999 207.975C153.068 208.623 153.099 209.574 154.052 210.169C155.286 210.938 156.966 211.127 158.381 211.255C159.508 211.353 161.249 211.557 162.248 210.863C162.815 210.471 162.762 209.875 162.815 209.242C162.853 208.767 162.883 208.292 162.906 207.817C166.637 207.998 170.391 208.548 174.031 208.94C181.855 209.8 189.673 210.758 197.52 211.414C198.164 211.466 198.156 210.471 197.52 210.418L197.536 210.373ZM55.6427 160.452C55.5973 160.475 55.5595 160.498 55.5065 160.52C55.4611 160.55 55.4157 160.581 55.3779 160.618C55.2871 159.992 55.4384 159.321 55.5973 158.612C55.6503 159.223 55.673 159.842 55.6427 160.445V160.452ZM62.2115 160.95C61.939 161.47 61.659 161.991 61.379 162.519C61.2504 162.76 61.1217 163.077 60.9628 163.31C60.7585 163.597 59.7368 164.411 59.8125 163.605C59.8428 163.265 60.1758 162.866 60.3044 162.541C60.4633 162.157 60.5466 161.749 60.6677 161.35C61.205 159.465 61.9012 157.625 62.779 155.875C63.8536 153.726 65.2007 151.645 66.8807 149.903C66.525 151.26 66.1163 152.602 65.5866 153.922C64.6104 156.335 63.4223 158.658 62.2115 160.958V160.95ZM170.852 120.335C171.715 124.286 172.585 128.23 173.592 132.152C174.628 136.178 175.9 140.122 176.793 144.187C177.232 146.185 177.633 148.199 178.064 150.197C178.526 152.331 179.313 154.571 178.722 156.757C178.253 158.507 176.588 160 175.075 160.882C173.554 161.765 171.866 162.3 170.156 162.654C168.135 163.069 166.047 163.303 163.951 163.446C164.072 162.006 164.193 160.558 164.321 159.118C165.063 150.506 165.857 141.902 166.887 133.32C167.416 128.917 167.939 124.565 168.241 120.139C168.393 117.884 168.529 115.622 168.612 113.36C168.642 112.583 168.695 111.776 168.711 110.969C168.756 111.158 168.801 111.346 168.854 111.535C169.096 112.523 169.331 113.511 169.558 114.498C170.005 116.436 170.436 118.382 170.86 120.328L170.852 120.335ZM167.432 48.6516C171.223 52.5653 173.909 57.4292 176.293 62.278C177.527 64.7966 179.131 67.451 179.835 70.1506C180.107 71.1837 180.645 72.1716 181.084 73.1444C181.734 74.5922 182.385 76.0476 182.96 77.5331C183.43 78.7548 183.71 80.0744 184.224 81.2659C184.421 81.7183 184.724 82.118 184.928 82.5704C185.276 83.3471 185.284 84.1993 185.541 84.9986C186.373 87.57 187.501 89.9605 187.993 92.645C188.507 95.4653 188.454 98.5948 187.092 101.189C185.775 103.692 182.998 104.409 180.493 105.193C174.568 107.041 168.605 107.508 162.429 107.538C156.315 107.568 150.208 107.372 144.093 107.297C140.544 107.259 137.01 107.297 133.476 107.41C135.912 105.103 138.236 102.554 139.817 99.7033C139.84 99.658 139.863 99.6128 139.885 99.5675C140.529 99.7636 141.164 99.9295 141.861 99.8842C144.434 99.7259 146.908 98.9416 149.307 98.0443C151.918 97.0715 154.423 96.1063 157.155 95.503C159.97 94.8847 162.868 94.6132 165.699 94.0175C167.25 93.6932 168.801 93.3991 170.353 93.1126C171.223 94.8545 172.835 95.9404 174.863 95.4578C176.271 95.126 178.526 93.8214 177.451 92.0719C176.498 90.511 174.053 91.431 172.661 91.6572C172.071 91.7552 171.48 91.8608 170.898 91.9663C170.693 91.4309 170.534 90.8805 170.368 90.3828C169.891 88.9425 169.498 87.472 168.953 86.0468C167.976 83.4829 166.637 81.0396 165.275 78.6567C163.973 76.3794 162.74 73.823 161.029 71.8398C160.636 71.3798 160.462 70.8519 160.053 70.407C159.645 69.9621 159.274 69.5926 159.001 69.0421C158.456 67.9562 157.624 67.0891 156.981 66.0333C155.49 63.575 153.992 61.1695 153.477 58.2964C152.947 55.3781 153.53 52.4447 155.172 49.9713C156.557 47.89 158.388 45.7559 161.067 45.5448C161.756 45.492 162.407 45.5674 163.035 45.7333C163.126 45.7937 163.232 45.8238 163.322 45.8163C164.896 46.3215 166.274 47.43 167.424 48.629L167.432 48.6516ZM118.303 107.161C120.111 107.01 121.905 106.716 123.721 106.671C124.046 106.663 124.205 106.415 124.205 106.173C124.205 105.924 124.046 105.676 123.721 105.676C123.358 105.661 122.972 105.623 122.601 105.661C122.525 105.668 122.45 105.698 122.389 105.736C121.436 105.796 120.482 105.864 119.536 105.789C118.742 105.721 118.015 105.54 117.273 105.246C117.273 105.246 117.266 105.246 117.258 105.246C118.643 104.899 120.036 104.597 121.451 104.379C123.1 104.115 124.758 104.115 126.339 103.549C126.589 103.489 126.703 103.27 126.695 103.059C126.71 102.848 126.604 102.644 126.339 102.591C125.144 102.252 123.956 102.147 122.745 101.883C122.488 101.83 122.102 101.83 121.95 101.596C121.746 101.272 122.684 101.196 122.919 101.129C123.729 100.902 124.569 100.782 125.401 100.684C128.163 100.382 130.774 100.193 133.461 99.4393C134.951 99.0246 136.404 98.7682 137.948 99.0246C138.228 99.0698 138.508 99.1377 138.773 99.2207C138.493 99.7561 138.175 100.276 137.812 100.774C136.896 102.033 135.814 103.21 134.694 104.288C133.362 105.57 131.387 106.369 129.692 107.063C129.192 107.267 128.685 107.463 128.171 107.644C127.308 107.697 126.453 107.749 125.59 107.81C124.016 107.923 122.419 108.043 121.057 108.858C120.558 108.835 120.058 108.798 119.566 108.722C118.855 108.617 117.841 108.511 117.213 108.134C115.889 107.342 117.561 107.222 118.295 107.161H118.303ZM134.702 81.198C134.641 81.1678 134.581 81.1377 134.528 81.1075C134.24 80.7908 133.945 80.4816 133.657 80.1649C133.279 79.3656 133.264 78.3325 133.226 77.503C133.158 76.0174 132.764 74.6752 132.356 73.2499C132.03 72.1188 131.743 70.9198 131.205 69.8566C131.887 69.3287 132.484 68.6802 133.007 67.9864C134.225 69.668 135.277 71.4628 135.988 73.3932C136.578 74.9994 136.949 76.7112 136.828 78.4305C136.752 79.4334 136.51 80.4288 136.087 81.3413C135.935 81.6655 135.754 81.9672 135.602 82.2764C135.39 82.0426 135.178 81.8088 134.959 81.575C134.959 81.4242 134.891 81.2734 134.702 81.1905V81.198ZM124.735 68.4389C123.085 67.3681 121.473 66.2746 120.187 64.8419C120.187 64.5629 120.051 64.3291 119.846 64.1406C119.869 64.1406 119.892 64.1406 119.907 64.133C120.618 63.9671 120.739 63.2809 120.944 62.6852C121.39 61.3806 121.723 60.0308 121.943 58.6659C121.95 58.5981 121.965 58.5302 121.973 58.4623C122.283 58.6056 122.593 58.7489 122.896 58.9072C122.321 60.7095 122.018 62.5871 122.018 63.3337C122.018 63.9143 121.973 64.6534 122.556 64.9927C123.093 65.3094 123.827 64.9927 124.273 64.6533C125.431 63.7484 125.515 62.0216 125.681 60.6793C125.681 60.6416 125.689 60.6039 125.696 60.5738C126.544 61.1619 127.346 61.8104 128.11 62.4967C128.171 63.6127 128.148 64.7061 127.815 65.8599C127.437 67.172 126.786 68.3257 126.566 69.6303C125.931 69.2985 125.341 68.831 124.743 68.4464L124.735 68.4389ZM115.556 58.7338C115.722 58.3718 115.919 58.0249 116.131 57.6931C116.872 57.399 117.659 57.2633 118.484 57.3538C118.333 57.5423 118.197 57.7308 118.06 57.9194C117.273 59.0052 116.509 60.4455 116.895 61.8255C116.956 62.0517 117.077 62.3006 117.243 62.5495C116.396 62.4891 115.525 62.2629 115.162 61.5013C114.761 60.6492 115.2 59.518 115.563 58.7338H115.556ZM121.193 57.0974C120.906 56.9918 120.626 56.8938 120.338 56.8033C120.596 56.5394 120.83 56.3132 121.012 56.1473C121.11 56.0568 121.209 55.9587 121.315 55.8456C121.292 56.2679 121.239 56.7053 121.186 57.0974H121.193ZM121.042 58.0702C121.019 58.2059 120.997 58.319 120.989 58.402C120.868 59.1561 120.717 59.8951 120.528 60.6341C120.414 61.0865 120.285 61.5314 120.142 61.9763C119.907 62.7078 119.824 63.1829 118.953 62.8209C118.825 62.7681 118.711 62.7078 118.605 62.6475C118.59 62.64 118.583 62.6324 118.567 62.6249C116.782 61.5314 118.227 59.2239 119.627 57.6027C120.104 57.7384 120.58 57.8967 121.05 58.0853L121.042 58.0702ZM118.696 64.6006C118.802 64.7514 118.9 64.8947 119.014 65.0379C118.757 66.1012 114.579 66.9533 114.103 66.9609C113.732 66.9684 113.361 66.9382 112.998 66.8628C113.187 66.7497 113.376 66.6366 113.565 66.531C114.322 66.0861 115.094 65.6714 115.889 65.3094C116.373 65.0907 116.872 64.8871 117.395 64.7665C117.455 64.7514 118.272 64.5779 118.696 64.6006ZM124.811 57.0899C124.894 57.6705 124.894 58.2662 124.864 58.8695C124.614 58.7187 124.364 58.5754 124.107 58.4321C124.311 57.9721 124.546 57.5197 124.811 57.0899ZM123.774 59.3747C124.115 59.5633 124.44 59.7593 124.765 59.9629C124.728 60.2796 124.69 60.5964 124.652 60.9055C124.553 61.7049 124.493 63.5901 123.57 63.952C122.949 64.1934 123.078 63.8766 123.017 63.3412C122.979 62.9491 123.032 62.5042 123.078 62.1121C123.176 61.1695 123.411 60.2419 123.736 59.3521C123.751 59.3521 123.759 59.3672 123.774 59.3747ZM128.239 67.5264C128.799 68.19 129.374 68.8612 129.858 69.5851C129.503 69.7811 129.124 69.932 128.731 70.0149C128.299 70.1054 127.891 70.0828 127.505 69.9923C127.581 69.1553 127.913 68.3333 128.246 67.5264H128.239ZM129.344 70.8745C129.699 70.7614 130.032 70.6106 130.35 70.4296C130.464 70.6559 130.57 70.8821 130.653 71.1159C131.19 72.5863 131.682 74.1775 132.015 75.7082C132.197 76.5604 132.182 77.6312 132.28 78.6643C131.062 77.2994 129.919 75.8968 128.981 74.2981C128.383 73.2801 127.724 72.1867 127.535 71.0103C128.095 71.1159 128.693 71.0932 129.344 70.8745ZM120.172 113.45C120.444 112.387 120.777 111.354 120.86 110.26C121.019 110.11 121.193 109.966 121.383 109.846C123.782 109.883 126.196 109.386 128.474 108.594C129.253 108.541 130.032 108.503 130.819 108.466C130.645 108.624 130.479 108.79 130.305 108.948C127.792 111.309 124.622 113.043 121.209 113.661C120.838 113.729 120.459 113.782 120.089 113.82C120.119 113.699 120.142 113.578 120.172 113.458V113.45ZM131.334 107.485C131.652 107.357 131.97 107.214 132.288 107.071C132.151 107.199 132.015 107.335 131.871 107.463C131.69 107.463 131.508 107.478 131.326 107.485H131.334ZM171.336 92.9391C172.237 92.7732 173.138 92.5998 174.038 92.4263C174.545 92.3283 175.067 92.2001 175.582 92.2152C176.528 92.2378 176.974 92.9542 176.324 93.6932C175.438 94.7037 173.463 94.8696 172.411 94.1607C171.949 93.8516 171.609 93.4217 171.336 92.9391ZM161.9 44.572C161.9 44.572 161.847 44.572 161.824 44.572C161.847 44.572 161.862 44.5645 161.885 44.557C161.885 44.557 161.9 44.572 161.9 44.5796V44.572ZM156.156 37.6948C155.77 37.3931 155.46 37.0387 155.286 36.443C155.195 36.1187 155.142 35.7869 155.119 35.4476C155.384 36.2243 155.74 36.9784 156.156 37.6948ZM110.22 23.4727C110.463 19.8606 111.772 16.4446 113.868 13.4961C113.929 13.4132 113.951 13.3303 113.959 13.2549C116.592 9.13755 120.293 5.14089 124.758 3.09731C129.23 1.05374 134.467 0.563579 139.295 1.37045C141.626 1.75504 143.964 2.43371 146.008 3.63271C148.119 4.87695 149.64 6.64906 151.26 8.44378C152.122 9.40147 153.03 10.329 153.855 11.3244C154.446 12.0408 155.021 13.3604 155.921 13.7676C156.625 14.0843 157.041 13.6696 157.518 13.2171C158.668 12.1313 160.318 12.1162 161.771 12.5611C164.314 13.3453 166.418 15.4492 167.863 17.6059C169.437 19.9511 169.619 22.5829 170.005 25.2976C170.383 28.0199 171.223 30.7195 172.207 33.2834C172.646 34.4221 173.13 35.5381 173.705 36.6089C174.114 37.3781 175.135 39.0748 173.592 39.2407C172.759 39.3311 171.828 38.7203 171.147 38.283C166.236 35.0932 164.541 28.4572 163.095 23.2012C162.452 20.8636 161.4 18.4052 159.849 16.5125C159.009 15.4794 157.215 14.5745 156.474 16.241C156.02 17.259 156.542 18.5787 156.557 19.6193C156.58 21.5196 156.201 23.3898 155.876 25.2523C155.603 26.7907 155.346 28.3215 155.013 29.8523C154.9 30.3726 154.801 30.908 154.726 31.4359C154.211 30.9155 153.333 30.9382 152.637 31.1795C151.979 31.4057 151.547 31.7526 150.813 31.7903C149.92 31.8355 148.982 31.8355 148.089 31.7752C147.166 31.7073 146.295 31.466 145.433 31.1418C144.895 30.9382 144.01 30.7723 143.594 30.365C143.041 29.8296 143.692 29.0906 143.858 28.4874C143.98 28.05 143.98 27.5976 143.911 27.1527C143.715 25.931 143.034 24.7848 142.474 23.6989C141.528 21.874 140.271 19.6947 137.865 19.8456C135.791 19.9738 134.565 22.319 134.868 24.1891C134.974 24.8452 135.209 25.4635 135.474 26.0668C135.632 26.4363 135.814 26.7907 136.011 27.1451C136.17 27.4392 136.525 27.8238 136.669 28.1556C136.631 28.1556 136.578 28.1556 136.495 28.1405C136.321 28.1028 136.087 28.1405 135.905 28.1405C135.375 28.1179 134.853 28.0425 134.331 27.9595C131.871 27.5599 129.639 27.2356 127.142 27.7333C125.235 28.1103 123.29 28.5025 121.481 29.2264C119.786 29.9051 117.758 31.0287 115.866 30.5762C114.685 30.2972 113.527 29.4526 112.589 28.7287C111.757 28.0877 110.576 27.1602 110.205 26.0668C110.152 25.1996 110.152 24.3324 110.205 23.4727H110.22ZM136.707 28.1631C136.722 28.1103 136.752 28.148 136.707 28.1631V28.1631ZM137.222 60.257C138.395 57.9344 139.742 55.6948 140.642 53.244C141.051 52.128 141.369 50.9742 141.513 49.7903C141.543 49.5565 141.55 49.3152 141.558 49.0815C141.883 48.8326 142.209 48.5838 142.549 48.35C143.616 47.611 145.433 46.8418 144.653 45.1678C143.889 43.5163 142.103 44.7983 141.323 45.7107C140.801 46.3291 140.582 46.955 140.582 47.7543C140.582 48.0484 140.574 48.3349 140.559 48.6139C138.909 49.9336 137.26 51.5172 135.231 52.2109C132.832 53.0253 130.971 51.6906 129.366 50.0542C129.034 49.7149 128.171 49.1418 127.815 48.6516C127.997 48.5687 128.163 48.4782 128.307 48.3952C129.336 47.7844 129.873 46.8268 129.858 45.6278C129.858 45.6202 129.858 45.6051 129.858 45.5976C129.858 45.5825 129.858 45.5674 129.858 45.5524C129.836 45.4091 129.752 45.296 129.646 45.2281C129.465 45.0999 129.208 45.0773 129.026 45.2809C128.935 45.3789 128.859 45.4468 128.799 45.5147C128.012 46.314 127.142 46.9625 126.771 47.973C126.362 48.071 125.953 48.0785 125.666 47.8749C125.242 47.5658 125.204 46.7212 124.962 46.2461C124.803 45.9369 124.395 45.4317 124.221 44.9642C124.372 44.6625 124.448 44.293 124.425 43.8104C124.41 43.4032 123.872 43.1242 123.57 43.456C123.199 43.8707 123.108 44.293 123.161 44.7229C122.904 45.0245 122.48 45.1753 121.996 45.3789C121.171 45.7333 120.58 45.7258 120.369 44.7078C120.066 43.2599 120.043 41.8121 119.423 40.4321C119.082 39.678 118.378 38.5695 117.417 39.0672C117.394 39.0747 117.372 39.0898 117.357 39.1049C117.198 38.7957 116.986 38.5016 116.789 38.2453C115.533 36.6013 113.633 35.4325 112.642 33.6001C111.817 32.0768 111 30.7647 110.621 29.0379C110.561 28.7664 110.516 28.4949 110.463 28.2234C111.197 28.9926 112.105 29.6487 112.884 30.1615C113.686 30.6969 114.587 31.2624 115.533 31.5188C116.895 31.8808 118.363 31.5037 119.65 31.0362C122.979 29.8221 126.392 28.4421 130.002 28.3893C132.106 28.3592 134.119 29.1585 136.223 29.151C136.737 29.151 137.494 29.1284 137.698 28.5477C137.789 28.2913 137.714 28.0953 137.615 27.8615C137.312 27.1376 136.76 26.4891 136.427 25.7576C135.754 24.2871 135.428 22.1229 137.085 21.1124C138.183 20.4413 139.507 21.1124 140.287 21.9495C141.293 23.0504 141.974 24.7396 142.549 26.0969C142.784 26.655 143.034 27.2884 142.965 27.9067C142.897 28.5176 142.481 29.0228 142.39 29.6336C142.254 30.531 142.746 31.089 143.525 31.4509C144.774 32.0391 146.174 32.5293 147.551 32.7027C148.959 32.8762 150.919 33.1024 152.221 32.4765C152.569 32.3106 153.114 31.8808 153.522 31.9864C154.196 32.1522 154.113 33.0044 154.105 33.502C154.09 34.3315 154.067 35.1761 154.181 35.9981C154.287 36.7371 154.506 37.4836 154.983 38.0718C155.467 38.6675 156.194 38.9013 156.792 39.3613C158.517 40.6885 160.152 42.4908 161.279 44.3534C161.347 44.4665 161.438 44.5343 161.544 44.5645C156.89 44.572 153.288 49.6847 152.501 53.8398C151.994 56.5243 152.433 59.2616 153.477 61.7652C153.999 63.0245 154.688 64.1858 155.392 65.3471C155.793 66.0107 156.201 66.6818 156.602 67.3454C156.958 67.9336 157.405 68.371 157.79 68.9215C158.108 69.3664 158.26 69.8942 158.6 70.3316C158.926 70.7614 159.334 71.0782 159.622 71.5382C160.363 72.6994 161.211 73.7627 161.93 74.9542C163.602 77.7443 165.275 80.5419 166.705 83.4603C168.082 86.2654 168.786 89.2667 169.929 92.1473C167.651 92.5847 165.388 93.0899 163.103 93.5273C159.993 94.1306 156.761 94.2889 153.749 95.3145C150.866 96.3023 148.081 97.5994 145.115 98.3459C143.525 98.7456 141.921 99.0925 140.332 98.6249C141.724 95.4955 141.717 92.1473 140.264 88.9274C139.295 86.7858 137.88 84.9006 136.336 83.1209C136.488 82.6081 136.821 82.1331 137.025 81.6505C137.888 79.6974 138.001 77.5784 137.608 75.4971C137.025 72.4431 135.481 69.6379 133.604 67.1192C135.027 64.9776 136.049 62.5344 137.207 60.2495L137.222 60.257ZM141.596 47.8448C141.649 47.1887 141.823 46.5704 142.39 46.0501C142.625 45.8389 143.291 45.213 143.624 45.4543C144.252 45.8992 143.404 46.6458 143.071 46.8645C142.572 47.1887 142.08 47.5054 141.596 47.8448ZM138.841 88.2939C138.584 87.8566 138.319 87.4192 138.047 86.9818C138.327 87.4117 138.591 87.849 138.841 88.2939ZM130.691 65.1058C131.274 65.7694 131.841 66.4556 132.386 67.1645C132.325 67.255 132.257 67.3379 132.189 67.4284C131.765 67.9789 131.266 68.5444 130.698 69.012C130.101 68.1372 129.351 67.3304 128.685 66.5235C128.67 66.5084 128.655 66.4933 128.64 66.4782C128.708 66.2897 128.769 66.0937 128.822 65.9051C129.041 65.1058 129.132 64.2914 129.155 63.4845C129.684 64.0048 130.191 64.5478 130.683 65.1133L130.691 65.1058ZM126.793 56.3584C127.838 57.5046 127.876 59.2767 127.982 60.7321C127.989 60.8528 127.997 60.9809 128.012 61.1016C127.308 60.521 126.574 59.9705 125.81 59.4652C125.908 58.3266 125.916 57.1427 125.605 56.0568C125.969 55.7778 126.317 55.8381 126.793 56.3584ZM124.432 55.7099C123.963 56.2905 123.562 57.0974 123.222 57.9721C122.858 57.7912 122.488 57.6177 122.109 57.4594C122.192 56.7807 122.245 56.0945 122.276 55.4083C122.276 55.2424 122.291 55.084 122.298 54.9332C122.45 54.8201 122.601 54.722 122.745 54.6542C123.57 54.2771 124.107 54.9709 124.425 55.7099H124.432ZM120.346 53.6286C120.898 53.5004 121.163 53.9001 121.269 54.5184C120.535 55.1066 119.831 55.7853 119.196 56.5017C118.507 56.3659 117.811 56.3207 117.115 56.4112C117.947 55.4535 119.097 53.9227 120.353 53.6286H120.346ZM110.599 63.3639C111.189 61.5918 112.786 59.9705 114.224 58.8243C114.299 58.7639 114.375 58.7112 114.451 58.6508C114.201 59.2843 114.042 59.9403 114.019 60.5964C113.982 61.6672 114.458 62.5872 115.419 63.0849C115.972 63.3714 116.615 63.4845 117.236 63.5298C117.629 63.5599 117.796 63.5449 117.97 63.658C115.783 63.8465 113.694 65.2868 111.87 66.3651C111.84 66.3802 111.817 66.3953 111.787 66.4104C110.758 65.8373 110.122 64.8042 110.599 63.3563V63.3639ZM111.666 111.369C110.697 110.539 110.008 109.499 108.805 108.971C107.367 108.338 105.672 108.33 104.136 108.443C97.2344 108.948 90.3327 109.378 83.4235 109.853C79.7153 110.11 76.0148 110.441 72.3294 110.894C70.9748 111.06 69.6201 111.165 68.3715 111.784C67.0623 112.432 66.0331 113.488 65.0418 114.544C64.6861 114.928 64.2471 115.622 63.7855 115.72C62.9455 115.893 62.4385 113.865 62.219 113.247C61.5682 111.437 61.0536 109.574 60.6601 107.689C60.4709 106.792 60.312 105.887 60.1758 104.974C60.0774 104.326 59.752 103.398 60.486 102.916C61.0082 102.576 61.6515 102.855 62.1585 103.029C63.8991 103.617 65.3293 104.771 67.0169 105.457C68.6061 106.105 70.112 105.887 71.7845 105.744C73.6083 105.585 75.4245 105.374 77.2332 105.125C80.4873 104.673 83.7186 104.054 86.9424 103.428C90.31 102.772 93.67 102.124 97.0603 101.611C98.2939 101.423 100.087 101.626 100.92 100.525C101.699 99.4997 100.663 98.5872 100.05 97.7125C97.9004 94.6509 95.6225 91.6873 93.4506 88.6408C92.3003 87.0271 91.5662 84.8402 92.217 82.8645C92.7695 81.198 94.0863 79.7426 95.3652 78.5813C98.0593 76.123 101.321 74.1548 104.363 72.1641C106.792 70.5729 109.267 69.0421 111.764 67.5566C112.695 67.9487 113.777 68.0015 114.882 67.8733C116.335 67.6999 118.696 67.0513 119.71 65.8448C120.974 67.1569 122.518 68.1825 124.046 69.1703C124.864 69.6982 125.643 70.2713 126.468 70.6483C126.468 70.7162 126.468 70.7841 126.476 70.8519C126.604 72.4129 127.528 73.8532 128.33 75.1653C129.117 76.4473 130.01 77.6086 131.001 78.7397C131.569 79.3807 132.151 80.0141 132.734 80.6475C132.976 81.1603 133.339 81.5977 133.892 81.8993C134.354 82.397 134.8 82.9022 135.246 83.4075C135.194 84.6291 136.056 85.6923 136.677 86.6877C137.6 88.1808 138.584 89.6739 139.25 91.3028C140.226 93.6857 140.097 96.0761 139.182 98.2856C138.1 98.0066 137.01 97.8256 135.859 97.9085C134.505 98.0066 133.211 98.4666 131.909 98.8135C130.206 99.2659 128.474 99.4016 126.718 99.5449C125.348 99.658 123.963 99.7787 122.631 100.141C121.935 100.329 120.762 100.608 120.626 101.483C120.512 102.252 121.315 102.516 121.912 102.689C122.525 102.863 123.146 102.976 123.766 103.074C122.896 103.195 122.018 103.263 121.156 103.398C119.423 103.67 117.705 104.054 116.01 104.514C115.813 104.567 115.624 104.778 115.646 104.997C115.737 106.226 116.237 106.136 117.092 106.256C116.925 106.302 116.759 106.347 116.592 106.415C115.48 106.867 114.776 108.187 116.153 108.775C117.357 109.288 118.605 109.597 119.869 109.74C119.862 109.77 119.854 109.8 119.854 109.831C119.112 110.72 118.878 111.806 118.742 113.036C118.711 113.315 118.673 113.594 118.636 113.873C116.093 113.857 113.641 113.088 111.62 111.361L111.666 111.369ZM158.139 163.687C149.633 163.921 141.127 163.424 132.643 162.903C129.412 162.707 126.188 162.519 122.957 162.383C122.033 162.24 121.057 162.142 120.142 162.104C118.023 162.013 115.858 162.044 113.732 162.157C112.839 162.074 111.969 161.915 111.121 161.599C110.591 161.403 110.077 161.139 109.607 160.807C108.889 159.849 108.692 158.635 108.556 157.466C108.45 156.614 108.45 155.792 108.503 154.985C109.501 151.501 110.546 148.033 111.598 144.564C111.696 144.436 111.787 144.3 111.855 144.149C112.793 142.249 113.21 139.904 113.777 137.86C114.072 136.804 114.33 135.756 114.738 134.738C115.177 133.637 115.798 132.589 116.07 131.428C116.562 129.309 116.91 127.069 117.629 125.003C118.06 123.766 118.575 122.552 119.022 121.323C119.445 120.162 119.544 119.204 119.566 117.99C119.582 117.002 119.695 115.886 119.877 114.838C123.857 114.483 127.573 112.674 130.562 110.049C131.175 109.514 131.796 108.963 132.409 108.398C138.834 108.157 145.258 108.292 151.683 108.413C156.875 108.511 162.18 108.767 167.401 108.481C167.416 108.609 167.492 108.737 167.651 108.82C167.424 108.7 167.56 108.684 167.591 108.963C167.613 109.182 167.636 109.401 167.643 109.619C167.681 110.381 167.674 111.15 167.659 111.912C167.621 113.873 167.515 115.833 167.401 117.794C167.212 120.923 167.053 124.068 166.675 127.182C165.214 139.278 164.064 151.381 162.982 163.506C161.362 163.597 159.735 163.642 158.146 163.687H158.139ZM161.93 207.756C161.9 208.299 161.983 209.747 161.688 210.003C161.347 210.305 160.5 210.26 160.076 210.275C159.236 210.298 158.388 210.237 157.556 210.117C157.072 210.049 154.302 209.709 154.279 208.993C154.256 208.307 157.109 207.869 157.737 207.817C159.122 207.711 160.522 207.688 161.93 207.734C161.93 207.741 161.93 207.749 161.93 207.756Z" fill="#FDD2CB"/>
</svg>
