<svg width="210" height="72" viewBox="0 0 210 72" fill="none" xmlns="http://www.w3.org/2000/svg">
<path fill-rule="evenodd" clip-rule="evenodd" d="M51.1278 49.4103C51.0751 48.9877 50.0752 47.1063 49.8647 46.6155C47.6016 41.9938 45.4437 37.2766 43.1806 32.6549C42.2333 30.7462 41.549 28.3331 38.9702 28.3331C36.4439 28.3331 35.8649 30.5826 34.9703 32.3686L29.8125 43.2071C29.4967 43.8207 27.3915 48.4287 27.1283 48.6332C27.0757 48.2924 26.6546 47.6244 26.4967 47.2699C26.2862 46.8064 26.0231 46.3701 25.8652 45.9201C25.0757 44.1751 24.0758 42.2119 23.2337 40.494C23.1284 40.2759 23.0758 40.0306 22.9705 39.7988C22.8127 39.567 22.76 39.3762 22.6021 39.1307C22.3916 38.6536 22.181 38.2446 21.9705 37.7947C21.7074 37.3447 21.5495 36.8949 21.339 36.4177L19.339 32.3686C18.3916 30.3781 17.918 28.3331 15.1812 28.3331C13.4444 28.3331 12.2339 29.8055 12.0234 31.4142C11.8129 32.7503 13.076 34.7681 13.6549 35.9269L22.7074 54.9045C23.7599 57.0314 24.4968 59.8671 27.1283 59.8671C29.602 59.8671 30.3388 57.8085 31.1809 55.8862C31.7598 54.4137 33.1808 51.9052 33.7598 50.4737C34.1282 49.5467 34.6544 48.6877 35.0755 47.7743L37.0228 43.6979C37.2333 43.2207 37.4438 42.8118 37.6544 42.3619C37.865 41.9119 38.0755 41.462 38.286 40.9848C38.4965 40.6304 38.8649 39.9215 38.9702 39.567C39.2333 39.7579 39.4965 40.5078 39.6544 40.8622L46.1805 54.4683C46.7068 55.5044 47.5489 57.6994 48.1805 58.531C49.5489 60.4125 52.4435 60.2352 53.7067 58.2584L55.3909 55.4772C55.654 55 55.9172 54.5773 56.2329 54.1002C56.4961 53.6094 56.7593 53.1731 57.0751 52.7096C57.6539 51.7689 58.1803 50.8691 58.7592 49.9284L65.4959 38.899C66.1275 37.9855 66.6012 37.0858 67.18 36.1723L71.3905 29.2602C71.7063 28.7694 71.9695 28.3331 72.2852 27.8696L78.1798 18.2172C78.6535 17.3992 78.7588 16.9492 78.7588 15.9404C78.7588 14.3998 77.1273 12.8456 75.601 12.8456C74.3905 12.8456 73.4431 13.3091 72.7589 14.1544C72.0747 15.0679 66.8643 23.9159 65.6012 25.8928L63.4434 29.4238C63.1801 29.8055 62.917 30.2009 62.7065 30.6235L59.4961 35.8723C57.8645 38.6536 56.075 41.312 54.4435 44.0796C54.3383 44.3251 54.233 44.4887 54.0751 44.7068L51.9172 48.2379C51.7594 48.4969 51.3384 49.274 51.1278 49.4103Z" fill="#184A61"/>
<path fill-rule="evenodd" clip-rule="evenodd" d="M137.442 44.5296C137.442 42.7981 137.547 41.653 138.337 40.0851C138.863 39.008 139.389 38.34 140.179 37.5356C143.073 34.5363 147.915 34.2363 151.389 36.6086C154.968 39.049 156.283 44.1751 154.441 47.8833C154.178 48.456 154.02 48.7968 153.652 49.3149C153.494 49.5193 153.336 49.7512 153.178 49.9284C152.389 50.8145 152.547 50.7055 151.494 51.5235C150.073 52.5869 148.389 53.0504 146.494 53.2004C145.6 53.2685 143.705 52.8323 142.863 52.4778C141.915 52.0688 141.284 51.6189 140.547 50.9781C140.179 50.6919 140.021 50.5828 139.652 50.1465C139.494 49.8875 139.337 49.7648 139.179 49.5057C138.863 49.0695 138.6 48.6332 138.337 48.1152C137.916 47.2426 137.442 45.7975 137.442 44.5296ZM130.705 16.0221V56.8405C130.705 58.8582 133.442 61.2441 136.179 59.199C136.863 58.6946 137.179 57.9721 137.337 57.1541C137.968 57.3177 142.284 61.1759 149.705 59.6217C150.757 59.4036 151.705 59.0627 152.652 58.6537C153.599 58.2038 154.284 57.8221 155.126 57.2495C157.599 55.5862 159.178 53.514 160.494 50.91C162.441 46.9017 162.494 41.353 160.494 37.3447C159.599 35.5043 159.336 35.1771 158.231 33.7729C155.81 30.719 151.336 28.1831 146.284 28.1831C144.021 28.1831 142.021 28.6876 140.231 29.451C138.915 30.01 138.231 30.569 137.337 31.0462C137.337 27.4606 137.337 23.875 137.337 20.2894C137.337 18.9669 137.547 16.0358 137.179 15.1087C136.337 12.6684 133.389 12.1503 131.758 13.7999C131.284 14.2635 130.705 15.1224 130.705 16.0221Z" fill="#184A61"/>
<path fill-rule="evenodd" clip-rule="evenodd" d="M173.019 44.0655C173.019 37.2352 180.598 32.2999 187.071 36.6217C193.019 40.6162 192.124 50.8412 183.966 52.9408C182.019 53.4452 179.861 53.0908 178.335 52.3682C175.072 50.8412 173.019 47.7329 173.019 44.0655ZM166.335 44.0655C166.335 48.2646 167.651 51.223 169.966 54.236C170.124 54.495 170.23 54.5496 170.44 54.7677C171.124 55.6403 172.072 56.4583 173.019 57.099C174.124 57.9033 174.335 57.9579 175.545 58.5714C176.23 58.9532 177.493 59.3757 178.387 59.5803C180.598 60.0984 182.387 60.112 184.65 59.7575C188.019 59.2395 190.65 57.2489 191.019 57.1535C191.071 58.5851 192.598 60.0847 194.598 59.9484C196.229 59.8393 197.492 58.4896 197.65 56.7309V56.3764V31.8227V31.4955C197.44 28.2508 193.808 27.3373 192.124 29.0552C191.598 29.5732 191.019 30.2276 191.019 31.0456L189.177 29.9685C187.387 28.8916 184.177 28.1826 181.966 28.1826C173.388 28.1826 166.335 35.3537 166.335 44.0655Z" fill="#184A61"/>
<path fill-rule="evenodd" clip-rule="evenodd" d="M76.9673 44.1336C76.9673 42.6748 77.3357 41.4887 77.7567 40.4253C77.9672 39.9754 78.2304 39.3892 78.5462 38.9801C78.9672 38.3666 79.5988 37.6986 80.1251 37.1805C81.4935 35.8853 83.9145 34.9992 85.9144 34.9992C87.3354 34.9992 88.4933 35.3537 89.5459 35.79C90.0722 35.9944 90.4933 36.2808 90.9669 36.5943C94.5985 39.062 95.9669 44.0518 93.9669 48.1282C92.7037 50.5958 90.6512 52.2454 88.0196 52.9271L85.967 53.1998C84.2829 53.2407 82.3356 52.559 80.9145 51.6047C78.5462 50.0095 76.9673 47.0921 76.9673 44.1336ZM70.2832 44.0654C70.2832 46.4103 70.9147 49.0007 71.6516 50.5686L72.2831 51.8637C72.5463 52.3136 72.7568 52.6681 73.0726 53.0907C73.2305 53.3225 73.2831 53.4724 73.441 53.6906L74.8094 55.313C79.3882 59.9483 86.3881 61.2844 92.2827 58.6259C93.2301 58.2032 93.9669 57.7396 94.809 57.1943C95.23 56.908 95.5458 56.649 95.9142 56.3355C96.1774 56.131 96.23 56.0628 96.4405 55.8583C96.9668 55.313 96.5984 55.7764 97.3879 54.8903C97.5458 54.6858 97.7036 54.5767 97.8615 54.3722C98.1773 53.9905 98.4404 53.636 98.7563 53.227C101.493 49.1779 102.44 43.82 100.809 39.0756C100.388 37.8759 100.177 37.3987 99.5983 36.3353C99.493 36.1035 99.3352 35.9263 99.2299 35.7081C98.1247 33.8131 96.7036 32.3816 94.9142 31.1C94.7037 30.9228 94.5985 30.8411 94.3352 30.6911C93.1774 29.9821 92.4406 29.5459 91.0722 29.0687C80.7566 25.4967 70.2832 33.2951 70.2832 44.0654Z" fill="#184A61"/>
<path fill-rule="evenodd" clip-rule="evenodd" d="M105.708 16.4171V56.3765C105.708 58.3806 107.182 59.9349 108.761 59.9349C109.971 59.9349 110.603 59.853 111.497 58.9124C111.971 58.4079 112.445 57.5899 112.445 56.6083V16.2535C112.445 15.5855 112.182 14.8492 111.866 14.3584L111.497 13.8813C111.392 13.7314 111.234 13.6495 111.076 13.5268C110.866 13.3496 110.813 13.336 110.55 13.2132C108.34 12.068 105.708 13.704 105.708 16.4171Z" fill="#184A61"/>
<path fill-rule="evenodd" clip-rule="evenodd" d="M118.389 25.3196V56.99C118.389 58.9123 121.336 61.339 123.968 59.0622C124.494 58.626 125.02 57.5899 125.02 56.84V25.4014C125.02 22.9338 121.704 21.066 119.441 23.1247C118.915 23.5882 118.389 24.5425 118.389 25.3196Z" fill="#184A61"/>
<path fill-rule="evenodd" clip-rule="evenodd" d="M22.1289 29.5729C22.1289 30.5818 22.1815 31.1135 22.6026 31.9997C24.1815 35.2035 28.3393 35.8851 30.655 33.4721C33.7076 30.3228 32.076 25.6329 28.2867 24.6921C26.6025 24.2832 24.8131 24.8557 23.6552 26.0282C23.2342 26.4781 22.8658 26.9008 22.6026 27.5142C22.3394 28.0869 22.1289 28.7685 22.1289 29.5729Z" fill="#DA6C74"/>
<path fill-rule="evenodd" clip-rule="evenodd" d="M46.9688 29.4237C46.9688 31.1688 47.2846 32.2049 48.4951 33.4319C50.9687 35.9405 55.0738 35.0952 56.5476 32.0549C58.0739 29.001 56.4422 24.9792 52.1266 24.5565C51.0213 24.4475 49.3371 25.1701 48.6004 25.9608C47.7056 26.8333 46.9688 28.0331 46.9688 29.4237Z" fill="#DA6C74"/>
<path fill-rule="evenodd" clip-rule="evenodd" d="M118.023 15.5583C118.023 17.8351 119.55 19.512 121.76 19.512C123.655 19.512 125.392 17.8214 125.392 15.8719C125.392 15.1493 125.339 14.8085 125.023 14.1404C124.497 13.0497 123.286 12 122.023 12C120.813 12 119.918 12.1364 119.023 13.118C118.497 13.6633 118.023 14.5221 118.023 15.5583Z" fill="#184A61"/>
</svg>
